<svg width="112" height="40" viewBox="0 0 112 40" fill="none" xmlns="http://www.w3.org/2000/svg">
<g clip-path="url(#clip0_22_3686)">
<rect width="112" height="40" rx="20" fill="#58633A"/>
<path d="M31.825 21L37.425 26.6L36 28L28 20L36 12L37.425 13.4L31.825 19H44V21H31.825Z" fill="white"/>
<path d="M61.0902 20.502H58.5541L58.5404 19.251H60.7553C61.129 19.251 61.4457 19.1963 61.7055 19.0869C61.9698 18.973 62.1703 18.8112 62.307 18.6016C62.4438 18.3874 62.5121 18.1299 62.5121 17.8291C62.5121 17.4964 62.4483 17.2253 62.3207 17.0156C62.1931 16.806 61.9971 16.6533 61.7328 16.5576C61.473 16.4619 61.1404 16.4141 60.7348 16.4141H59.0736V25H57.3578V15.0469H60.7348C61.2816 15.0469 61.7693 15.0993 62.1977 15.2041C62.6306 15.3089 62.9975 15.473 63.2982 15.6963C63.6036 15.915 63.8337 16.193 63.9887 16.5303C64.1482 16.8675 64.2279 17.2686 64.2279 17.7334C64.2279 18.1436 64.1299 18.5195 63.934 18.8613C63.738 19.1986 63.4486 19.4743 63.0658 19.6885C62.683 19.9027 62.2068 20.0303 61.6371 20.0713L61.0902 20.502ZM61.015 25H58.0141L58.7865 23.6396H61.015C61.4024 23.6396 61.726 23.5758 61.9857 23.4482C62.2455 23.3161 62.4392 23.1361 62.5668 22.9082C62.699 22.6758 62.765 22.4046 62.765 22.0947C62.765 21.7712 62.7081 21.4909 62.5941 21.2539C62.4802 21.0124 62.3002 20.8278 62.0541 20.7002C61.808 20.568 61.4867 20.502 61.0902 20.502H59.1625L59.1762 19.251H61.685L62.0746 19.7227C62.6215 19.7409 63.0704 19.8617 63.4213 20.085C63.7768 20.3083 64.0411 20.5977 64.2143 20.9531C64.3874 21.3086 64.474 21.6914 64.474 22.1016C64.474 22.735 64.335 23.266 64.057 23.6943C63.7836 24.1227 63.3894 24.4486 62.8744 24.6719C62.3594 24.8906 61.7396 25 61.015 25ZM70.3094 23.5166V19.9893C70.3094 19.7249 70.2615 19.4971 70.1658 19.3057C70.0701 19.1143 69.9243 18.9661 69.7283 18.8613C69.5369 18.7565 69.2954 18.7041 69.0037 18.7041C68.7348 18.7041 68.5024 18.7497 68.3064 18.8408C68.1105 18.932 67.9578 19.055 67.8484 19.21C67.7391 19.3649 67.6844 19.5404 67.6844 19.7363H66.0438C66.0438 19.4447 66.1144 19.1621 66.2557 18.8887C66.3969 18.6152 66.602 18.3714 66.8709 18.1572C67.1398 17.943 67.4611 17.7744 67.8348 17.6514C68.2085 17.5283 68.6277 17.4668 69.0926 17.4668C69.6486 17.4668 70.1408 17.5602 70.5691 17.7471C71.0021 17.9339 71.3416 18.2165 71.5877 18.5947C71.8383 18.9684 71.9637 19.4378 71.9637 20.0029V23.291C71.9637 23.6283 71.9865 23.9313 72.032 24.2002C72.0822 24.4645 72.1528 24.6947 72.2439 24.8906V25H70.5555C70.478 24.8223 70.4165 24.5967 70.3709 24.3232C70.3299 24.0452 70.3094 23.7764 70.3094 23.5166ZM70.5486 20.502L70.5623 21.5205H69.3797C69.0743 21.5205 68.8055 21.5501 68.573 21.6094C68.3406 21.6641 68.1469 21.7461 67.992 21.8555C67.837 21.9648 67.7208 22.097 67.6434 22.252C67.5659 22.4069 67.5271 22.5824 67.5271 22.7783C67.5271 22.9743 67.5727 23.1543 67.6639 23.3184C67.755 23.4779 67.8872 23.6032 68.0604 23.6943C68.2381 23.7855 68.4523 23.8311 68.7029 23.8311C69.0402 23.8311 69.3341 23.7627 69.5848 23.626C69.84 23.4847 70.0405 23.3138 70.1863 23.1133C70.3322 22.9082 70.4096 22.7145 70.4188 22.5322L70.952 23.2637C70.8973 23.4505 70.8038 23.651 70.6717 23.8652C70.5395 24.0794 70.3663 24.2845 70.1521 24.4805C69.9425 24.6719 69.6896 24.8291 69.3934 24.9521C69.1017 25.0752 68.7645 25.1367 68.3816 25.1367C67.8986 25.1367 67.4679 25.041 67.0896 24.8496C66.7114 24.6536 66.4152 24.3916 66.201 24.0635C65.9868 23.7308 65.8797 23.3548 65.8797 22.9355C65.8797 22.5436 65.9526 22.1973 66.0984 21.8965C66.2488 21.5911 66.4676 21.3359 66.7547 21.1309C67.0464 20.9258 67.4018 20.7708 67.8211 20.666C68.2404 20.5566 68.7189 20.502 69.2566 20.502H70.5486ZM76.8078 23.8242C77.0767 23.8242 77.3182 23.7718 77.5324 23.667C77.7512 23.5576 77.9266 23.4072 78.0588 23.2158C78.1955 23.0244 78.2707 22.8034 78.2844 22.5527H79.8361C79.827 23.0312 79.6857 23.4665 79.4123 23.8584C79.1389 24.2503 78.7766 24.5625 78.3254 24.7949C77.8742 25.0228 77.3752 25.1367 76.8283 25.1367C76.2632 25.1367 75.771 25.041 75.3518 24.8496C74.9325 24.6536 74.5839 24.3848 74.3059 24.043C74.0279 23.7012 73.8182 23.307 73.677 22.8604C73.5402 22.4137 73.4719 21.9352 73.4719 21.4248V21.1855C73.4719 20.6751 73.5402 20.1966 73.677 19.75C73.8182 19.2988 74.0279 18.9023 74.3059 18.5605C74.5839 18.2188 74.9325 17.9521 75.3518 17.7607C75.771 17.5648 76.2609 17.4668 76.8215 17.4668C77.4139 17.4668 77.9335 17.5853 78.3801 17.8223C78.8267 18.0547 79.1776 18.3805 79.4328 18.7998C79.6926 19.2145 79.827 19.6976 79.8361 20.249H78.2844C78.2707 19.9756 78.2023 19.7295 78.0793 19.5107C77.9608 19.2874 77.7922 19.1097 77.5734 18.9775C77.3592 18.8454 77.1018 18.7793 76.801 18.7793C76.4683 18.7793 76.1926 18.8477 75.9738 18.9844C75.7551 19.1165 75.5842 19.2988 75.4611 19.5312C75.3381 19.7591 75.2492 20.0166 75.1945 20.3037C75.1444 20.5863 75.1193 20.8802 75.1193 21.1855V21.4248C75.1193 21.7301 75.1444 22.0264 75.1945 22.3135C75.2447 22.6006 75.3313 22.8581 75.4543 23.0859C75.5819 23.3092 75.7551 23.4893 75.9738 23.626C76.1926 23.7581 76.4706 23.8242 76.8078 23.8242ZM82.8619 14.5V25H81.2076V14.5H82.8619ZM87.4557 17.6035L84.2359 21.1719L82.4723 22.9766L82.0416 21.582L83.3746 19.9346L85.4664 17.6035H87.4557ZM85.8219 25L83.4225 21.5273L84.4615 20.3721L87.7291 25H85.8219Z" fill="white"/>
</g>
<defs>
<clipPath id="clip0_22_3686">
<rect width="112" height="40" rx="20" fill="white"/>
</clipPath>
</defs>
</svg>
