<?xml version="1.0" standalone="no"?>
<!DOCTYPE svg PUBLIC "-//W3C//DTD SVG 20010904//EN"
 "http://www.w3.org/TR/2001/REC-SVG-20010904/DTD/svg10.dtd">
<svg version="1.0" xmlns="http://www.w3.org/2000/svg"
 width="45px" height="45px" viewBox="0 0 200.000000 200.000000"
 preserveAspectRatio="xMidYMid meet">

<g transform="translate(0.000000,200.000000) scale(0.100000,-0.100000)"
fill="#000000" stroke="none">
<path d="M830 1575 c-36 -8 -95 -26 -133 -41 -70 -27 -199 -106 -229 -141 -17
-19 -17 -20 5 -41 l24 -22 58 25 c97 43 178 57 298 53 l107 -4 0 93 0 93 -32
-1 c-18 0 -62 -7 -98 -14z"/>
<path d="M1040 1482 c0 -111 0 -112 26 -118 69 -17 222 -143 289 -238 l20 -28
115 106 c63 58 115 112 115 118 0 24 -151 139 -240 183 -95 46 -172 70 -267
81 l-58 7 0 -111z"/>
<path d="M349 1268 c-43 -55 -123 -210 -135 -263 -3 -16 13 8 36 54 28 56 65
108 111 156 67 70 68 73 50 89 -19 17 -21 15 -62 -36z"/>
<path d="M1390 1003 l-341 -317 34 -18 c33 -16 69 -53 93 -93 9 -16 51 26 320
314 l309 332 3 50 3 49 -40 0 c-38 0 -52 -11 -381 -317z"/>
<path d="M1659 948 c-58 -62 -109 -119 -113 -125 -6 -10 24 -13 133 -13 135 0
141 1 141 20 0 30 -30 170 -43 203 l-12 28 -106 -113z"/>
<path d="M958 594 c-85 -46 -50 -184 46 -184 51 0 98 44 98 92 0 46 -16 74
-52 93 -36 19 -57 18 -92 -1z"/>
</g>
</svg>
