<svg width="358" height="88" viewBox="0 0 358 88" fill="none" xmlns="http://www.w3.org/2000/svg">
<path d="M117.589 41.34C118.621 41.34 119.545 41.244 120.361 41.052C121.201 40.836 121.921 40.548 122.521 40.188C122.641 40.308 122.749 40.476 122.845 40.692C122.965 40.908 123.025 41.148 123.025 41.412C123.025 42.036 122.677 42.564 121.981 42.996C121.285 43.404 120.193 43.608 118.705 43.608C117.937 43.608 117.181 43.572 116.437 43.5C115.693 43.404 114.949 43.284 114.205 43.14V53.004C114.205 53.58 114.313 54.036 114.529 54.372C114.769 54.708 115.045 54.96 115.357 55.128C115.693 55.272 116.041 55.368 116.401 55.416C116.785 55.464 117.121 55.488 117.409 55.488V57C117.121 57 116.761 56.988 116.329 56.964C115.897 56.916 115.453 56.868 114.997 56.82C114.541 56.772 114.097 56.736 113.665 56.712C113.233 56.664 112.873 56.64 112.585 56.64C112.297 56.64 111.937 56.664 111.505 56.712C111.073 56.736 110.629 56.772 110.173 56.82C109.717 56.868 109.273 56.916 108.841 56.964C108.409 56.988 108.049 57 107.761 57V55.488C108.073 55.488 108.421 55.464 108.805 55.416C109.189 55.368 109.537 55.272 109.849 55.128C110.161 54.96 110.425 54.708 110.641 54.372C110.857 54.036 110.965 53.58 110.965 53.004V39.468C110.965 38.58 110.941 37.848 110.893 37.272C110.869 36.672 110.773 36.216 110.605 35.904C110.437 35.568 110.197 35.34 109.885 35.22C109.573 35.076 109.141 35.004 108.589 35.004V33.744C109.189 33.744 109.705 33.708 110.137 33.636C110.593 33.564 111.001 33.456 111.361 33.312C111.721 33.168 112.045 33 112.333 32.808C112.645 32.616 112.969 32.412 113.305 32.196H114.205V41.232C114.757 41.28 115.321 41.316 115.897 41.34C116.473 41.34 117.037 41.34 117.589 41.34ZM110.821 29.568C110.149 29.568 109.501 29.676 108.877 29.892C108.253 30.108 107.701 30.456 107.221 30.936C106.741 31.392 106.357 32.016 106.069 32.808C105.781 33.576 105.637 34.512 105.637 35.616C105.637 36.216 105.673 36.756 105.745 37.236C105.817 37.692 105.877 38.184 105.925 38.712C104.821 38.712 103.993 38.46 103.441 37.956C102.889 37.452 102.613 36.816 102.613 36.048C102.613 35.496 102.733 35.064 102.973 34.752C103.237 34.416 103.573 34.152 103.981 33.96C103.717 33.816 103.537 33.516 103.441 33.06C103.345 32.604 103.297 32.22 103.297 31.908C103.297 31.236 103.465 30.624 103.801 30.072C104.137 29.52 104.593 29.052 105.169 28.668C105.769 28.284 106.465 27.996 107.257 27.804C108.049 27.588 108.913 27.48 109.849 27.48C110.713 27.48 111.565 27.564 112.405 27.732C113.245 27.876 114.061 28.056 114.853 28.272C115.645 28.464 116.401 28.644 117.121 28.812C117.865 28.956 118.585 29.028 119.281 29.028C120.121 29.028 120.925 28.872 121.693 28.56C122.485 28.224 123.289 27.612 124.105 26.724C124.393 26.796 124.693 27.012 125.005 27.372C125.341 27.732 125.509 28.188 125.509 28.74C125.509 29.22 125.329 29.664 124.969 30.072C124.609 30.456 123.973 30.648 123.061 30.648C123.061 30.816 123.025 31.02 122.953 31.26C122.881 31.476 122.749 31.692 122.557 31.908C122.389 32.1 122.149 32.268 121.837 32.412C121.549 32.556 121.177 32.628 120.721 32.628C120.025 32.628 119.281 32.472 118.489 32.16C117.721 31.824 116.917 31.476 116.077 31.116C115.261 30.732 114.409 30.384 113.521 30.072C112.633 29.736 111.733 29.568 110.821 29.568ZM133.043 53.436C133.043 53.916 133.115 54.312 133.259 54.624C133.427 54.936 133.619 55.188 133.835 55.38C134.075 55.572 134.339 55.716 134.627 55.812C134.939 55.884 135.239 55.92 135.527 55.92V57C135.239 57 134.915 56.988 134.555 56.964C134.219 56.916 133.859 56.868 133.475 56.82C133.091 56.772 132.719 56.736 132.359 56.712C132.023 56.664 131.711 56.64 131.423 56.64C131.135 56.64 130.811 56.664 130.451 56.712C130.115 56.736 129.755 56.772 129.371 56.82C128.987 56.868 128.615 56.916 128.255 56.964C127.919 56.988 127.607 57 127.319 57V55.92C127.967 55.92 128.543 55.74 129.047 55.38C129.551 55.02 129.803 54.372 129.803 53.436V34.788C129.803 33.9 129.779 33.168 129.731 32.592C129.707 31.992 129.611 31.536 129.443 31.224C129.275 30.888 129.035 30.66 128.723 30.54C128.411 30.396 127.979 30.324 127.427 30.324V29.424C128.027 29.424 128.543 29.388 128.975 29.316C129.431 29.244 129.839 29.136 130.199 28.992C130.559 28.848 130.883 28.68 131.171 28.488C131.483 28.296 131.807 28.092 132.143 27.876H133.043V53.436ZM152.237 53.436C152.237 53.916 152.309 54.312 152.453 54.624C152.621 54.936 152.813 55.188 153.029 55.38C153.269 55.572 153.533 55.716 153.821 55.812C154.133 55.884 154.433 55.92 154.721 55.92V57C154.169 57 153.689 56.952 153.281 56.856C152.897 56.76 152.429 56.712 151.877 56.712C151.325 56.712 150.845 56.724 150.437 56.748C150.029 56.772 149.549 56.856 148.997 57V55.092C148.445 55.716 147.785 56.28 147.017 56.784C146.249 57.264 145.313 57.504 144.209 57.504C143.321 57.504 142.505 57.384 141.761 57.144C141.041 56.904 140.417 56.556 139.889 56.1C139.385 55.644 138.989 55.104 138.701 54.48C138.413 53.832 138.269 53.112 138.269 52.32C138.269 51.552 138.413 50.868 138.701 50.268C139.013 49.644 139.445 49.128 139.997 48.72C140.549 48.288 141.197 47.964 141.941 47.748C142.685 47.508 143.513 47.388 144.425 47.388C145.457 47.388 146.333 47.496 147.053 47.712C147.797 47.904 148.445 48.132 148.997 48.396V47.064C148.997 46.44 148.949 45.816 148.853 45.192C148.781 44.568 148.625 44.004 148.385 43.5C148.145 42.996 147.797 42.588 147.341 42.276C146.885 41.964 146.297 41.808 145.577 41.808C145.265 41.808 144.917 41.844 144.533 41.916C144.173 41.988 143.837 42.12 143.525 42.312C143.213 42.48 142.949 42.72 142.733 43.032C142.517 43.32 142.409 43.692 142.409 44.148C142.409 44.388 142.445 44.664 142.517 44.976C142.157 45.168 141.761 45.264 141.329 45.264C140.657 45.264 140.165 45.084 139.853 44.724C139.541 44.34 139.385 43.908 139.385 43.428C139.385 42.948 139.541 42.528 139.853 42.168C140.189 41.784 140.657 41.592 141.257 41.592C141.257 41.328 141.377 41.1 141.617 40.908C141.857 40.716 142.169 40.572 142.553 40.476C142.961 40.356 143.405 40.272 143.885 40.224C144.365 40.176 144.857 40.152 145.361 40.152C146.441 40.152 147.401 40.284 148.241 40.548C149.105 40.788 149.825 41.22 150.401 41.844C151.001 42.444 151.457 43.26 151.769 44.292C152.081 45.3 152.237 46.584 152.237 48.144V53.436ZM145.217 55.848C146.057 55.848 146.789 55.608 147.413 55.128C148.037 54.624 148.565 54.024 148.997 53.328V49.728C148.445 49.464 147.833 49.248 147.161 49.08C146.489 48.888 145.817 48.792 145.145 48.792C144.185 48.792 143.357 49.08 142.661 49.656C141.989 50.232 141.653 51.048 141.653 52.104C141.653 53.208 141.977 54.108 142.625 54.804C143.273 55.5 144.137 55.848 145.217 55.848ZM164.756 57.504C163.34 57.504 162.224 57.228 161.408 56.676C160.616 56.1 160.016 55.38 159.608 54.516C159.2 53.652 158.936 52.716 158.816 51.708C158.72 50.7 158.672 49.752 158.672 48.864C158.672 47.544 158.648 46.512 158.6 45.768C158.576 45 158.48 44.424 158.312 44.04C158.168 43.656 157.94 43.416 157.628 43.32C157.316 43.2 156.872 43.14 156.296 43.14V42.06C156.896 42.06 157.4 42.024 157.808 41.952C158.24 41.88 158.624 41.772 158.96 41.628C159.296 41.484 159.608 41.316 159.896 41.124C160.184 40.932 160.496 40.728 160.832 40.512H161.912V48.108C161.912 48.708 161.936 49.44 161.984 50.304C162.032 51.168 162.176 51.996 162.416 52.788C162.656 53.58 163.016 54.264 163.496 54.84C163.976 55.392 164.648 55.668 165.512 55.668C166.256 55.668 166.916 55.44 167.492 54.984C168.068 54.528 168.548 53.928 168.932 53.184C169.316 52.416 169.604 51.528 169.796 50.52C169.988 49.512 170.084 48.444 170.084 47.316C170.084 46.476 170.012 45.72 169.868 45.048C169.748 44.352 169.52 43.764 169.184 43.284C168.872 42.804 168.428 42.42 167.852 42.132C167.3 41.82 166.592 41.616 165.728 41.52C165.992 41.112 166.352 40.788 166.808 40.548C167.288 40.284 167.768 40.152 168.248 40.152C168.44 40.152 168.644 40.176 168.86 40.224C169.1 40.272 169.316 40.344 169.508 40.44C169.7 40.512 169.856 40.62 169.976 40.764C170.12 40.908 170.192 41.076 170.192 41.268C170.984 41.268 171.488 41.604 171.704 42.276C171.944 42.948 172.064 44.04 172.064 45.552C172.064 46.968 171.98 48.384 171.812 49.8C171.644 51.216 171.296 52.5 170.768 53.652C170.24 54.78 169.496 55.704 168.536 56.424C167.6 57.144 166.34 57.504 164.756 57.504ZM184.19 57.504C182.99 57.504 181.874 57.3 180.842 56.892C179.834 56.46 178.946 55.86 178.178 55.092C177.41 54.324 176.81 53.4 176.378 52.32C175.946 51.24 175.73 50.028 175.73 48.684C175.73 47.316 175.946 46.104 176.378 45.048C176.81 43.992 177.41 43.104 178.178 42.384C178.946 41.64 179.834 41.088 180.842 40.728C181.874 40.344 182.99 40.152 184.19 40.152C185.366 40.152 186.47 40.344 187.502 40.728C188.534 41.088 189.434 41.64 190.202 42.384C190.97 43.104 191.57 43.992 192.002 45.048C192.434 46.104 192.65 47.316 192.65 48.684C192.65 50.052 192.434 51.276 192.002 52.356C191.57 53.436 190.97 54.36 190.202 55.128C189.434 55.896 188.534 56.484 187.502 56.892C186.47 57.3 185.366 57.504 184.19 57.504ZM184.226 55.848C185.114 55.848 185.87 55.656 186.494 55.272C187.118 54.888 187.634 54.372 188.042 53.724C188.45 53.052 188.75 52.284 188.942 51.42C189.134 50.556 189.23 49.644 189.23 48.684C189.23 47.748 189.134 46.86 188.942 46.02C188.75 45.18 188.45 44.46 188.042 43.86C187.634 43.236 187.106 42.744 186.458 42.384C185.834 42.024 185.078 41.844 184.19 41.844C183.302 41.844 182.534 42.024 181.886 42.384C181.262 42.72 180.746 43.2 180.338 43.824C179.93 44.424 179.63 45.144 179.438 45.984C179.246 46.824 179.15 47.724 179.15 48.684C179.15 49.644 179.246 50.556 179.438 51.42C179.63 52.284 179.93 53.052 180.338 53.724C180.77 54.372 181.298 54.888 181.922 55.272C182.57 55.656 183.338 55.848 184.226 55.848ZM209.197 47.604C209.197 46.716 209.173 45.984 209.125 45.408C209.101 44.808 209.005 44.352 208.837 44.04C208.669 43.704 208.429 43.476 208.117 43.356C207.805 43.212 207.373 43.14 206.821 43.14V42.06C207.421 42.06 207.925 42.024 208.333 41.952C208.765 41.88 209.149 41.772 209.485 41.628C209.821 41.484 210.133 41.316 210.421 41.124C210.709 40.932 211.021 40.728 211.357 40.512H212.437V53.292C212.437 53.772 212.509 54.168 212.653 54.48C212.821 54.792 213.013 55.044 213.229 55.236C213.469 55.428 213.733 55.572 214.021 55.668C214.333 55.74 214.633 55.776 214.921 55.776V57.036C214.369 56.964 213.889 56.904 213.481 56.856C213.097 56.784 212.605 56.748 212.005 56.748C211.189 56.748 210.373 56.832 209.557 57L209.197 56.64V54.624C208.933 55.032 208.657 55.416 208.369 55.776C208.105 56.112 207.781 56.412 207.397 56.676C207.013 56.916 206.569 57.108 206.065 57.252C205.561 57.42 204.961 57.504 204.265 57.504C201.865 57.504 200.149 56.772 199.117 55.308C198.085 53.82 197.545 51.672 197.497 48.864C197.473 47.568 197.437 46.548 197.389 45.804C197.365 45.036 197.281 44.46 197.137 44.076C196.993 43.668 196.765 43.416 196.453 43.32C196.141 43.2 195.697 43.14 195.121 43.14V42.06C195.721 42.06 196.225 42.024 196.633 41.952C197.065 41.88 197.449 41.772 197.785 41.628C198.121 41.484 198.433 41.316 198.721 41.124C199.009 40.932 199.321 40.728 199.657 40.512H200.737V48.108C200.737 49.572 200.833 50.796 201.025 51.78C201.217 52.764 201.481 53.556 201.817 54.156C202.177 54.756 202.597 55.188 203.077 55.452C203.557 55.692 204.085 55.812 204.661 55.812C205.333 55.812 205.945 55.644 206.497 55.308C207.073 54.948 207.553 54.456 207.937 53.832C208.345 53.208 208.657 52.476 208.873 51.636C209.089 50.772 209.197 49.848 209.197 48.864V47.604ZM223.157 53.436C223.157 53.916 223.229 54.312 223.373 54.624C223.541 54.936 223.733 55.188 223.949 55.38C224.189 55.572 224.453 55.716 224.741 55.812C225.053 55.884 225.353 55.92 225.641 55.92V57C225.353 57 225.029 56.988 224.669 56.964C224.333 56.916 223.973 56.868 223.589 56.82C223.205 56.772 222.833 56.736 222.473 56.712C222.137 56.664 221.825 56.64 221.537 56.64C221.249 56.64 220.925 56.664 220.565 56.712C220.229 56.736 219.869 56.772 219.485 56.82C219.101 56.868 218.729 56.916 218.369 56.964C218.033 56.988 217.721 57 217.433 57V55.92C218.081 55.92 218.657 55.74 219.161 55.38C219.665 55.02 219.917 54.372 219.917 53.436V47.424C219.917 46.536 219.893 45.804 219.845 45.228C219.821 44.628 219.725 44.172 219.557 43.86C219.389 43.524 219.149 43.296 218.837 43.176C218.525 43.032 218.093 42.96 217.541 42.96V42.06C218.141 42.06 218.657 42.024 219.089 41.952C219.545 41.88 219.953 41.772 220.313 41.628C220.673 41.484 220.997 41.316 221.285 41.124C221.597 40.932 221.921 40.728 222.257 40.512H223.157V44.256C223.733 42.84 224.417 41.808 225.209 41.16C226.025 40.488 226.853 40.152 227.693 40.152C228.221 40.152 228.701 40.236 229.133 40.404C229.565 40.572 229.781 40.86 229.781 41.268C230.261 41.268 230.633 41.424 230.897 41.736C231.185 42.048 231.329 42.48 231.329 43.032C231.329 43.656 231.113 44.208 230.681 44.688C230.249 45.144 229.529 45.468 228.521 45.66C228.617 45.3 228.665 44.94 228.665 44.58C228.665 43.716 228.461 43.08 228.053 42.672C227.669 42.264 227.237 42.06 226.757 42.06C226.373 42.06 225.965 42.264 225.533 42.672C225.125 43.056 224.741 43.596 224.381 44.292C224.021 44.988 223.721 45.804 223.481 46.74C223.265 47.652 223.157 48.648 223.157 49.728V53.436Z" fill="#566144"/>
<path d="M239.158 53.004C239.158 53.58 239.29 54.036 239.554 54.372C239.818 54.708 240.13 54.96 240.49 55.128C240.874 55.272 241.27 55.368 241.678 55.416C242.086 55.464 242.434 55.488 242.722 55.488V57C242.434 57 242.05 56.988 241.57 56.964C241.114 56.916 240.634 56.868 240.13 56.82C239.626 56.772 239.134 56.736 238.654 56.712C238.198 56.664 237.826 56.64 237.538 56.64C237.25 56.64 236.866 56.664 236.386 56.712C235.93 56.736 235.45 56.772 234.946 56.82C234.442 56.868 233.95 56.916 233.47 56.964C233.014 56.988 232.642 57 232.354 57V55.488C232.666 55.488 233.026 55.464 233.434 55.416C233.866 55.368 234.262 55.272 234.622 55.128C234.982 54.96 235.282 54.708 235.522 54.372C235.786 54.036 235.918 53.58 235.918 53.004V31.296C235.918 30.552 235.63 29.988 235.054 29.604C234.502 29.196 233.722 28.992 232.714 28.992C232.714 28.584 232.858 28.236 233.146 27.948C233.434 27.636 233.974 27.48 234.766 27.48C235.318 27.48 235.834 27.588 236.314 27.804C236.818 28.02 237.226 28.284 237.538 28.596C237.85 28.284 238.246 28.02 238.726 27.804C239.23 27.588 239.758 27.48 240.31 27.48C241.102 27.48 241.642 27.636 241.93 27.948C242.218 28.236 242.362 28.584 242.362 28.992C241.378 28.992 240.598 29.196 240.022 29.604C239.446 29.988 239.158 30.552 239.158 31.296V53.004ZM250.837 53.076C250.837 54.324 250.897 55.332 251.017 56.1C251.161 56.868 251.341 57.456 251.557 57.864C251.773 58.296 252.013 58.584 252.277 58.728C252.565 58.872 252.853 58.944 253.141 58.944C253.477 58.944 253.753 58.908 253.969 58.836C254.209 58.764 254.425 58.668 254.617 58.548L254.977 58.872C254.713 59.496 254.353 59.952 253.897 60.24C253.465 60.552 252.973 60.708 252.421 60.708C251.725 60.708 251.137 60.564 250.657 60.276C250.201 59.988 249.973 59.604 249.973 59.124C248.989 59.124 248.341 58.704 248.029 57.864C247.741 57.024 247.597 55.788 247.597 54.156V42.204H245.221V40.512H245.437C246.085 40.512 246.637 40.368 247.093 40.08C247.573 39.768 247.981 39.372 248.317 38.892C248.677 38.412 248.977 37.872 249.217 37.272C249.481 36.648 249.721 36.024 249.937 35.4H250.837V40.512C251.701 40.488 252.409 40.428 252.961 40.332C253.537 40.212 253.957 40.02 254.221 39.756C254.773 39.852 255.133 40.056 255.301 40.368C255.469 40.656 255.553 40.908 255.553 41.124C255.553 41.412 255.457 41.664 255.265 41.88C255.097 42.072 254.857 42.228 254.545 42.348C254.257 42.468 253.921 42.552 253.537 42.6C253.153 42.648 252.769 42.672 252.385 42.672C251.857 42.672 251.341 42.636 250.837 42.564V53.076Z" fill="#E65400"/>
</svg>
