<?xml version="1.0" encoding="UTF-8" standalone="no"?>
<svg
   width="22.896"
   height="30.198053"
   viewBox="0 0 22.896 30.198053"
   fill="none"
   version="1.1"
   id="svg2"
   sodipodi:docname="Logo.svg"
   inkscape:version="1.3 (0e150ed6c4, 2023-07-21)"
   xmlns:inkscape="http://www.inkscape.org/namespaces/inkscape"
   xmlns:sodipodi="http://sodipodi.sourceforge.net/DTD/sodipodi-0.dtd"
   xmlns:xlink="http://www.w3.org/1999/xlink"
   xmlns="http://www.w3.org/2000/svg"
   xmlns:svg="http://www.w3.org/2000/svg">
  <defs
     id="defs2">
    <linearGradient
       id="swatch2"
       inkscape:swatch="solid">
      <stop
         style="stop-color:#566144;stop-opacity:1;"
         offset="0"
         id="stop2" />
    </linearGradient>
    <linearGradient
       inkscape:collect="always"
       xlink:href="#swatch2"
       id="linearGradient2"
       x1="51.612999"
       y1="28.862"
       x2="74.509003"
       y2="28.862"
       gradientUnits="userSpaceOnUse" />
  </defs>
  <sodipodi:namedview
     id="namedview2"
     pagecolor="#ffffff"
     bordercolor="#000000"
     borderopacity="0.25"
     inkscape:showpageshadow="2"
     inkscape:pageopacity="0.0"
     inkscape:pagecheckerboard="0"
     inkscape:deskcolor="#d1d1d1"
     inkscape:zoom="10.172501"
     inkscape:cx="8.7982301"
     inkscape:cy="24.821822"
     inkscape:window-width="1920"
     inkscape:window-height="1011"
     inkscape:window-x="0"
     inkscape:window-y="0"
     inkscape:window-maximized="1"
     inkscape:current-layer="svg2" />
  <g
     id="g2"
     transform="translate(-51.613,-13.724)">
    <path
       d="m 59.821,16.568 c -0.672,0 -1.32,0.108 -1.944,0.324 -0.624,0.216 -1.176,0.564 -1.656,1.044 -0.48,0.456 -0.864,1.08 -1.152,1.872 -0.288,0.768 -0.432,1.704 -0.432,2.808 0,0.6 0.036,1.14 0.108,1.62 0.072,0.456 0.132,0.948 0.18,1.476 -1.104,0 -1.932,-0.252 -2.484,-0.756 -0.552,-0.504 -0.828,-1.14 -0.828,-1.908 0,-0.552 0.12,-0.984 0.36,-1.296 0.264,-0.336 0.6,-0.6 1.008,-0.792 -0.264,-0.144 -0.444,-0.444 -0.54,-0.9 -0.096,-0.456 -0.144,-0.84 -0.144,-1.152 0,-0.672 0.168,-1.284 0.504,-1.836 0.336,-0.552 0.792,-1.02 1.368,-1.404 0.6,-0.384 1.296,-0.672 2.088,-0.864 0.792,-0.216 1.656,-0.324 2.592,-0.324 0.864,0 1.716,0.084 2.556,0.252 0.84,0.144 1.656,0.324 2.448,0.54 0.792,0.192 1.548,0.372 2.268,0.54 0.744,0.144 1.464,0.216 2.16,0.216 0.84,0 1.644,-0.156 2.412,-0.468 0.792,-0.336 1.596,-0.948 2.412,-1.836 0.288,0.072 0.588,0.288 0.9,0.648 0.336,0.36 0.504,0.816 0.504,1.368 0,0.48 -0.18,0.924 -0.54,1.332 -0.36,0.384 -0.996,0.576 -1.908,0.576 0,0.168 -0.036,0.372 -0.108,0.612 -0.072,0.216 -0.204,0.432 -0.396,0.648 -0.168,0.192 -0.408,0.36 -0.72,0.504 -0.288,0.144 -0.66,0.216 -1.116,0.216 -0.696,0 -1.44,-0.156 -2.232,-0.468 -0.768,-0.336 -1.572,-0.684 -2.412,-1.044 -0.816,-0.384 -1.668,-0.732 -2.556,-1.044 -0.888,-0.336 -1.788,-0.504 -2.7,-0.504 z"
       style="fill:url(#linearGradient2)"
       id="path1-3"
       sodipodi:nodetypes="ssccsccssccsssccscccscccscccccscccs" />
    <path
       d="m 66.546939,28.262053 c 1.032,0 1.956,-0.096 2.772,-0.288 0.84,-0.216 1.56,-0.504 2.16,-0.864 0.12,0.12 0.228,0.288 0.324,0.504 0.12,0.216 0.18,0.456 0.18,0.72 0,0.624 -0.348,1.152 -1.044,1.584 -0.696,0.408 -1.788,0.612 -3.276,0.612 -0.768,0 -1.524,-0.036 -2.268,-0.108 -0.744,-0.096 -1.488,-0.216 -2.232,-0.36 v 9.864 c 0,0.576 0.108,1.032 0.324,1.368 0.24,0.336 0.516,0.588 0.828,0.756 0.336,0.144 0.684,0.24 1.044,0.288 0.384,0.048 0.72,0.072 1.008,0.072 v 1.512 c -0.288,0 -0.648,-0.012 -1.08,-0.036 -0.432,-0.048 -0.876,-0.096 -1.332,-0.144 -0.456,-0.048 -0.9,-0.084 -1.332,-0.108 -0.432,-0.048 -0.792,-0.072 -1.08,-0.072 -0.288,0 -0.648,0.024 -1.08,0.072 -0.432,0.024 -0.876,0.06 -1.332,0.108 -0.456,0.048 -0.9,0.096 -1.332,0.144 -0.432,0.024 -0.792,0.036 -1.08,0.036 v -1.512 c 0.312,0 0.66,-0.024 1.044,-0.072 0.384,-0.048 0.732,-0.144 1.044,-0.288 0.312,-0.168 0.576,-0.42 0.792,-0.756 0.216,-0.336 0.324,-0.792 0.324,-1.368 v -13.536 c 0,-0.888 -0.024,-1.62 -0.072,-2.196 -0.024,-0.6 -0.12,-1.056 -0.288,-1.368 -0.168,-0.336 -0.408,-0.564 -0.72,-0.684 -0.312,-0.144 -0.744,-0.216 -1.296,-0.216 v -1.26 c 0.6,0 1.116,-0.036 1.548,-0.108 0.456,-0.072 0.864,-0.18 1.224,-0.324 0.36,-0.144 0.684,-0.312 0.972,-0.504 0.312,-0.192 0.636,-0.396 0.972,-0.612 h 0.9 v 9.036 c 0.552,0.048 1.116,0.084 1.692,0.108 z"
       style="fill:#e65400;fill-opacity:1"
       id="path1-7" />
  </g>
</svg>
