<?xml version="1.0" encoding="UTF-8" standalone="no"?>
<!-- Created with Inkscape (http://www.inkscape.org/) -->

<svg
   version="1.1"
   id="svg1"
   width="683.10474"
   height="465.4458"
   viewBox="0 0 683.10474 465.4458"
   sodipodi:docname="San_Francisco_and_Bay_counties_telephone_directory_(1917)_(14754322934).svg"
   inkscape:version="1.3 (0e150ed6c4, 2023-07-21)"
   xmlns:inkscape="http://www.inkscape.org/namespaces/inkscape"
   xmlns:sodipodi="http://sodipodi.sourceforge.net/DTD/sodipodi-0.dtd"
   xmlns="http://www.w3.org/2000/svg"
   xmlns:svg="http://www.w3.org/2000/svg">
  <defs
     id="defs1" />
  <sodipodi:namedview
     id="namedview1"
     pagecolor="#ffffff"
     bordercolor="#000000"
     borderopacity="0.25"
     inkscape:showpageshadow="2"
     inkscape:pageopacity="0.0"
     inkscape:pagecheckerboard="0"
     inkscape:deskcolor="#d1d1d1"
     inkscape:zoom="1.5738417"
     inkscape:rotation="-1"
     inkscape:cx="392.79002"
     inkscape:cy="214.97742"
     inkscape:window-width="1920"
     inkscape:window-height="1011"
     inkscape:window-x="0"
     inkscape:window-y="0"
     inkscape:window-maximized="1"
     inkscape:current-layer="g1" />
  <g
     inkscape:groupmode="layer"
     inkscape:label="Image"
     id="g1"
     transform="translate(-3.5619571,-19.706163)">
    <path
       style="fill:#58633a;fill-opacity:1"
       d="m 373.33334,483.88053 c -42.2865,-1.81956 -94.31677,-10.75062 -114.17523,-19.59833 -3.20362,-1.42733 -7.58747,-3.01446 -9.74189,-3.52694 -4.42172,-1.05182 -27.31024,-12.03838 -37.41621,-17.9599 -11.45403,-6.71141 -28.58168,-27.81386 -30.72894,-37.8602 -0.50178,-2.34767 -1.40749,-4.88713 -2.01268,-5.64324 -1.67389,-2.0913 -2.57952,-8.62525 -1.19549,-8.62525 0.6708,0 1.59071,1.4785 2.04425,3.28555 0.45355,1.80705 2.02538,3.66666 3.49296,4.13245 1.68949,0.53622 2.20262,1.31261 1.3988,2.11643 -1.71797,1.71797 -0.42113,7.84848 1.84414,8.71775 1.00299,0.38488 1.82362,1.53559 1.82362,2.55714 0,1.02154 0.6,1.85734 1.33334,1.85734 0.73333,0 1.33333,0.82489 1.33333,1.83308 0,2.37428 11.27802,14.16066 13.57543,14.18734 1.39598,0.0162 1.3796,0.26003 -0.0796,1.18426 -1.01062,0.64012 -1.42521,1.83093 -0.92132,2.64625 1.38837,2.24642 6.09214,1.78603 6.09214,-0.59628 0,-1.14328 0.6022,-1.70651 1.33822,-1.25162 0.73603,0.45489 0.98115,2.24977 0.54473,3.98863 -0.69853,2.78317 -0.1387,3.35775 4.67761,4.80075 3.0091,0.90155 6.13745,2.44207 6.95186,3.42339 0.81442,0.98131 2.23383,1.7842 3.15424,1.7842 0.92042,0 2.42042,0.9 3.33334,2 0.91292,1.1 2.81068,2 4.21725,2 1.40656,0 4.28484,1.27716 6.39616,2.83813 2.60399,1.92521 4.88528,2.57547 7.09221,2.02156 2.29069,-0.57492 3.96181,-0.0338 5.64723,1.82854 1.31658,1.45481 3.4322,2.64511 4.70139,2.64511 1.26918,0 3.98317,0.86929 6.03108,1.93176 2.04791,1.06247 4.19955,1.63753 4.78142,1.27792 0.58186,-0.35961 2.57025,0.33706 4.41864,1.54817 1.84838,1.21111 4.24611,1.86225 5.32829,1.44698 1.08218,-0.41527 2.30162,-0.21457 2.70987,0.44599 0.82898,1.34131 10.72792,0.91739 14.34313,-0.61424 1.41234,-0.59836 2.33333,-0.40597 2.33333,0.48743 0,0.81179 -0.93541,1.47599 -2.07869,1.47599 -1.14328,0 -1.70787,0.6 -1.25464,1.33333 0.45322,0.73333 2.36902,1.33333 4.25733,1.33333 3.86544,0 12.92098,2.26246 17.33036,4.32985 1.60656,0.75326 5.32035,0.9859 8.25286,0.51697 3.0885,-0.49387 5.67929,-0.29039 6.15766,0.48363 1.1674,1.8889 5.67087,1.66231 6.33115,-0.31854 0.40335,-1.21005 1.13805,-1.06831 2.73375,0.5274 2.41715,2.41715 17.08891,3.05005 21.24021,0.91625 1.83239,-0.94186 2.12852,-0.72839 1.44836,1.04409 -0.71185,1.85506 -0.20604,2.10397 3.02159,1.48697 2.13211,-0.40758 7.15213,-0.20794 11.15561,0.44364 4.93493,0.80319 7.56187,0.72706 8.15731,-0.23638 0.59655,-0.96524 2.35256,-1.014 5.47448,-0.152 5.15178,1.42248 23.79986,1.25607 26.21066,-0.23389 0.8591,-0.53095 1.562,-0.36858 1.562,0.36083 0,1.78633 21.02965,0.74308 23.31888,-1.15682 1.28102,-1.06315 1.89821,-1.0274 2.2848,0.13235 0.82811,2.48434 8.44065,-0.57683 8.20895,-3.30099 -0.10306,-1.21163 1.54694,-3.43791 3.66666,-4.94729 l 3.85405,-2.74432 v 3.04318 c 0,2.86731 0.13133,2.91184 2.27267,0.77049 2.14134,-2.14134 2.12208,-2.38683 -0.33333,-4.24817 -1.43331,-1.08652 -3.45804,-1.67207 -4.49941,-1.30121 -1.04137,0.37086 -2.37049,-0.096 -2.9536,-1.03754 -0.8391,-1.35484 -1.83454,-1.23228 -4.77327,0.58771 -2.04218,1.26475 -3.57026,2.89316 -3.39572,3.61868 0.17453,0.72553 -0.57547,0.97654 -1.66667,0.55781 -2.57255,-0.98718 -2.50169,-1.78907 0.34933,-3.9533 2.16068,-1.6402 2.11135,-1.77439 -0.66667,-1.81366 -1.65,-0.0233 -3,0.56903 -3,1.31633 0,0.78353 -1.41114,1.00457 -3.33333,0.52213 -3.79054,-0.95137 -4.24547,0.0641 -1.33334,2.97628 2.22136,2.22136 2.68861,5.80952 0.75652,5.80952 -0.68392,0 -1.64352,-1.26039 -2.13245,-2.80088 -0.64684,-2.03803 -1.28867,-2.40118 -2.35652,-1.33333 -1.98846,1.98846 -2.73207,1.86719 -6.01633,-0.98124 -2.41788,-2.09701 -5.04688,-2.42527 -18.30152,-2.2851 -8.51293,0.09 -15.76547,-0.30135 -16.11674,-0.86973 -0.35128,-0.56837 -2.04748,-0.11033 -3.76934,1.01788 -2.1359,1.39949 -3.28926,1.57548 -3.6298,0.55387 -0.66452,-1.99358 -22.43382,-3.05664 -22.43382,-1.0955 0,1.62543 -6.88356,0.26714 -8.02765,-1.58405 -0.39657,-0.64166 -5.55592,-1.39894 -11.46523,-1.68284 -5.90931,-0.28391 -11.40587,-0.92513 -12.21459,-1.42495 -0.80871,-0.49981 -5.25537,-1.1263 -9.88146,-1.39218 -4.62609,-0.26589 -9.31107,-0.81107 -10.41107,-1.2115 -1.1,-0.40043 -4.1,-1.00566 -6.66667,-1.34495 -2.56666,-0.33928 -6.46666,-1.07735 -8.66666,-1.64014 -2.2,-0.56279 -5.59669,-0.95456 -7.54818,-0.87061 -1.98801,0.0855 -3.87502,-0.69909 -4.29149,-1.78439 -0.89972,-2.34462 -4.39479,-2.56698 -5.14142,-0.3271 -0.35562,1.06684 -1.60236,0.61706 -3.69586,-1.33333 -1.73757,-1.61879 -4.09608,-2.95229 -5.24114,-2.96334 -2.53256,-0.0244 -11.67921,-3.13277 -12.94591,-4.39947 -0.50258,-0.50258 -2.16378,-0.93287 -3.69156,-0.95619 -1.52778,-0.0233 -3.94246,-0.92332 -5.36595,-2 -1.4235,-1.07668 -3.96841,-1.95759 -5.65537,-1.95759 -1.68696,0 -3.81661,-1.2 -4.73256,-2.66667 -1.0332,-1.65442 -3.10937,-2.66667 -5.46946,-2.66667 -2.68275,0 -4.00965,-0.78605 -4.50144,-2.66666 C 226.00077,429.19224 224.56765,428 223.18092,428 c -1.37944,0 -5.43112,-2.1 -9.00373,-4.66667 -3.57262,-2.56666 -7.10403,-4.66666 -7.84758,-4.66666 -0.74356,0 -1.66573,-1.2 -2.04927,-2.66667 -0.41722,-1.59547 -1.81869,-2.66667 -3.48884,-2.66667 -1.90261,0 -2.79149,-0.84914 -2.79149,-2.66666 0,-1.48148 -0.88889,-2.66667 -2,-2.66667 -1.1,0 -2.02439,-0.75 -2.05419,-1.66667 -0.0298,-0.91666 -1.82981,-3.744 -4,-6.28296 -2.1702,-2.53897 -3.94581,-5.65356 -3.94581,-6.92132 0,-1.26775 -0.6,-2.67583 -1.33334,-3.12905 -0.73333,-0.45322 -1.33333,-1.99678 -1.33333,-3.43011 0,-1.43334 -0.53,-3.64793 -1.17777,-4.92132 -4.25462,-8.36364 -4.30091,-8.81969 -1.67084,-16.45854 3.6957,-10.73389 2.6605,-11.67697 -9.40216,-8.56548 -12.63386,3.25883 -21.19099,7.09836 -31.08257,13.94654 -4.4,3.04623 -10.1,6.93935 -12.66666,8.65139 -2.56667,1.71203 -6.29524,4.63884 -8.28571,6.50401 -12.17182,11.40563 -44.292289,28.31811 -62.301482,32.80378 -21.440747,5.34038 -34.96655,2.95607 -46.365833,-8.17331 -6.932257,-6.76812 -8.4335908,-13.53434 -5.1622423,-23.2652 2.4523844,-7.2948 5.5775423,-10.68893 14.3528173,-15.58811 6.197055,-3.45978 32.660663,-14.14923 35.062763,-14.16291 3.798518,-0.0216 20.101235,-7.71397 24.710939,-11.6597 10.845455,-9.28331 5.793065,-15.56675 -20.011257,-24.88713 -15.972464,-5.76917 -23.857137,-11.82345 -29.034904,-22.29456 -6.238308,-12.61587 -8.053276,-23.26255 -9.648012,-56.59568 -2.316079,-48.41061 -2.177996,-90.26256 0.334624,-101.42238 4.195413,-18.63394 14.970947,-33.6602 30.870961,-43.048899 3.012532,-1.778851 5.777331,-3.625388 6.143998,-4.103414 2.758496,-3.596275 41.711664,-15.985549 50.281398,-15.992281 2.53428,-0.002 5.27662,-1.071617 6.72026,-2.621184 3.42358,-3.674776 11.71515,-7.023846 20.33168,-8.212217 13.94229,-1.922887 20.55577,-3.503931 21.06654,-5.036249 1.06366,-3.191 10.98252,-6.706614 24.38809,-8.644057 7.63329,-1.103201 29.16498,-4.174778 47.84821,-6.825726 19.83918,-2.814964 34.38968,-5.480751 34.97959,-6.408585 0.55554,-0.873773 1.01926,-2.576523 1.03049,-3.783888 0.0424,-4.556932 16.55719,-16.271161 22.69325,-16.096699 4.90043,0.139331 16.86412,6.268679 18.61262,9.535789 2.13329,3.986084 1.68618,5.36084 -2.28545,7.027152 -3.5918,1.50695 -3.60384,1.549215 -0.58958,2.069835 1.6924,0.29231 4.4098,-0.341754 6.03867,-1.409031 11.28401,-7.393569 97.6579,-6.781598 159.88424,1.132802 6.97163,0.886702 7.66727,0.746657 7.67329,-1.544768 0.004,-1.385928 1.4006,-4.261961 3.10434,-6.391183 2.59746,-3.246134 4.30897,-3.971759 10.59824,-4.493315 4.12529,-0.342101 9.66142,-0.216618 12.3025,0.278851 6.15509,1.154703 14.71333,9.758505 15.87703,15.961559 0.46668,2.487612 1.58263,5.120705 2.47989,5.851318 1.60267,1.305005 15.81984,3.92623 27.63138,5.094406 5.74305,0.567994 26.37903,3.153161 45.8089,5.738695 6.88514,0.916207 10.75524,2.313949 15.67571,5.661511 3.59341,2.444725 6.8613,5.468019 7.26196,6.718431 1.4556,4.542753 13.94976,13.889517 28.1066,21.026297 24.09768,12.14817 31.08091,21.02234 33.07693,42.03356 0.48765,5.13333 1.42832,11.76243 2.09038,14.73132 0.66205,2.96889 0.88606,6.61275 0.4978,8.09745 -0.38826,1.48471 0.6863,6.85562 2.3879,11.93535 2.71243,8.09732 3.09383,11.81534 3.09383,30.16028 v 20.9244 l -4.66667,4.87469 c -13.17529,13.76258 -31.79624,20.3661 -60.76886,21.55037 -31.62762,1.29278 -54.57738,-3.90877 -77.89781,-17.65549 -22.72603,-13.39634 -26.15438,-18.92708 -24.96745,-40.27834 0.80568,-14.49316 5.20706,-29.8464 10.04482,-35.03913 1.60426,-1.72197 4.14159,-6.40428 5.6385,-10.40513 1.49691,-4.00086 3.89821,-8.77004 5.33623,-10.59817 3.25152,-4.13365 3.39394,-11.19573 0.28123,-13.94579 -2.69442,-2.38051 -12.35272,-4.19595 -14.36047,-2.6993 -2.62017,1.95319 -4.53532,8.31571 -6.00468,19.94883 -2.05401,16.2618 -4.68327,23.89572 -9.06689,26.32518 -11.11181,6.15831 -12.6697,6.49915 -30.90129,6.76054 -15.08968,0.21635 -19.18569,0.73548 -25.33334,3.21076 -17.86507,7.19317 -21.94805,11.78752 -17.82336,20.05566 2.0266,4.06241 1.99338,4.49486 -0.61657,8.02501 -2.19907,2.9744 -2.53919,4.63958 -1.67686,8.20969 0.59496,2.46317 1.8546,7.77849 2.79921,11.81182 2.39245,10.21547 6.18932,18.66052 10.40331,23.13921 4.30558,4.57603 18.26537,15.52339 19.813,15.53749 2.19521,0.02 21.76794,22.12649 21.76794,24.58588 0,2.65373 9.46078,9.53885 19.33333,14.0699 21.36006,9.8033 47.85858,23.13173 53.57357,26.94683 3.06547,2.04638 6.09822,3.72069 6.73945,3.72069 1.32561,0 9.03507,7.14829 13.00282,12.05635 9.95755,12.31735 12.22751,17.4368 15.88937,35.83539 2.98799,15.01278 3.06871,16.61156 1.34118,26.56638 -2.37767,13.70129 -3.03571,15.28228 -10.47854,25.17569 -6.08587,8.08964 -21.88849,21.21909 -32.27857,26.81833 -28.34467,15.275 -56.67527,23.60683 -91.36909,26.87099 -15.01564,1.41274 -61.61702,4.13771 -64.98875,3.80015 -1.15396,-0.11552 -12.89811,-0.67476 -26.09811,-1.24275 z m 86.19776,-7.98637 c 2.58107,-1.38134 2.59153,-1.51052 0.26039,-3.21509 -2.86283,-2.09335 -3.88604,-1.67747 -4.83904,1.96682 -0.78658,3.00788 0.58971,3.38309 4.57865,1.24827 z m 11.80225,-4.10818 c 0,-0.61562 -0.9,-1.11931 -2,-1.11931 -1.1,0 -2,-0.6 -2,-1.33334 0,-0.73333 -0.60953,-1.33333 -1.35452,-1.33333 -0.74498,0 -1.22258,1.73137 -1.06134,3.84749 0.26672,3.5004 0.56934,3.72166 3.35451,2.45265 1.68374,-0.76717 3.06135,-1.89854 3.06135,-2.51416 z m 10.66666,0.29271 c 0,-0.69005 -0.62913,-1.64347 -1.39807,-2.1187 -0.95706,-0.59149 -0.9094,-1.45289 0.15107,-2.73068 1.64504,-1.98215 4.48363,-1.23021 3.1995,0.84755 -0.41671,0.67426 0.18114,0.86568 1.32857,0.42537 1.14742,-0.44031 3.00402,-0.0389 4.12576,0.89209 1.45658,1.20886 2.44987,1.28232 3.47517,0.25702 1.0253,-1.0253 -0.14612,-2.19986 -4.09836,-4.10938 -4.81877,-2.32817 -5.9752,-2.44483 -8.94775,-0.90265 -3.47297,1.80179 -7.89841,1.205 -13.56912,-1.82987 -1.79891,-0.96275 -3.05809,-1.01976 -3.58794,-0.16245 -0.44898,0.72647 2.0646,2.66612 5.58575,4.31034 8.20528,3.83148 7.99363,3.6422 5.69681,5.09475 -1.41433,0.89445 -0.56682,1.24611 3.03861,1.26084 2.75,0.0112 5,-0.54418 5,-1.23423 z m 18.65627,-3.88801 c -0.006,-0.47154 -1.50572,-1.5509 -3.33333,-2.39857 -3.6918,-1.7123 -3.9376,-1.43198 -1.96926,2.24589 1.21691,2.27383 5.32976,2.39225 5.30259,0.15268 z M 431.33335,466 c 0,-1.1 -0.9,-2 -2,-2 -1.1,0 -2,0.9 -2,2 0,1.1 0.9,2 2,2 1.1,0 2,-0.9 2,-2 z m 76.72149,-0.57796 C 507.57146,464.63992 506.05905,464 504.69393,464 c -1.67369,0 -2.76816,-1.3027 -3.36058,-4 -0.88004,-4.00678 -2.0047,-4.87101 -3.90403,-3 -0.55832,0.55 -3.1937,1 -5.85639,1 -3.40193,0 -4.96948,0.64383 -5.27254,2.16556 -0.47703,2.39525 4.0358,4.8259 4.7853,2.57741 0.5509,-1.65269 5.15444,-1.90911 5.80321,-0.32324 0.49613,1.21272 10.84498,5.56361 11.57796,4.86763 0.25677,-0.2438 0.0714,-1.0832 -0.41202,-1.86532 z m -26.32149,-4.35537 c 2.51678,-2.51679 1.87014,-3.97174 -1.06667,-2.4 -1.46667,0.78493 -2.66667,2.00604 -2.66667,2.71358 0,1.76584 1.80557,1.61419 3.73334,-0.31358 z m 39.01677,-0.47551 c 1.26138,-1.14153 3.89156,-2.2459 5.84486,-2.45416 4.32476,-0.46109 6.78606,-2.90872 7.95961,-7.91539 1.10677,-4.72177 -1.44178,-3.56861 -3.38004,1.5294 -0.7302,1.92058 -1.74319,2.9123 -2.25109,2.20381 -1.58679,-2.21349 -4.88962,-1.40978 -5.66501,1.37851 -0.60203,2.16489 -1.66832,2.58433 -5.66667,2.22907 -5.20889,-0.46283 -5.3917,-0.32979 -4.11578,2.99522 1.03122,2.68731 4.32495,2.7025 7.27412,0.0335 z m -12.08344,-3.25783 C 508.66668,456.6 508.10209,456 507.41204,456 c -0.69006,0 -1.62547,0.6 -2.07869,1.33333 -0.45323,0.73334 0.11136,1.33334 1.25464,1.33334 1.14328,0 2.07869,-0.6 2.07869,-1.33334 z m 13.33334,-2.7619 c 0,-0.78572 -0.93858,-2.36714 -2.08572,-3.51429 -1.62321,-1.62321 -2.43629,-1.73002 -3.66667,-0.48166 -1.22193,1.23978 -0.99319,2.03784 1.00722,3.51428 3.07823,2.27193 4.74517,2.44114 4.74517,0.48167 z m -157.33334,-5.14825 c 0,-1.81473 -3.04736,-2.53403 -20.04996,-4.73259 -20.08294,-2.59688 -37.31207,-5.58716 -47.67083,-8.27371 -5.54763,-1.43879 -8.83537,-1.72739 -9.71038,-0.85238 -3.09092,3.09092 0.61952,5.49768 13.83601,8.9747 11.58662,3.04822 16.79361,3.63117 35.24446,3.9458 11.90712,0.20305 22.05712,0.77698 22.55556,1.27542 1.35266,1.35266 5.79514,1.09414 5.79514,-0.33724 z m 67.12677,-3.48068 c -0.43425,-1.13163 -1.0755,-1.77155 -1.425,-1.42205 -0.34951,0.34951 -0.23997,1.27539 0.2434,2.05751 1.31474,2.12728 2.08318,1.71401 1.1816,-0.63546 z M 545.292,445.40023 c 1.10854,-1.79365 -4.3874,-4.44533 -7.06284,-3.40767 -2.01614,0.78195 -1.98183,1.04657 0.35903,2.76933 2.9931,2.20279 5.58444,2.44953 6.70381,0.63834 z m 5.37468,-0.0669 C 550.21346,444.6 549.27805,444 548.58799,444 c -0.69005,0 -1.25464,0.6 -1.25464,1.33333 0,0.73334 0.93541,1.33334 2.07869,1.33334 1.14328,0 1.70787,-0.6 1.25464,-1.33334 z m 8.66667,0 c 0,-0.73333 -0.6,-1.33333 -1.33333,-1.33333 -0.73334,0 -1.33334,0.6 -1.33334,1.33333 0,0.73334 0.6,1.33334 1.33334,1.33334 0.73333,0 1.33333,-0.6 1.33333,-1.33334 z m -9.33333,-4 c 0,-0.73333 -0.6,-1.33333 -1.33334,-1.33333 -0.73333,0 -1.33333,0.6 -1.33333,1.33333 0,0.73334 0.6,1.33334 1.33333,1.33334 0.73334,0 1.33334,-0.6 1.33334,-1.33334 z m -120.00001,-2.66666 c 0,-0.73334 -0.6,-1.33334 -1.33333,-1.33334 -0.73333,0 -1.33333,0.6 -1.33333,1.33334 0,0.73333 0.6,1.33333 1.33333,1.33333 0.73333,0 1.33333,-0.6 1.33333,-1.33333 z m 128.00001,0 c 0,-0.73334 -0.26459,-1.33334 -0.58798,-1.33334 -0.32339,0 -0.9588,0.6 -1.41202,1.33334 C 555.54679,439.4 555.81138,440 556.58799,440 c 0.77662,0 1.41203,-0.6 1.41203,-1.33333 z m 12,-1.92131 c 0,-0.32339 -0.6,-0.9588 -1.33334,-1.41203 -0.73333,-0.45322 -1.33333,-0.18863 -1.33333,0.58798 0,0.77661 0.6,1.41202 1.33333,1.41202 0.73334,0 1.33334,-0.26459 1.33334,-0.58797 z m -328.00001,-3.81287 c 0,-0.9538 -0.75,-3.3837 -1.66667,-5.39976 -1.24456,-2.73723 -2.4159,-3.52876 -4.62499,-3.12535 -2.25784,0.41231 -2.70465,0.0869 -1.88699,-1.37413 1.74095,-3.11091 -3.10102,-11.06195 -13.16192,-21.61331 -5.12936,-5.3794 -9.3261,-10.59955 -9.3261,-11.60034 0,-1.685 -1.71617,-2.42565 -4.47368,-1.93071 -2.21254,0.39712 -4.91077,-2.96068 -4.19396,-5.21915 0.59583,-1.8773 -0.0558,-2.23445 -3.63656,-1.99323 -5.37288,0.36194 -10.36247,1.9585 -10.36247,3.31574 0,0.55801 0.9,1.7615 2,2.67442 1.1,0.91292 2,2.52179 2,3.57528 0,1.17748 0.64211,1.52966 1.66667,0.91413 1.33113,-0.79972 1.3308,-0.58633 -0.002,1.0599 -1.39574,1.72445 -0.99743,2.61699 2.43794,5.46301 4.55142,3.77058 4.94967,4.8464 2.38161,6.43355 -1.35375,0.83666 -1.23025,1.27417 0.55279,1.95839 1.26278,0.48457 2.29597,1.73568 2.29597,2.78023 0,1.04456 0.89655,2.24324 1.99234,2.66373 1.09579,0.4205 1.62065,1.36595 1.16636,2.101 -0.50113,0.81084 0.2005,1.01067 1.78395,0.50811 1.70633,-0.54157 3.45136,0.10141 5.04029,1.85715 1.3367,1.47703 3.17317,2.68552 4.08105,2.68552 0.90789,0 1.94966,0.75 2.31505,1.66666 0.36539,0.91667 3.57958,3.16667 7.14265,5 3.56307,1.83334 8.17434,4.68334 10.24727,6.33334 4.26883,3.39787 6.23104,3.79649 6.23104,1.26582 z m 176.66667,0.40084 C 419.1199,432.6 418.55531,432 417.41203,432 c -1.14327,0 -2.07868,0.6 -2.07868,1.33333 0,0.73334 0.56459,1.33334 1.25464,1.33334 0.69005,0 1.62546,-0.6 2.07869,-1.33334 z m 145.71811,-1.12947 c 0.47234,-1.43691 0.0207,-1.49124 -2.25806,-0.27167 -1.56667,0.83845 -3.43609,1.1613 -4.15427,0.71745 -0.71818,-0.44386 -1.30578,-0.13176 -1.30578,0.69357 0,2.09929 6.99284,1.06701 7.71811,-1.13935 z m -162.38478,-1.61588 c 0,-0.69006 -2.85,-1.29041 -6.33333,-1.33413 -3.48334,-0.0437 -9.33334,-0.62366 -13,-1.28877 -3.66667,-0.66512 -9.36667,-1.62162 -12.66667,-2.12556 -3.3,-0.50394 -6.3,-1.27399 -6.66667,-1.71122 -0.98144,-1.17033 -21.44784,-9.58959 -25.33333,-10.42139 -1.83333,-0.39247 -4.53333,-1.7669 -6,-3.05428 -3.97884,-3.49248 -11.7257,-7.24985 -14,-6.79026 -2.14147,0.43275 -3.94632,2.62015 -3.97958,4.8231 -0.0112,0.74367 2.37958,2.39189 5.31291,3.6627 2.93334,1.27081 5.33334,2.84731 5.33334,3.50332 0,0.65602 1.64664,1.60604 3.6592,2.11116 2.01257,0.50512 4.47969,1.59934 5.48249,2.43159 1.00281,0.83226 3.85617,1.33805 6.3408,1.12399 2.48463,-0.21407 4.51751,0.18866 4.51751,0.89495 0,1.21078 5.10079,2.66868 11.55602,3.30293 1.58915,0.15614 3.33915,0.73389 3.88889,1.28389 0.54974,0.55 2.70767,1 4.7954,1 2.08773,0 4.83773,0.59829 6.11111,1.32953 2.3095,1.32623 28.08453,3.89745 29.98191,2.99089 0.55,-0.26279 1,-1.04239 1,-1.73244 z m -108,-3.92131 c 0,-0.73334 -0.6,-1.33334 -1.33333,-1.33334 -0.73334,0 -1.33334,0.6 -1.33334,1.33334 0,0.73333 0.6,1.33333 1.33334,1.33333 0.73333,0 1.33333,-0.6 1.33333,-1.33333 z m 284.00001,-1.33334 c 0,-0.73333 -0.6,-1.33333 -1.33334,-1.33333 -0.73333,0 -1.33333,0.6 -1.33333,1.33333 0,0.73334 0.6,1.33334 1.33333,1.33334 0.73334,0 1.33334,-0.6 1.33334,-1.33334 z m 5.8155,-2 c -0.42211,-1.1 -1.30328,-2 -1.95815,-2 -0.65488,0 -1.19069,0.9 -1.19069,2 0,1.1 0.88117,2 1.95816,2 1.19279,0 1.65818,-0.78172 1.19068,-2 z m -160.48217,-2.76662 c 21.20777,-4.81409 40.7992,-13.34658 47.405,-20.6459 3.8799,-4.28724 1.17788,-4.44476 -4.97797,-0.29021 -10.07806,6.80164 -24.10878,12.55289 -42.19644,17.2965 -10.74278,2.81737 -36.88621,3.08954 -48.89726,0.50906 -23.97587,-5.15102 -48.32964,-17.91699 -62.49436,-32.75883 -7.6322,-7.99704 -15.16487,-19.50144 -19.62126,-29.9669 -4.49792,-10.563 -7.41926,-14.15331 -5.73132,-7.04376 3.20899,13.51615 14.42,32.71544 24.84041,42.54017 12.35822,11.65176 30.34244,22.59204 42.36219,25.77004 3.28772,0.86927 8.67767,2.44034 11.97767,3.49128 13.953,4.44355 40.36772,4.94968 57.33334,1.09855 z m 148.28884,-7.11569 c 5.34114,-2.8686 9.90515,-6.1686 10.14226,-7.33333 0.44058,-2.16425 2.90223,-3.01803 2.90223,-1.00658 0,0.61111 0.9038,1.11111 2.00845,1.11111 1.99859,0 3.05704,-2.84747 5.98541,-16.10212 1.00138,-4.53254 1.01971,-6.9732 0.0596,-7.93333 -0.76272,-0.76272 -1.38677,-2.26953 -1.38677,-3.34845 0,-2.07223 -3.74503,-6.83832 -5.37332,-6.83832 -0.52801,0 -1.31782,1.78902 -1.75513,3.97559 -0.43732,2.18657 -2.31232,5.29478 -4.16667,6.90711 -1.85435,1.61234 -3.37155,3.68212 -3.37155,4.59952 0,0.91739 -3.53506,4.74269 -7.8557,8.50067 -5.92401,5.15255 -7.68537,7.48406 -7.16298,9.48168 0.4677,1.78847 0.096,2.52227 -1.14429,2.25888 -1.11383,-0.23654 -1.83703,0.74349 -1.83703,2.48941 0,1.58373 -0.44479,3.32853 -0.98843,3.87732 -1.07797,1.08818 1.29041,4.57649 3.1072,4.57649 0.61907,0 5.49561,-2.34704 10.83674,-5.21565 z m 15.71116,3.88231 C 587.33335,416.6 586.69794,416 585.92133,416 c -0.77661,0 -1.0412,0.6 -0.58798,1.33333 0.45323,0.73334 1.08864,1.33334 1.41202,1.33334 0.32339,0 0.58798,-0.6 0.58798,-1.33334 z M 289.36933,414.7249 c -0.43343,-0.70131 -1.66884,-0.93711 -2.74535,-0.52402 -2.75616,1.05764 -2.43137,1.79912 0.78805,1.79912 1.50995,0 2.39073,-0.5738 1.9573,-1.2751 z m -11.16599,-2.24225 c 1.83933,-1.66457 2.84717,-1.82395 4.23743,-0.67013 1.46134,1.2128 2.26148,0.40048 4.02321,-4.08446 1.46408,-3.72717 1.75404,-6.04338 0.86756,-6.92986 -0.88649,-0.88649 -1.33153,-0.79676 -1.33153,0.26847 0,0.88 -0.6,1.6 -1.33334,1.6 -2.4448,0 -1.37255,-2.90607 1.33334,-3.61367 2.36263,-0.61784 3.36606,-2.82162 2.79561,-6.13985 -0.10276,-0.59777 0.93957,-2.69777 2.3163,-4.66667 4.07232,-5.82393 4.77744,-14.26907 1.55528,-18.62728 -4.05454,-5.48405 -9.11102,-21.11716 -10.11933,-31.28587 -0.49083,-4.95 -1.2649,-8.97704 -1.72014,-8.94898 -0.45525,0.0281 -3.52772,5.78416 -6.82772,12.79132 -6.53676,13.88006 -14.70745,24.491 -18.85867,24.491 -1.44763,0 -2.31024,0.52068 -1.91693,1.15708 0.39332,0.6364 -1.07127,2.52614 -3.25464,4.19942 -2.18337,1.67329 -3.96976,3.71926 -3.96976,4.5466 0,2.32528 -5.75876,6.82061 -6.37382,4.97545 C 239.3429,380.69535 238.55603,380 237.8776,380 c -1.29002,0 1.28475,5.38895 3.26493,6.83344 0.62839,0.45839 0.71093,2.79847 0.18343,5.20018 -0.78155,3.55835 -0.59149,4.22567 1.02668,3.60472 1.19621,-0.45903 4.30413,1.37449 7.81657,4.61141 3.20694,2.95538 7.6308,6.21716 9.8308,7.24839 2.2,1.03123 4.9,2.3714 6,2.97815 1.1,0.60675 3.2,1.76252 4.66666,2.56837 3.69079,2.02788 4.76324,1.94791 7.53667,-0.56201 z m 1.13,-9.89467 c 0,-0.77662 0.6,-1.0412 1.33333,-0.58798 0.73334,0.45322 1.33334,1.08864 1.33334,1.41202 0,0.32339 -0.6,0.58798 -1.33334,0.58798 -0.73333,0 -1.33333,-0.63541 -1.33333,-1.41202 z M 28.666667,412.0868 c 0,-2.64959 -2.667234,-8.0868 -3.966999,-8.0868 -1.962578,0 -1.690801,7.64685 0.300333,8.45029 2.65839,1.07269 3.666666,0.97273 3.666666,-0.36349 z m 8.000001,0.49221 c 0,-2.14049 -3.007082,-5.91234 -4.713579,-5.91234 -2.360564,0 -2.559866,2.85989 -0.353088,5.06666 1.63436,1.63436 5.066667,2.20725 5.066667,0.84568 z m 10.666667,-1.24568 c 0,-2.36291 0.146373,-2.38528 4.579867,-0.69966 2.638444,1.00313 3.420133,0.88336 3.420133,-0.52402 0,-1.00339 -0.949073,-2.18854 -2.10905,-2.63366 -3.081981,-1.18267 -7.224284,-0.98823 -7.224284,0.33911 0,0.63164 -1.5,0.8617 -3.333333,0.51123 -4.201393,-0.80314 -4.456343,1.97487 -0.333333,3.63212 4.277902,1.71951 5,1.62923 5,-0.62512 z m 344.000005,-0.98934 c 18.53808,0.56106 40.90685,-3.7997 56.9492,-11.10217 11.85589,-5.39679 18.49357,-9.92799 29.9219,-20.42612 4.8791,-4.48197 9.5291,-8.14903 10.33333,-8.14903 2.13203,0 1.78904,-4.7356 -0.47935,-6.6182 -2.17825,-1.80778 -2.54585,-1.64068 -12.601,5.72821 -10.00258,7.33036 -28.09879,16.34601 -40.79074,20.32221 -5.86667,1.83794 -11.41667,4.33225 -12.33333,5.54292 -1.54526,2.04085 -1.78828,2.03489 -3.33606,-0.0818 -1.43115,-1.95722 -2.63876,-2.09919 -8.46202,-0.99483 -3.73595,0.7085 -12.28472,0.93238 -18.99728,0.49749 -6.99884,-0.45344 -12.20465,-0.2746 -12.20465,0.41926 0,1.97446 -5.06255,4.5383 -7.28062,3.68715 -1.12899,-0.43323 -2.05271,-2.2235 -2.05271,-3.97838 0,-2.16882 -0.75913,-3.19068 -2.37032,-3.19068 -3.84334,0 -22.88197,-6.58737 -31.2561,-10.81462 -18.33298,-9.25446 -32.87493,-21.81965 -40.33496,-34.85205 -3.20023,-5.59067 -6.03862,-8.12645 -6.03862,-5.39482 0,3.50405 12.97706,26.37981 18.38351,32.40617 7.20127,8.02698 24.72505,20.40536 36.28316,25.62955 7.59095,3.43106 26.14132,9.02577 29.92676,9.02577 1.18631,0 2.51553,0.93448 2.95381,2.07663 0.5294,1.37961 1.5223,1.72897 2.95815,1.04084 1.1887,-0.56968 6.06128,-0.91775 10.82794,-0.77348 z M 20.007375,409.3214 c 1.019123,-1.64897 -0.441456,-6.65473 -1.941716,-6.65473 -1.360879,0 -2.487173,4.10534 -1.737539,6.33333 0.675953,2.009 2.535846,2.17148 3.679255,0.3214 z m 491.090405,-1.76522 c 0.62392,-3.2171 -1.98511,-2.73897 -2.83734,0.51996 -0.45627,1.74477 -0.14898,2.55361 0.84449,2.22284 0.85896,-0.28597 1.75575,-1.52024 1.99285,-2.7428 z m -446.764445,0.15315 c -0.191456,-0.93278 1.652944,-1.92959 4.333334,-2.34195 4.957232,-0.76265 3.875532,-2.68343 -1.547561,-2.74801 -9.906332,-0.11798 -14.9448,3.51608 -7.686921,5.54428 4.840098,1.35256 5.263953,1.31327 4.901148,-0.45432 z m -50.724602,-3.21171 c -0.459642,-0.45964 0.01643,-2.48357 1.057934,-4.49762 1.938338,-3.74833 1.50753,-5.33333 -1.449615,-5.33333 -1.881876,0 -3.8708641,7.19675 -2.570491,9.3008 0.464283,0.75122 1.508741,1.36586 2.321018,1.36586 0.812276,0 1.100795,-0.37607 0.641154,-0.83571 z m 45.840851,-4.28636 c 14.164267,-4.27594 25.976507,-9.90096 34.656446,-16.50352 13.61095,-10.35341 24.27969,-17.57992 30.57768,-20.71188 2.57605,-1.28106 6.62195,-3.71713 8.99091,-5.41351 4.37361,-3.13187 7.76076,-2.84209 6.45813,0.55252 -0.49408,1.28754 0.30357,1.86513 2.57577,1.86513 1.81032,0 3.29148,-0.6 3.29148,-1.33333 0,-0.73334 -0.9,-1.33334 -2,-1.33334 -1.1,0 -2,-1.13256 -2,-2.51679 0,-1.90558 2.50954,-3.49016 10.33334,-6.52474 15.78847,-6.12379 28.46872,-9.62513 34.85779,-9.62513 4.86238,0 6.44769,-0.7194 9.96238,-4.52085 C 204.80682,325.86811 219.27276,316 223.75398,316 c 1.03752,0 3.31732,-1.12063 5.06622,-2.49028 1.74889,-1.36965 12.77981,-6.78128 24.51314,-12.02583 11.73333,-5.24455 22.83333,-10.44132 24.66667,-11.54839 1.83333,-1.10707 7.25708,-4.03941 12.05277,-6.51632 5.97675,-3.0869 12.17353,-8.04222 19.70058,-15.75376 12.37758,-12.68096 14.96461,-16.43825 26.85205,-38.99875 7.69024,-14.59487 8.48705,-16.87821 9.07317,-26 0.4038,-6.28448 1.40174,-10.86582 2.68586,-12.33028 1.84143,-2.10002 1.80347,-2.86218 -0.3842,-7.71357 -2.63947,-5.85329 -9.91962,-13.10166 -16.90058,-16.82679 -3.41445,-1.822 -8.18418,-2.43111 -21.07965,-2.69196 -25.42737,-0.51435 -29.60788,-1.2551 -36.41438,-6.45224 -3.58026,-2.73374 -6.74518,-6.60734 -8.03756,-9.8373 -2.39917,-5.99614 -4.85614,-19.64908 -4.87132,-27.06917 -0.006,-2.70672 -0.65632,-5.32072 -1.44618,-5.80887 -1.22739,-0.75857 -25.53314,-4.43719 -30.13533,-4.56091 -2.6756,-0.0719 -5.7619,3.98016 -5.7619,7.56497 0,5.26139 2.89967,13.72612 4.70202,13.72612 0.88728,0 2.6604,3.75 3.94025,8.33333 3.03464,10.86749 4.93826,14.41261 11.36914,21.17288 2.92706,3.07697 5.32192,6.3508 5.32192,7.27518 0,0.92437 1.40412,3.37671 3.12027,5.44964 4.85502,5.86439 6.29687,11.79996 7.15734,29.4642 1.19261,24.48255 0.0917,26.75176 -17.66421,36.41016 -8.56447,4.65868 -17.36848,10.29738 -27.94673,17.89903 -18.37398,13.20374 -38.62406,25.71335 -50,30.88779 -11.26461,5.12381 -13.75559,5.76226 -22.50437,5.768 -8.5191,0.006 -10.78523,-0.53567 -16.90702,-4.03821 -8.12158,-4.64669 -17.03306,-13.98545 -26.588614,-27.86346 -3.666667,-5.32528 -10.293109,-13.37448 -14.725426,-17.8871 -6.929027,-7.05457 -8.390915,-9.43887 -10.428132,-17.008 -1.478425,-5.49297 -2.459067,-14.32731 -2.607907,-23.49391 -0.236347,-14.55588 -0.199425,-14.74537 4.023097,-20.64824 5.999358,-8.3868 11.897724,-24.12669 13.006198,-34.70726 0.517779,-4.94229 1.494335,-9.3277 2.170126,-9.74536 0.675791,-0.41766 1.228711,-6.15377 1.228711,-12.74691 0,-13.52807 1.586658,-17.99646 8.801522,-24.78712 8.654735,-8.14587 5.945155,-8.701355 -13.683561,-2.805233 -20.277029,6.090863 -37.444783,19.157123 -45.053741,34.290083 -8.051966,16.01403 -9.376247,29.27518 -7.46771,74.78051 0.784296,18.7 1.665249,36.4 1.957673,39.33333 0.292424,2.93333 0.94122,10.43333 1.44177,16.66667 1.082032,13.47451 2.722305,21.63415 5.544515,27.58151 2.658536,5.60245 12.765656,12.84804 24.168631,17.326 25.259187,9.91932 32.21947,15.60856 33.338074,27.25009 0.836374,8.70431 -2.975244,16.4898 -11.891777,24.28976 -7.412414,6.4842 -11.466442,8.31845 -35.822064,16.20769 -29.203357,9.45951 -35.202367,14.55245 -27.970665,23.74607 4.707108,5.98412 18.594343,6.42416 36.086914,1.14347 z m 24.263637,-1.07161 c -0.15773,-0.83985 1.79227,-1.91704 4.333333,-2.39375 2.789209,-0.52325 4.620115,-1.64544 4.620115,-2.83172 0,-2.73481 -6.745464,-1.08844 -9.162629,2.23632 -1.169338,1.60841 -3.454226,2.51617 -6.333334,2.51617 -2.47722,0 -4.504037,0.6345 -4.504037,1.40999 0,0.83425 2.313904,1.24258 5.666667,1 3.353418,-0.24262 5.549596,-1.03335 5.379885,-1.93701 z m 292.717889,-3.58347 c 0.25516,-1.31569 -0.42501,-2.22285 -1.66667,-2.22285 -1.23684,0 -2.09776,1.14 -2.09776,2.77778 0,3.24939 3.1157,2.79009 3.76443,-0.55493 z m 171.50053,-3.86317 c 1.13761,-1.62417 2.06838,-4.12692 2.06838,-5.56169 0,-3.53142 -2.94865,-11.72465 -5,-13.89322 -0.91667,-0.96905 -1.66667,-2.99821 -1.66667,-4.50924 0,-1.51102 -2.02404,-4.65624 -4.49787,-6.98936 -2.47383,-2.33312 -4.91427,-5.55397 -5.42319,-7.15744 -1.06367,-3.35134 -4.45741,-3.88453 -5.60983,-0.88136 -0.58899,1.53487 -1.2188,1.6703 -2.56642,0.55188 -0.98223,-0.81519 -2.41216,-1.09509 -3.17762,-0.62201 -0.76546,0.47308 -1.39174,-0.0753 -1.39174,-1.21855 0,-1.32838 -1.20318,-2.07869 -3.33333,-2.07869 -2.07408,0 -3.33333,-0.75555 -3.33333,-2 0,-1.1 -0.25093,-2 -0.55762,-2 -0.30669,0 -1.44482,-0.34045 -2.52919,-0.75656 -3.34814,-1.2848 -4.3697,11.3312 -1.42953,17.65435 1.30485,2.80622 3.15483,5.58203 4.11106,6.16847 0.95624,0.58644 1.73861,1.96371 1.73861,3.0606 0,2.46716 6.2843,8.9335 7.78228,8.0077 0.60129,-0.37161 2.1944,1.84608 3.54025,4.92822 4.38473,10.04151 5.87777,11.70495 8.86551,9.87728 2.18046,-1.33383 2.85255,-1.20893 3.95711,0.73542 1.58418,2.78861 5.15985,1.38602 8.45314,-3.3158 z m -19.26496,-22.2023 c 0,-0.73333 0.6,-1.70415 1.33334,-2.15738 0.73333,-0.45322 1.33333,-0.22404 1.33333,0.50929 0,0.73333 -0.6,1.70416 -1.33333,2.15738 -0.73334,0.45322 -1.33334,0.22405 -1.33334,-0.50929 z M 13.703325,391.25773 c 3.201312,-2.24229 3.918399,-4.59106 1.401663,-4.59106 -1.861084,0 -6.4383211,3.93857 -6.4383211,5.53998 0,1.69178 1.7325581,1.36536 5.0366581,-0.94892 z m 208.296685,0.0756 c 0,-1.1 -0.6,-2 -1.33334,-2 -0.73333,0 -1.33333,0.9 -1.33333,2 0,1.1 0.6,2 1.33333,2 0.73334,0 1.33334,-0.9 1.33334,-2 z M 231.33334,392 c 0,-0.73333 -1.2,-1.33333 -2.66667,-1.33333 -1.46666,0 -2.66666,0.6 -2.66666,1.33333 0,0.73333 1.2,1.33333 2.66666,1.33333 1.46667,0 2.66667,-0.6 2.66667,-1.33333 z m 9.22222,-0.8323 c 0.30556,-0.27557 0.19436,-0.86223 -0.24711,-1.3037 -0.44146,-0.44146 -2.19146,0.21409 -3.88889,1.45678 l -3.08622,2.25945 3.33333,-0.95575 c 1.83334,-0.52567 3.58334,-1.18122 3.88889,-1.45678 z M 102,388.66667 c -0.88406,-1.76813 -7.886071,-1.3186 -9.812451,0.62996 -1.147061,1.16027 -0.04613,1.43577 4.47912,1.12088 3.436011,-0.2391 5.715111,-0.98729 5.333331,-1.75084 z m 395.9614,0.71874 c 1.07876,-0.68223 1.51448,-1.68732 0.96825,-2.23355 -0.54622,-0.54622 -2.00741,0.0212 -3.2471,1.26084 -2.40984,2.40984 -0.96724,3.02561 2.27885,0.97271 z m -261.86193,-4.21302 c 1.21004,-1.95787 -2.99318,-1.30866 -4.67907,0.72271 -1.29137,1.556 -1.07829,1.76578 1.19085,1.17239 1.52001,-0.39749 3.08971,-1.25028 3.48822,-1.8951 z m 188.22272,1.49428 c 1.3324,0 1.75867,-0.88017 1.29149,-2.66667 -0.45323,-1.73315 -0.0409,-2.66667 1.17783,-2.66667 1.03134,0 1.87517,0.65 1.87517,1.44445 0,3.05121 3.40302,0.14437 4.80794,-4.1069 1.86799,-5.65254 0.34061,-12.73597 -3.52223,-16.33475 -2.45425,-2.28648 -4.60577,-2.71853 -13.11089,-2.63277 -6.75609,0.0681 -9.27882,-0.28131 -7.50815,-1.04 1.46666,-0.62843 4.65207,-1.18477 7.07868,-1.23631 2.48227,-0.0527 4.06341,-0.6578 3.61497,-1.38338 -0.85908,-1.39003 -7.82428,-0.45478 -11.80785,1.58549 -1.34614,0.68946 -2.11287,1.58822 -1.70385,1.99724 0.40903,0.40903 -0.73958,2.50645 -2.55247,4.66094 -5.22407,6.20846 -3.81968,17.04599 2.20892,17.04599 1.59807,0 3.02809,1.08414 3.42325,2.59526 0.79568,3.04266 3.57945,4.0733 8.90501,3.29692 2.10834,-0.30737 4.72831,-0.55884 5.82218,-0.55884 z m -8.31274,-3.98473 c -0.46712,-0.75581 0.0681,-0.97934 1.25465,-0.52402 2.30988,0.88639 2.73251,1.84208 0.8146,1.84208 -0.69005,0 -1.62122,-0.59313 -2.06925,-1.31806 z m -35.00944,1.62692 c -0.18333,-0.90321 0.11667,-1.69219 0.66667,-1.7533 0.55,-0.0611 2.40513,-0.26491 4.12251,-0.45287 1.71738,-0.18797 3.65819,-1.18797 4.31291,-2.22222 1.61928,-2.55794 1.53838,-10.14856 -0.14161,-13.28766 C 388.00149,362.93239 381.6436,360 375.66622,360 c -2.82308,0 -5.78846,-0.65558 -6.58973,-1.45685 -1.05358,-1.05359 -2.21224,-1.05259 -4.18575,0.004 -1.8006,0.96365 -3.00997,1.00567 -3.55517,0.12352 -0.45445,-0.73531 -1.54086,-1.31698 -2.41425,-1.29258 -0.87339,0.0244 -0.24529,1.16466 1.39578,2.5339 l 2.98375,2.48955 -2.75579,6.22992 c -3.2535,7.35508 -2.57558,10.6072 2.02768,9.72723 2.75853,-0.52733 3.17511,-0.12969 2.98341,2.84773 -0.18336,2.84802 0.30828,3.40442 2.77719,3.14303 1.65,-0.17468 3,0.18896 3,0.8081 0,0.61914 2.25,1.05105 5,0.95981 3.18545,-0.1057 4.87903,-0.76187 4.66667,-1.8081 z M 110,384 c 0,-0.73333 -1.8,-1.33333 -4,-1.33333 -2.2,0 -4,0.6 -4,1.33333 0,0.73333 1.8,1.33333 4,1.33333 2.2,0 4,-0.6 4,-1.33333 z M 19.333334,381.33333 C 19.333334,380.6 18.468744,380 17.412023,380 c -1.056721,0 -2.292131,0.6 -2.745356,1.33333 -0.453225,0.73334 0.411365,1.33334 1.921311,1.33334 1.509946,0 2.745356,-0.6 2.745356,-1.33334 z m 559.374736,-1.26637 c -0.49077,-0.79409 -1.51491,-1.059 -2.27587,-0.58871 -0.89583,0.55365 -0.75945,1.2408 0.38685,1.94925 2.13968,1.3224 3.11363,0.62092 1.88902,-1.36054 z m -462.22751,-0.76974 c 0.37125,-0.37125 -0.002,-1.35162 -0.8286,-2.1786 -1.84895,-1.84895 -10.07789,1.11352 -8.80664,3.17045 0.76376,1.23579 8.17,0.4734 9.63524,-0.99185 z m -90.845277,-4.10638 c -0.469484,-0.46949 -1.912669,-0.44721 -3.207078,0.0495 -1.996157,0.766 -2.057188,1.08623 -0.401983,2.1092 2.044015,1.26327 5.164541,-0.60322 3.609061,-2.1587 z m 317.031397,2.14249 C 342.21345,376.6 342.55151,376 343.41791,376 c 1.1739,0 1.15236,-0.5096 -0.0846,-2 -0.91292,-1.1 -2.25058,-2 -2.97257,-2 -0.722,0 -0.96737,0.9 -0.54526,2 0.42211,1.1 0.1863,2 -0.52401,2 -0.71032,0 -1.29149,0.6 -1.29149,1.33333 0,0.73334 1.23541,1.33334 2.74536,1.33334 1.50994,0 2.37453,-0.6 1.92131,-1.33334 z m 217.75,-1.25 c 0.33334,-1 -0.16666,-1.5 -1.16666,-1.16666 -0.9625,0.32083 -2.0125,1.37083 -2.33334,2.33333 -0.33333,1 0.16667,1.5 1.16667,1.16667 0.9625,-0.32084 2.0125,-1.37084 2.33333,-2.33334 z M 189.97959,373 c 0.0112,-0.55 -0.57958,-1 -1.31292,-1 -0.73333,0 -1.32414,1.35 -1.31291,3 0.0165,2.42592 0.26775,2.61728 1.31291,1 0.71088,-1.1 1.30169,-2.45 1.31292,-3 z m 145.18368,0.79346 c -1.00646,-1.21359 -3.62993,-2.99703 -5.82993,-3.96319 -8.96033,-3.93505 -10.66666,-6.33788 -10.66666,-15.02063 0,-8.40275 -0.76,-9.93387 -5.66667,-11.4163 -2.15538,-0.65119 -3,-0.35816 -3,1.04082 0,2.47203 3.61266,3.94467 4.47526,1.82427 0.48789,-1.19931 0.6735,-1.20432 0.75281,-0.0203 0.15914,2.37579 -3.75278,5.7619 -6.65664,5.7619 -4.30146,0 -2.92613,2.90103 4.77167,10.06505 8.99907,8.37506 27.1142,18.11201 21.82016,11.72841 z M 122,373.33333 c 0,-1.68588 -2.72462,-1.68588 -5.33333,0 -1.5585,1.00718 -1.19058,1.29701 1.66667,1.31292 C 120.35,374.65748 122,374.06667 122,373.33333 Z M 34.000001,372 c 0,-0.73333 -1.23541,-1.33333 -2.745356,-1.33333 -1.509946,0 -2.374536,0.6 -1.921311,1.33333 0.453225,0.73333 1.688635,1.33333 2.745356,1.33333 1.056721,0 1.921311,-0.6 1.921311,-1.33333 z m 462.666679,-1.25464 c 0,-0.69006 -0.6,-1.62547 -1.33333,-2.07869 -0.73334,-0.45323 -1.33334,0.11136 -1.33334,1.25464 0,1.14328 0.6,2.07869 1.33334,2.07869 0.73333,0 1.33333,-0.56459 1.33333,-1.25464 z m 74.66667,0 c 0,-0.69006 -0.6,-1.62547 -1.33333,-2.07869 -0.73334,-0.45323 -1.33334,0.11136 -1.33334,1.25464 0,1.14328 0.6,2.07869 1.33334,2.07869 0.73333,0 1.33333,-0.56459 1.33333,-1.25464 z M 42.408197,369.81403 c 1.419749,-1.41975 -0.359674,-3.08229 -2.443238,-2.28275 -1.072303,0.41148 -1.617678,1.28528 -1.211944,1.94177 0.864269,1.39841 2.449834,1.54632 3.655182,0.34098 z m 85.969213,-1.59289 c 0.39836,-1.20868 -0.38945,-1.63606 -2.45779,-1.33334 -1.67424,0.24505 -3.3079,1.24602 -3.63036,2.2244 -0.39835,1.20867 0.38945,1.63605 2.4578,1.33333 1.67424,-0.24504 3.3079,-1.24602 3.63035,-2.22439 z m 335.6307,-0.55656 c 4.39788,-3.78289 5.81163,-12.19594 2.98796,-17.78092 -1.07993,-2.13601 -1.72585,-4.54361 -1.43538,-5.35021 1.7764,-4.93281 -14.69886,-7.15611 -20.89071,-2.81916 -1.83902,1.28809 -2.45045,2.28571 -1.40089,2.28571 1.31351,0 1.03414,0.8842 -0.94784,3 -8.13255,8.6816 -5.71783,18.05943 5.67876,22.05409 6.68268,2.34237 12.22925,1.86092 16.0081,-1.38951 z m -12.04948,-2.39821 c -1.26696,-2.04998 0.46847,-3.37262 2.17978,-1.6613 0.95758,0.95757 0.98058,1.70336 0.0699,2.26619 -0.74656,0.4614 -1.75892,0.1892 -2.24969,-0.60489 z m 1.37472,-6.5997 c -0.45323,-0.73334 0.14677,-1.33334 1.33333,-1.33334 1.18656,0 1.78656,0.6 1.33333,1.33334 C 455.54679,359.4 454.94679,360 454.66668,360 c -0.28011,0 -0.88011,-0.6 -1.33333,-1.33333 z m -317.01471,6.72848 c 1.89713,-3.0378 0.64047,-4.23731 -3.34681,-3.19462 -2.40295,0.62839 -2.58853,1.11607 -1.24399,3.26902 1.98181,3.17338 2.56846,3.16387 4.5908,-0.0744 z M 332.66668,366 c 0,-1.1 -0.9,-2 -2,-2 -2.0821,0 -2.64529,1.57693 -1.11111,3.11111 1.53417,1.53418 3.11111,0.97099 3.11111,-1.11111 z m 13.33333,0.79149 c 0,-0.66468 1.12982,-0.91305 2.51071,-0.55194 2.81347,0.73574 6.82262,-3.92752 6.82262,-7.93577 0,-4.58668 -3.88217,-9.94402 -8.94126,-12.33882 -2.78231,-1.31705 -5.66408,-3.21627 -6.40394,-4.22049 -1.52773,-2.07361 -6.57246,-1.69348 -8.93955,0.67362 -0.87005,0.87005 -2.21191,1.59667 -2.98191,1.61471 -2.03202,0.0476 -6.06667,8.78183 -6.06667,13.13311 0,4.29008 1.07494,5.81783 3.17867,4.51766 0.81036,-0.50083 3.83248,-0.96979 6.71582,-1.04213 2.88335,-0.0723 4.53663,0.10374 3.67398,0.39129 -2.28007,0.76002 -1.9248,4.3006 0.43153,4.3006 1.1,0 2,0.6 2,1.33334 0,0.73333 1.8,1.33333 4,1.33333 2.2,0 4,-0.54383 4,-1.20851 z m -0.66667,-5.45816 C 344.88012,360.6 345.14471,360 345.92132,360 c 0.77661,0 1.41202,0.6 1.41202,1.33333 0,0.73334 -0.26459,1.33334 -0.58797,1.33334 -0.32339,0 -0.9588,-0.6 -1.41203,-1.33334 z m -290.000005,4.08985 c 0,-1.62034 -4.918374,-3.17035 -6.654736,-2.09722 -2.63899,1.63099 -1.280339,3.34071 2.654736,3.34071 2.2,0 4,-0.55957 4,-1.24349 z m 491.276405,0.002 c 0.42191,-0.68266 0.15732,-1.61807 -0.58797,-2.07868 -0.7453,-0.46062 -1.35509,0.0979 -1.35509,1.2412 0,2.34203 0.80008,2.68688 1.94306,0.83748 z M 63.006676,362.33333 c -0.635574,-1.9299 -6.340008,-3.11304 -6.340008,-1.31495 0,1.90407 1.566058,2.98162 4.333334,2.98162 1.448292,0 2.317738,-0.72213 2.006674,-1.66667 z m 425.199914,-8.31952 c 0.11361,-0.008 0.41361,-1.17643 0.66667,-2.59742 0.70088,-3.93577 -7.56246,-5.39384 -11.01305,-1.94325 -3.18229,3.18229 -3.33715,7.86019 -0.2602,7.86019 1.76297,0 1.91112,0.35556 0.66667,1.6 -3.82938,3.82938 -1.109,3.47928 4.06667,-0.52336 3.11666,-2.41029 5.75962,-4.38856 5.87324,-4.39616 z M 480.66668,352 c 0,-1.74819 0.64638,-2.33494 2,-1.8155 1.1,0.42211 2,1.23908 2,1.8155 0,0.57642 -0.9,1.39339 -2,1.8155 -1.35362,0.51944 -2,-0.0673 -2,-1.8155 z m 16.55762,9.85735 c 1.15998,-0.44513 2.10905,-1.64513 2.10905,-2.66667 0,-1.02154 0.63061,-1.85735 1.40137,-1.85735 0.77075,0 2.19586,-1.95 3.16691,-4.33333 1.50339,-3.68991 1.7349,-9.05839 0.91996,-21.33333 -0.0852,-1.28334 -1.00491,-2.33334 -2.0438,-2.33334 -1.03889,0 -2.12582,-0.71079 -2.4154,-1.57953 -0.39067,-1.17203 -2.59183,-1.00004 -8.53192,0.66666 -15.46638,4.33965 -27.45501,2.49461 -32.99181,-5.07742 -2.56087,-3.50219 -6.84619,-1.76083 -4.84923,1.97051 1.15106,2.15078 1.02959,2.68645 -0.60917,2.68645 -3.2481,0 -2.41115,2.07062 2.62386,6.49141 4.60341,4.04185 13.64141,7.30531 30.66256,11.07171 7.62299,1.68679 8.01969,1.97443 8.41781,6.10355 0.26752,2.77459 -0.17432,4.33333 -1.22834,4.33333 -1.92728,0 -6.5228,3.9031 -6.5228,5.53998 0,1.29866 6.76784,1.51582 9.89095,0.31737 z M 497.61368,336 c 0.38354,-1.46667 1.1712,-2.66667 1.75035,-2.66667 0.57915,0 0.73919,1.2 0.35565,2.66667 -0.38354,1.46667 -1.1712,2.66667 -1.75035,2.66667 -0.57915,0 -0.73919,-1.2 -0.35565,-2.66667 z M 71.975844,360.03909 c 0.439937,-0.71184 -0.752594,-1.68389 -2.650071,-2.16013 -3.805084,-0.95501 -5.398908,-0.15468 -4.047262,2.03233 1.09839,1.77723 5.624548,1.8636 6.697333,0.1278 z m 124.928066,-8.18571 c 0.79076,-0.48871 1.01941,-1.56544 0.50812,-2.39272 -1.2802,-2.07141 -3.41202,-0.50509 -3.41202,2.50692 0,1.36227 -0.70623,2.71227 -1.56941,3 -0.96169,0.32056 -1.13481,1.2263 -0.44709,2.33907 0.85555,1.38431 1.40283,1.05763 2.30249,-1.37438 0.6491,-1.75468 1.82716,-3.59018 2.61791,-4.07889 z m 347.98162,3.06819 c -3.58678,-0.54171 -4.86689,0.28452 -3.60478,2.32666 0.61395,0.99339 1.76617,0.9281 3.80018,-0.21532 l 2.91909,-1.64096 z M 78.000002,356 c 0,-0.73333 -0.9,-1.33333 -2,-1.33333 -1.1,0 -2,0.6 -2,1.33333 0,0.73333 0.9,1.33333 2,1.33333 1.1,0 2,-0.6 2,-1.33333 z m 73.333338,-1.33333 c 0,-0.73334 -0.9,-1.33334 -2,-1.33334 -1.1,0 -2,0.6 -2,1.33334 0,0.73333 0.9,1.33333 2,1.33333 1.1,0 2,-0.6 2,-1.33333 z M 86.000002,351.2406 c 0,-1.38979 -0.972619,-1.94962 -2.895562,-1.66667 -4.268662,0.62811 -4.725837,3.7594 -0.548882,3.7594 2.240676,0 3.444444,-0.73137 3.444444,-2.09273 z m 75.528008,0.0662 c 0.43225,-1.12643 2.04223,-1.86669 3.62482,-1.66667 1.56595,0.19791 3.01583,-0.24016 3.22196,-0.97349 0.20613,-0.73334 -1.14387,-1.52319 -3,-1.75523 -1.85613,-0.23205 -3.37479,0.1781 -3.37479,0.91143 0,0.73334 -1.60372,1.52319 -3.56384,1.75523 -1.96011,0.23205 -3.81011,1.1719 -4.11111,2.08857 -0.80643,2.45592 6.25787,2.103 7.20296,-0.35984 z m 211.13867,-0.64016 c 0,-0.73334 -1.35,-1.32415 -3,-1.31292 -2.42592,0.0165 -2.61728,0.26775 -1,1.31292 2.58501,1.67056 4,1.67056 4,0 z m -68,-0.58798 c 0,-0.32339 -0.6,-0.9588 -1.33334,-1.41202 -0.73333,-0.45323 -1.33333,-0.18864 -1.33333,0.58797 0,0.77662 0.6,1.41203 1.33333,1.41203 0.73334,0 1.33334,-0.26459 1.33334,-0.58798 z m 60.95964,-2.53311 c -0.17515,-0.92398 1.12022,-1.40086 3.22087,-1.18574 3.84549,0.39381 6.04042,-2.66981 3.4069,-4.75526 -0.87308,-0.69138 -3.68741,-1.93625 -6.25408,-2.76638 -2.56667,-0.83013 -7.82884,-3.90832 -11.69371,-6.84043 -8.01092,-6.07752 -8.88977,-6.37299 -7.91948,-2.6626 0.39018,1.49204 0.14325,2.32576 -0.56009,1.89107 -2.21483,-1.36884 -11.82672,0.90692 -11.82672,2.80016 0,2.1731 6.92162,7.30693 9.85146,7.30693 1.15856,0 4.01636,1.70649 6.35067,3.7922 3.21399,2.8717 5.63664,3.81324 9.98068,3.87891 3.66756,0.0555 5.6308,-0.4707 5.4435,-1.45886 z m -187.62631,-0.87891 c 0,-0.73334 -1.35,-1.32415 -3,-1.31292 -2.42592,0.0165 -2.61728,0.26775 -1,1.31292 2.58501,1.67056 4,1.67056 4,0 z m 9.33333,0.26666 c 0,-1.94411 -3.16085,-4.26666 -5.80665,-4.26666 -2.5222,0 -2.52846,0.0864 -0.19335,2.66666 2.40891,2.66182 6,3.61945 6,1.6 z m 196,-0.26666 c 0,-0.73334 -0.6,-1.33334 -1.33333,-1.33334 -0.73333,0 -1.33333,0.6 -1.33333,1.33334 0,0.73333 0.6,1.33333 1.33333,1.33333 0.73333,0 1.33333,-0.6 1.33333,-1.33333 z M 91.885065,345.51931 c 0.390009,-0.63105 0.390676,-1.46579 0.0015,-1.85499 -1.045761,-1.04576 -5.886546,0.45463 -5.886546,1.82452 0,1.51552 4.951409,1.54115 5.885063,0.0305 z m 209.651125,-3.11557 c -0.2459,-1.61128 -1.14214,-3.16128 -1.99164,-3.44445 -1.98652,-0.66217 -1.9547,0.42013 0.10952,3.72547 2.11068,3.37973 2.43343,3.33154 1.88212,-0.28102 z m 20.79715,-0.8005 c -1.88019,-0.2854 -3,-1.38677 -3,-2.95062 0,-3.17141 2.44854,-4.73741 4.38285,-2.80311 2.05796,2.05796 3.61715,1.8535 3.61715,-0.47433 0,-1.11768 0.79024,-1.65491 1.8411,-1.25166 3.21122,1.23226 4.90346,-6.3492 2.51703,-11.27664 -1.60918,-3.32259 -3.11782,-4.37678 -7.19704,-5.02908 -2.8386,-0.45391 -5.16109,-1.57862 -5.16109,-2.49937 0,-2.95331 -5.69549,-3.28302 -11.59932,-0.67147 -6.77902,2.99868 -7.50954,4.34277 -1.40948,2.5933 2.37849,-0.68214 5.82849,-1.18661 7.66667,-1.12104 2.23959,0.0799 1.21804,0.70298 -3.09661,1.88875 -7.99253,2.19654 -11.56126,5.311 -11.56126,10.08963 0,6.12793 1.24919,7.97432 4.79326,7.08482 2.21822,-0.55674 3.43077,-0.15005 4.00364,1.34282 0.45196,1.17779 1.33872,2.14143 1.97057,2.14143 0.63186,0 0.80348,-0.9 0.38137,-2 -0.42211,-1.1 -0.10328,-2 0.70851,-2 0.81179,0 1.47599,0.75772 1.47599,1.68383 0,0.9261 1.35,2.2761 3,3 1.65,0.72389 3.075,2.06617 3.16666,2.98283 0.0917,0.91667 0.24167,1.98778 0.33334,2.38025 0.0917,0.39247 1.51666,-0.0443 3.16666,-0.97069 l 3,-1.68428 z m 105.66667,-2.63644 c 6.72782,-3.41218 12.20414,-8.13668 15.89328,-13.71135 4.60748,-6.96238 5.77469,-12.58591 2.84559,-13.70991 -1.63857,-0.62878 -2.79501,0.57263 -4.62812,4.80811 -3.16199,7.30589 -12.07624,16.01375 -19.54723,19.09465 -5.54243,2.2856 -7.08806,4.24938 -4.9933,6.34414 1.05093,1.05093 4.77642,0.0416 10.42978,-2.82564 z M 92.417814,333.10268 c -0.603655,-6.11245 -3.751145,-6.57153 -3.751145,-0.54712 0,3.44408 0.581873,4.77777 2.084478,4.77777 1.540237,0 1.975391,-1.10459 1.666667,-4.23065 z m 456.915536,0.23065 C 549.78657,332.6 549.52198,332 548.74537,332 c -0.77661,0 -1.41202,0.6 -1.41202,1.33333 0,0.73334 0.26459,1.33334 0.58798,1.33334 0.32338,0 0.95879,-0.6 1.41202,-1.33334 z m -303.33334,-4 c 0,-0.73333 -0.6,-1.33333 -1.33334,-1.33333 -0.73333,0 -1.33333,0.6 -1.33333,1.33333 0,0.73334 0.6,1.33334 1.33333,1.33334 0.73334,0 1.33334,-0.6 1.33334,-1.33334 z m 232,-6.65691 c 0,-5.14177 2.9464,-12.61891 4.39981,-11.1655 0.44214,0.44214 0.45806,2.53306 0.0354,4.64649 -0.44429,2.22144 -0.19587,3.84259 0.58883,3.84259 3.26882,0 3.07022,-7.36585 -0.26009,-9.64625 -2.42582,-1.66106 -4.76393,-1.12575 -4.76393,1.09069 0,1.16112 -0.645,1.89612 -1.43333,1.63334 -0.78833,-0.26278 -1.42413,-1.06278 -1.41289,-1.77778 0.0112,-0.715 -1.14376,-1.73067 -2.56667,-2.25703 -1.46401,-0.54158 -2.58711,-2.2042 -2.58711,-3.82993 0,-2.30614 -0.36686,-2.56842 -1.85965,-1.32952 -1.02281,0.84886 -2.64355,1.37233 -3.60164,1.16326 -0.96811,-0.21125 -2.46267,1.69305 -3.36422,4.28655 -0.89222,2.56667 -2.27149,4.51667 -3.06502,4.33334 -2.69908,-0.62358 -1.45464,3.0594 2.4948,7.38349 3.93484,4.3081 12.58255,8.27969 15.72907,7.22382 0.94061,-0.31564 1.66666,-2.75411 1.66666,-5.59756 z m -390.666674,2.65691 c 0,-1.48148 -0.888889,-2.66666 -2,-2.66666 -1.111111,0 -2,1.18518 -2,2.66666 0,1.48148 0.888889,2.66667 2,2.66667 1.111111,0 2,-1.18519 2,-2.66667 z m 395.388174,-1.42204 c 1.43502,-2.32192 -0.19937,-2.81365 -2.02809,-0.61018 -1.05166,1.26718 -1.15281,2.03222 -0.26869,2.03222 0.77985,0 1.8134,-0.63992 2.29678,-1.42204 z m -402.649707,-1.3608 c 1.374029,-2.22322 -1.716279,-4.77268 -3.555624,-2.93333 C 74.977612,321.15572 75.94055,324 78.000002,324 c 0.646775,0 1.579086,-0.65228 2.071801,-1.44951 z m 424.594877,-1.13847 c 0,-1.42338 -0.6,-2.9588 -1.33333,-3.41202 -0.75621,-0.46736 -1.33334,0.65282 -1.33334,2.58798 0,1.87661 0.6,3.41202 1.33334,3.41202 0.73333,0 1.33333,-1.16459 1.33333,-2.58798 z m -8.80932,-0.8544 c 1.21589,-3.16856 0.97302,-9.89095 -0.35735,-9.89095 -1.1048,0 -2.83333,6.20238 -2.83333,10.16666 0,2.50685 2.19572,2.31711 3.19068,-0.27571 z M 71.666669,317.07407 c -1.60926,-1.60926 -3.328093,-2.52375 -3.819631,-2.03222 -1.29725,1.29725 2.108451,4.95815 4.61252,4.95815 1.714282,0 1.558624,-0.57441 -0.792889,-2.92593 z m 360.000011,1.06987 c 1.73294,-1.31549 2.33333,-3.69 2.33333,-9.22819 0,-8.49929 -1.96616,-13.84705 -5.50384,-14.96987 -4.51266,-1.43226 -43.07349,-2.81687 -54.19473,-1.94598 -6.06754,0.47515 -11.74855,1.58055 -12.62446,2.45646 -0.87591,0.87591 -1.82866,5.7709 -2.11722,10.87774 -0.49987,8.84648 -0.37026,9.34388 2.74335,10.52767 1.79741,0.68338 15.20002,1.41052 29.78358,1.61587 14.58356,0.20535 28.63006,0.78789 31.21444,1.29453 2.58439,0.50664 4.99888,0.97108 5.36555,1.03209 0.36667,0.061 1.71667,-0.68613 3,-1.66032 z M 55.280176,309.93595 c -1.638063,-1.97375 -5.280175,-2.67861 -5.280175,-1.02188 0,0.50273 1.35,2.35525 3.000001,4.11671 2.504541,2.67371 3.073234,2.84248 3.443434,1.02188 0.243889,-1.19942 -0.279578,-3.05194 -1.16326,-4.11671 z M 294.91083,311.75 c -0.42564,-1.06364 -0.74158,-0.7477 -0.80556,0.80556 -0.0579,1.40555 0.25724,2.19305 0.70029,1.75 0.44306,-0.44306 0.49043,-1.59306 0.10527,-2.55556 z M 47.333335,305.92131 c 0,-1.05672 -0.9,-1.92131 -2,-1.92131 -2.008307,0 -2.740902,2.81465 -1.14736,4.4082 1.244323,1.24432 3.14736,-0.25936 3.14736,-2.48689 z m 268.000005,-0.74516 c 0,-3.4822 2.17546,-3.14886 3.20114,0.49052 l 0.84549,3 2.45795,-2.91875 c 1.71062,-2.03132 2.88196,-2.49472 3.85255,-1.52413 2.02312,2.02312 5.94132,-4.50363 5.40642,-9.00575 -0.56744,-4.77596 -6.06087,-8.69421 -13.2779,-9.47058 -8.61261,-0.9265 -20.45972,4.71774 -15.86406,7.55801 1.24589,0.77001 1.09009,2.05117 -0.66131,5.43801 -2.22754,4.30759 -2.2113,4.49537 0.58469,6.75942 1.70807,1.38311 5.02383,2.2991 8.16546,2.25574 4.26439,-0.0589 5.28957,-0.55937 5.28957,-2.58249 z M 40.666668,301.33333 c 0,-2.66666 -0.666667,-4 -2,-4 -2.34059,0 -2.548359,1.81736 -0.619755,5.42099 1.926989,3.60061 2.619755,3.22485 2.619755,-1.42099 z m 412.482182,-2 c 0.42211,-1.1 0.1863,-2 -0.52402,-2 -0.71031,0 -1.29148,0.9 -1.29148,2 0,1.1 0.2358,2 0.52401,2 0.28821,0 0.86938,-0.9 1.29149,-2 z M 35.333334,294.74536 c 0,-4.06419 -2.030061,-6.65518 -2.980456,-3.80399 -0.800176,2.40053 0.442263,7.7253 1.802559,7.7253 0.647844,0 1.177897,-1.76459 1.177897,-3.92131 z m 316.639516,0.007 c 1.4812,-4.66687 16.10793,-16.94042 23.24827,-19.50805 7.25209,-2.60781 9.66512,-6.6007 3.11222,-5.14985 -16.1496,3.5756 -24.49252,10.29663 -29.66322,23.8966 -0.98344,2.58665 -0.84634,3.34238 0.60637,3.34238 1.03244,0 2.2458,-1.16149 2.69636,-2.58108 z m 88.69383,-5.99632 c 0,-4.41931 -19.26727,-16.65768 -26.33333,-16.72665 -5.20692,-0.0508 -3.28652,2.23857 5.64065,6.72448 4.75235,2.38806 10.60235,6.02102 13,8.07323 4.82153,4.1269 7.69268,4.84684 7.69268,1.92894 z M 32.666668,286 c 0,-1.1 -0.56459,-2 -1.254644,-2 -1.681304,0 -2.88546,2.08212 -1.820219,3.14736 1.501579,1.50158 3.074863,0.91452 3.074863,-1.14736 z m 271.391092,0.57323 c 0.48498,-0.78472 2.17039,-1.94669 3.74535,-2.58215 2.40897,-0.97197 2.47923,-1.1688 0.44258,-1.2399 -3.04808,-0.1064 -7.57901,2.26242 -7.57901,3.9624 0,1.73171 2.29273,1.63682 3.39108,-0.14035 z m 155.3418,-3.27414 c 2.16358,-1.11883 3.93379,-2.88829 3.93379,-3.93214 0,-4.61067 -21.2666,-16.21007 -25.53332,-13.92659 -2.64585,1.41602 -5.13335,5.37949 -5.13335,8.17925 0,0.98721 2.85,4.01359 6.33333,6.72529 7.11178,5.53637 13.59155,6.47475 20.39955,2.95419 z m -117.60855,-2.50326 c 0.84828,-0.52426 1.54233,-0.3178 1.54233,0.45881 0,2.29973 2.29976,1.62474 5.93131,-1.74087 3.86947,-3.58611 4.35926,-8.22044 1.32642,-12.55043 -2.82561,-4.03413 -5.90005,-3.74319 -17.41152,1.64767 -7.7258,3.61802 -9.84621,5.22415 -9.84621,7.45816 0,1.72581 1.05026,3.1218 2.66667,3.5445 1.46667,0.38354 2.66667,1.24486 2.66667,1.91404 0,1.35714 10.71065,0.75986 13.12433,-0.73188 z m -218.49498,-2.05946 c 0.76442,-1.42832 3.2127,-3.67374 5.44062,-4.9898 3.28117,-1.93824 3.97597,-3.14676 3.65706,-6.36099 -0.3285,-3.31094 -1.16659,-4.15342 -5.06037,-5.08689 -2.56667,-0.61532 -7.71941,-1.98425 -11.45053,-3.04206 -3.73112,-1.05781 -8.38112,-1.9233 -10.33333,-1.9233 -3.81898,0 -4.82123,2.26235 -1.55714,3.5149 1.09579,0.42049 1.65099,1.31686 1.23378,1.99192 -0.41722,0.67507 1.25873,3.2447 3.72432,5.71029 2.46559,2.46559 4.28228,5.08473 4.03709,5.82031 -0.45658,1.36974 5.81862,6.96258 7.81204,6.96258 0.60864,0 1.73204,-1.16863 2.49646,-2.59696 z M 30.000001,276 c 0,-2.59891 -1.414226,-3.47466 -3.019243,-1.86965 -1.068154,1.06816 0.329841,4.53632 1.828561,4.53632 0.654875,0 1.190682,-1.2 1.190682,-2.66667 z m 294.127089,-8.51705 c 0.39054,-1.01771 2.44448,-2.19726 4.56432,-2.62123 3.78511,-0.75702 9.14608,-6.80202 7.49583,-8.45226 -0.46236,-0.46236 -3.27961,-0.0357 -6.26057,0.94808 -7.29738,2.40835 -14.12915,11.97579 -8.55148,11.97579 1.12301,0 2.36137,-0.83267 2.7519,-1.85038 z m 47.20625,-0.0933 c 1.83334,-1.01704 4.92084,-1.53327 6.86112,-1.14719 4.11596,0.819 9.57281,-3.69046 8.86324,-7.32446 -0.64033,-3.2794 -11.15815,-3.10914 -26.05769,0.42183 -3.2615,0.77293 -3.89605,3.23076 -1.46241,5.66441 1.0579,1.05789 2.30583,1.12645 4.00001,0.21976 2.01939,-1.08075 2.4624,-0.82964 2.4624,1.39573 0,3.16521 0.80585,3.28155 5.33333,0.76992 z m 90.66667,0.76368 c 0,-1.50336 -5.50309,-5.13734 -8.65211,-5.71344 -4.21119,-0.77042 -3.56376,2.30347 0.95912,4.55378 4.96017,2.46788 7.69299,2.87983 7.69299,1.15966 z m -35.77165,-2.36 c 1.34107,-1.21366 2.43832,-2.91869 2.43832,-3.78895 0,-2.26255 -8.27279,-4.42214 -20.96927,-5.47395 -9.77713,-0.80997 -11.06812,-0.65112 -11.87886,1.46164 -1.6636,4.33527 1.39927,6.60926 10.99225,8.16108 13.38358,2.165 16.69548,2.10363 19.41756,-0.35982 z M 28.13889,263.02778 c -1.355354,-1.35536 -2.473664,0.68519 -1.361624,2.48451 0.840047,1.35922 1.154103,1.36027 1.605737,0.005 0.308793,-0.92638 0.198942,-2.04683 -0.244113,-2.48988 z m 408.64307,1.49999 c 0.97632,-1.1764 3.29979,-2.74792 5.16326,-3.49227 1.86347,-0.74435 2.70785,-1.6086 1.87639,-1.92056 -1.90054,-0.71309 -10.1268,3.80066 -10.84312,5.94962 -0.77313,2.31939 1.72573,1.96672 3.80347,-0.53679 z m -313.68575,-8.10771 c -0.27607,-1.43354 -2.765,-2.84158 -6.8773,-3.89064 -3.54455,-0.90423 -6.84385,-2.07766 -7.33178,-2.60763 -0.87324,-0.94851 4.27619,-0.004 8.21123,1.50587 3.04152,1.16714 2.84217,-10.93548 -0.20947,-12.71638 -2.04474,-1.19328 -2.03587,-1.30009 0.11111,-1.3374 2.60648,-0.0453 2.88582,-1.10245 1.05586,-3.99583 -0.77825,-1.2305 -0.72813,-2.56801 0.1352,-3.60826 1.78813,-2.15457 0.31827,-4.43646 -2.85772,-4.43646 -1.38011,0 -2.81301,-0.49143 -3.18423,-1.09207 -0.37122,-0.60064 1.08646,-0.83356 3.23928,-0.51759 2.95926,0.43433 4.10437,-0.0312 4.69358,-1.90793 0.42865,-1.36532 1.34915,-3.54602 2.04556,-4.846 0.89047,-1.66223 0.76268,-2.50443 -0.43066,-2.83823 -11.16546,-3.12312 -25.875937,-8.53896 -32.053981,-11.80106 -7.731885,-4.08255 -9.974064,-4.1873 -8.519992,-0.39805 0.667888,1.74049 6.559307,4.92689 21.875093,11.83124 1.6489,0.74332 2.77491,1.57457 2.50225,1.84724 -0.27266,0.27266 -5.08738,-1.32825 -10.699368,-3.55757 -11.466282,-4.55489 -13.019478,-4.84109 -12.011071,-2.21323 0.650808,1.69598 13.060422,7.92201 22.543539,11.31033 3.74935,1.33964 3.6658,1.37846 -1.33334,0.61945 -2.93333,-0.44536 -8.264735,-2.21087 -11.847563,-3.92335 -6.298366,-3.01044 -8.819101,-3.11844 -8.819101,-0.37787 0,1.46383 15.598854,9.19533 18.555554,9.19697 1.03889,5.8e-4 1.52271,0.36724 1.07514,0.8148 -0.44756,0.44756 -4.729424,-0.59057 -9.515258,-2.30696 -6.796957,-2.43765 -9.053842,-2.76838 -10.311211,-1.51101 -1.257368,1.25737 -0.536598,2.05806 3.293041,3.65819 5.089137,2.12637 6.828014,4.1368 2.348276,2.71498 -1.404951,-0.44591 -2.927077,-0.20784 -3.382502,0.52906 -1.214379,1.9649 7.860072,7.09368 19.013154,10.74602 5.35858,1.75479 10.00749,3.61871 10.33093,4.14204 0.60827,0.9842 -6.41869,-0.99736 -16.574759,-4.67398 -3.208866,-1.16164 -6.658867,-2.11208 -7.666667,-2.11208 -3.342219,0 -1.897638,2.63047 2.500969,4.55407 2.625977,1.1484 3.413988,1.93792 2,2.00383 -3.246798,0.15134 -2.913248,2.35036 0.666666,4.39518 2.622709,1.49808 23.795631,8.54851 26.764431,8.91237 0.60377,0.074 0.90307,-0.87642 0.66511,-2.11206 z M 106,229.33333 c -1.70919,-1.10456 -1.66073,-1.29546 0.33334,-1.31291 1.28333,-0.0112 2.33333,0.57958 2.33333,1.31291 0,1.62615 -0.15038,1.62615 -2.66667,0 z m 9,-11.5497 c 0.91667,-0.36989 2.41667,-0.36989 3.33334,0 0.91666,0.36988 0.16666,0.67251 -1.66667,0.67251 -1.83333,0 -2.58333,-0.30263 -1.66667,-0.67251 z m -86.999999,35.77193 c 0,-2.41154 -2.60973,-1.97129 -3.127338,0.52757 -0.287982,1.39029 0.211839,1.99981 1.333333,1.62598 0.986703,-0.3289 1.794005,-1.298 1.794005,-2.15355 z m 136.422249,1.62666 c 3.00064,-0.60013 4.46305,-1.89105 5.49466,-4.85031 1.7086,-4.90128 0.34179,-29.55 -1.78538,-32.19716 -1.16196,-1.44599 -5.27962,-1.68055 -19.91322,-1.13434 l -18.44836,0.68859 0.97983,4.82217 c 0.5389,2.65219 1.13864,8.27641 1.33275,12.49826 0.614,13.35426 1.90921,18.3976 5.05023,19.6648 3.3594,1.35529 21.37607,1.69067 27.28949,0.50799 z m 263.46763,-0.33736 c 1.43718,-2.3254 -3.80752,-5.22277 -8.2232,-4.54281 -2.38333,0.367 -4.33333,1.18203 -4.33333,1.81116 0,0.62913 1.95,1.70692 4.33333,2.39508 5.73405,1.65565 7.36667,1.72247 8.2232,0.33657 z m -57.88987,-1.2893 c 0,-1.87866 -1.50185,-2.74053 -3.46369,-1.98771 -2.78259,1.06778 -2.2602,3.09882 0.79702,3.09882 1.46667,0 2.66667,-0.5 2.66667,-1.11111 z m 32.35284,-4.47347 c 3.80834,-2.71178 10.73563,-3.51256 18.31383,-2.11705 1.1,0.20256 2.3,-0.23171 2.66667,-0.96504 0.36666,-0.73333 -2.63334,-2.16718 -6.66667,-3.18633 -6.97959,-1.76362 -7.65492,-1.6993 -14,1.33333 -3.66667,1.75248 -6.86066,4.23633 -7.09777,5.51967 -0.5812,3.14575 1.83793,2.93729 6.78394,-0.58458 z m -66.29802,0.16254 c 0.48338,-0.78213 0.60467,-1.69625 0.26953,-2.03139 -0.92997,-0.92997 -4.99102,0.91116 -4.99102,2.26275 0,1.66905 3.65775,1.48981 4.72149,-0.23136 z m 25.84834,-0.79354 c 4.92133,-3.44703 13.38709,-4.54185 17.73486,-2.29353 4.4051,2.27796 4.95584,0.20989 0.73197,-2.74862 -5.9813,-4.18947 -16.81745,-2.28471 -23.36999,4.10792 -3.77421,3.68211 -0.0367,4.39424 4.90316,0.93423 z M 27.455238,245.10555 c 1.282009,-2.39545 1.134891,-3.19729 -0.853368,-4.65114 -2.090926,-1.52892 -2.176284,-2.17926 -0.658314,-5.01561 2.026291,-3.78616 0.792743,-9.42184 -1.328198,-6.0681 -1.443986,2.28331 -1.63744,8.51889 -0.448691,14.46263 0.989497,4.94749 1.26466,5.05394 3.288571,1.27222 z M 595.13641,234.65847 c 0.7685,-2.20451 2.13052,-10.15451 3.02671,-17.66666 0.94912,-7.9559 2.45487,-14.63267 3.60648,-15.99181 1.08738,-1.28333 1.73406,-2.37555 1.43707,-2.42715 -0.29699,-0.0516 -5.93999,-1.31166 -12.53999,-2.80014 -17.74179,-4.00126 -18.25595,-3.96027 -19.57618,1.56062 -1.96442,8.21477 -4.02697,15.25812 -5.27106,18 -1.80647,3.98135 -1.94911,15.07032 -0.21614,16.80329 2.09847,2.09847 17.36115,6.31987 23.26628,6.43506 4.2504,0.0829 5.04723,-0.41466 6.26683,-3.91321 z m -159.20973,-0.32514 c -1.5475,-5.04783 -3.16863,-6.1805 -7.77579,-5.43286 -3.72328,0.6042 -4.89265,0.0614 -8.10917,-3.7639 -4.85647,-5.77566 -8.2745,-6.12354 -8.42423,-0.85738 -0.0609,2.14288 -0.46811,5.52309 -0.90485,7.51157 -0.79097,3.60125 -0.76517,3.61497 6.58292,3.50212 4.05735,-0.0623 8.12568,0.36212 9.04073,0.94316 0.91505,0.58105 3.65416,1.06565 6.08691,1.07688 3.97394,0.0183 4.32977,-0.28428 3.50348,-2.97959 z M 354.00001,232 c 0,-0.73333 -0.26459,-1.33333 -0.58798,-1.33333 -0.32338,0 -0.95879,0.6 -1.41202,1.33333 -0.45322,0.73333 -0.18863,1.33333 0.58798,1.33333 0.77661,0 1.41202,-0.6 1.41202,-1.33333 z m -148,-1.33333 c 0,-0.73334 -0.6,-1.33334 -1.33334,-1.33334 -0.73333,0 -1.33333,0.6 -1.33333,1.33334 0,0.73333 0.6,1.33333 1.33333,1.33333 0.73334,0 1.33334,-0.6 1.33334,-1.33333 z m 14.66666,0.74535 c 0,-0.32338 -0.6,-0.9588 -1.33333,-1.41202 -0.73333,-0.45322 -1.33333,-0.18864 -1.33333,0.58798 0,0.77661 0.6,1.41202 1.33333,1.41202 0.73333,0 1.33333,-0.26459 1.33333,-0.58798 z m 455.2534,-4.65701 c 2.65234,-2.9308 3.12237,-5.64063 4.52509,-26.08834 1.30357,-19.00226 0.4061,-21.88348 -4.48922,-14.41226 -2.04144,3.11562 -2.17153,4.7458 -0.98859,12.38823 1.29931,8.39426 0.34988,17.57241 -2.86584,27.70425 -1.16471,3.66968 0.68772,3.86766 3.81856,0.40812 z M 554.09853,226.1187 c -1.14064,-1.37439 -1.16014,-2.12925 -0.0724,-2.80153 0.81894,-0.50613 1.1669,-1.75955 0.77326,-2.78537 -0.39365,-1.02582 -0.13455,-1.86513 0.57577,-1.86513 0.71031,0 1.29148,-0.8899 1.29148,-1.97754 0,-1.83701 -11.53096,-8.68913 -14.62234,-8.68913 -2.69373,0 -1.31413,2.44638 2.95568,5.24114 4.25634,2.78595 4.26818,2.82125 0.66666,1.98639 -4.49483,-1.04193 -4.84239,1.10597 -0.66666,4.11994 2.59617,1.87388 2.65966,2.10841 0.47165,1.74228 -1.39058,-0.2327 -2.73942,0.17692 -2.9974,0.91025 -0.63032,1.7917 6.07794,5.72609 10.02234,5.8781 2.57703,0.0993 2.8739,-0.22675 1.60192,-1.7594 z M 26.084356,219.55102 c -1.77508,-1.77508 -3.352989,2.33199 -2.093461,5.44898 0.822858,2.03635 1.100744,1.92273 2.183297,-0.89269 0.791707,-2.05901 0.759209,-3.70724 -0.08984,-4.55629 z M 372.9521,219.23935 c 1.17819,-2.58583 1.18778,-4.41766 0.0391,-7.46089 -1.47916,-3.91874 -1.42553,-4.00924 1.88356,-3.17871 3.85477,0.96748 15.69406,-0.47539 14.41292,-1.75653 -1.23516,-1.23517 -22.38329,-4.06882 -23.80567,-3.18974 -0.67061,0.41446 -0.1363,1.54547 1.18735,2.51335 2.19353,1.60395 2.21142,1.83471 0.20199,2.6058 -1.63501,0.62741 -2.20466,2.53171 -2.20466,7.37002 0,6.08485 0.2263,6.52402 3.36192,6.52402 2.31673,0 3.84739,-1.06552 4.9235,-3.42732 z m 57.44857,1.63974 c 0.37727,-0.98317 0.15066,-2.63317 -0.5036,-3.66667 -0.86573,-1.36756 -1.19511,-0.88094 -1.20997,1.78758 -0.0222,3.98164 0.63162,4.69859 1.71357,1.87909 z m -25.06732,-2.21242 c 0.45322,-0.73334 0.18863,-1.33334 -0.58798,-1.33334 -0.77661,0 -1.41202,0.6 -1.41202,1.33334 0,0.73333 0.26458,1.33333 0.58797,1.33333 0.32339,0 0.9588,-0.6 1.41203,-1.33333 z M 26.000001,211.25464 c 0,-1.79005 -0.6,-3.25464 -1.333334,-3.25464 -0.733333,0 -1.333333,1.83541 -1.333333,4.07869 0,2.3796 0.555436,3.73541 1.333333,3.25464 0.733334,-0.45322 1.333334,-2.28863 1.333334,-4.07869 z m 402.779569,-3.67509 c -1.72679,-1.72678 -2.00428,1.48943 -0.45826,5.3114 0.86987,2.15046 1.04273,2.06543 1.44622,-0.7114 0.25204,-1.73458 -0.19254,-3.80458 -0.98796,-4.6 z m -263.1129,3.72038 c 0.91667,-0.30226 1.66667,-1.63686 1.66667,-2.96577 0,-3.44493 -6.7443,-5.72307 -19.5695,-6.61032 -10.07912,-0.69728 -11.20681,-0.51388 -14.92623,2.42761 -7.20348,5.69684 -5.23793,7.45695 9.16239,8.20476 7.93456,0.41204 20.97942,-0.17017 23.66667,-1.05628 z m 391.90801,-2.11575 c -0.36171,-1.38317 -0.0731,-2.87615 0.64141,-3.31772 0.71448,-0.44157 0.97698,-1.64217 0.58334,-2.66799 -0.39365,-1.02583 -0.13455,-1.86514 0.57577,-1.86514 1.89903,0 1.57489,-4.99675 -0.37518,-5.78362 -0.99566,-0.40176 -0.72725,-0.7149 0.66666,-0.77778 3.28546,-0.14822 2.90848,-1.99291 -1.33333,-6.52453 -3.53428,-3.77575 -12.15155,-6.6514 -14.09825,-4.70471 -0.49916,0.49917 0.0867,2.00626 1.30199,3.34911 2.05496,2.2707 2.05516,2.44153 0.003,2.44153 -2.91927,0 -2.78315,1.21448 0.53159,4.74285 l 2.73824,2.91473 -3.40491,-0.65089 c -4.37558,-0.83645 -4.30462,0.33549 0.26176,4.32335 3.40477,2.97341 3.45239,3.14821 0.66667,2.4472 -4.15964,-1.04673 -3.77133,1.53203 0.67239,4.4653 9.18333,6.06188 11.83926,6.46604 10.56894,1.60831 z m -6.89856,-10.50224 c -0.46712,-0.75581 0.0681,-0.97934 1.25465,-0.52402 2.30989,0.88639 2.73251,1.84208 0.8146,1.84208 -0.69005,0 -1.62121,-0.59313 -2.06925,-1.31806 z m 0,-6.66667 c -0.46712,-0.75581 0.0681,-0.97934 1.25465,-0.52401 2.30989,0.88639 2.73251,1.84207 0.8146,1.84207 -0.69005,0 -1.62121,-0.59312 -2.06925,-1.31806 z m 114.79612,16.34584 c -1.35535,-1.35535 -2.47366,0.68519 -1.36162,2.48451 0.84004,1.35922 1.1541,1.36027 1.60573,0.005 0.3088,-0.92638 0.19895,-2.04682 -0.24411,-2.48988 z m -254.91461,-1.17043 c 3.6924,-1.41691 2.30213,-3.44497 -1.75129,-2.55469 -2.12318,0.46633 -6.92318,0.8716 -10.66666,0.9006 -3.74349,0.029 -6.80634,0.59512 -6.80634,1.25806 0,1.3408 15.90825,1.66851 19.22429,0.39603 z m -291.47504,-4.47002 c 3.64486,-4.92994 3.64626,-4.91531 -0.57325,-5.97434 -1.91987,-0.48186 -3.13911,-1.22766 -2.70942,-1.65735 0.42968,-0.42968 2.63992,-0.0113 4.91165,0.92963 3.53653,1.46488 4.43681,1.40445 6.26155,-0.42028 1.53656,-1.53656 1.74105,-2.61482 0.73297,-3.86474 -1.77948,-2.20635 -4.34032,-14.26666 -3.49634,-16.46603 0.35129,-0.91546 -0.0662,-2.10017 -0.92787,-2.63268 -1.16425,-0.71955 -1.10199,-1.27433 0.24244,-2.16021 1.45894,-0.96133 1.30816,-1.57413 -0.77916,-3.16666 -2.53049,-1.93066 -2.52307,-1.97467 0.33334,-1.97467 4.37021,0 3.53738,-3.65285 -1.06321,-4.66331 -2.19159,-0.48135 -4.327,-1.42902 -4.74535,-2.10594 -0.41836,-0.67691 -2.15196,-1.23075 -3.85246,-1.23075 -1.7005,0 -5.24941,-0.9015 -7.88647,-2.00333 l -4.79465,-2.00334 -2.794179,6.1336 c -1.536797,3.37348 -2.486183,6.93621 -2.109747,7.91719 0.376437,0.98098 -0.03186,2.02479 -0.907334,2.31958 -1.157296,0.38968 -1.048723,1.19355 0.39778,2.94514 1.834019,2.22083 1.755848,2.33498 -1,1.46031 -2.439109,-0.77415 -2.989544,-0.44132 -2.989544,1.80767 0,1.51608 -0.45,2.77648 -1,2.80088 -0.55,0.0244 -2.420655,1.22778 -4.157011,2.67419 -2.547476,2.12209 -2.847103,3.00326 -1.55188,4.5639 0.882822,1.06374 1.22573,2.54795 0.762018,3.29825 -1.593385,2.57815 1.845255,6.37211 8.890512,9.80919 18.509375,9.02991 20.609185,9.34008 24.805615,3.6641 z m -13.73981,-10.70539 c -0.46712,-0.75581 0.0681,-0.97934 1.25464,-0.52401 2.30989,0.88639 2.73252,1.84207 0.81461,1.84207 -0.69006,0 -1.62122,-0.59312 -2.06925,-1.31806 z M 106,178.66667 c -1.1,-0.71088 -1.4,-1.2925 -0.66666,-1.2925 0.73333,0 2.23333,0.58162 3.33333,1.2925 1.1,0.71087 1.4,1.2925 0.66667,1.2925 -0.73334,0 -2.23334,-0.58163 -3.33334,-1.2925 z m -4.65722,-7.98473 c -0.46712,-0.75581 0.0681,-0.97934 1.25464,-0.52402 2.30989,0.88639 2.73252,1.84208 0.81461,1.84208 -0.69006,0 -1.62122,-0.59313 -2.06925,-1.31806 z m 567.67648,33.85437 C 670.08742,203.46816 668.68942,200 667.1907,200 c -0.65487,0 -1.19068,1.2 -1.19068,2.66667 0,2.59891 1.41422,3.47466 3.01924,1.86964 z M 25.365225,201.23285 c 0.483043,-1.52193 0.490851,-3.15455 0.01735,-3.62805 -0.999281,-0.99928 -3.332186,2.28171 -3.36216,4.72853 -0.0331,2.70226 2.391001,1.9047 3.344807,-1.10048 z M 391.6199,200.19299 c -0.20907,-0.99386 0.28654,-2.61029 1.10135,-3.59208 1.1307,-1.36241 0.84955,-2.17969 -1.18743,-3.45181 -2.46951,-1.54223 -2.50198,-1.79683 -0.43468,-3.40792 2.03417,-1.58529 2.04466,-1.8904 0.11718,-3.40785 -1.16437,-0.91666 -1.85169,-2.45469 -1.52739,-3.41783 0.3243,-0.96314 -0.46175,-2.51996 -1.74679,-3.4596 -2.18202,-1.59554 -2.14717,-1.75793 0.52739,-2.45734 3.61682,-0.94582 3.7173,-3.69169 0.16905,-4.61958 -2.07294,-0.54208 -2.35412,-1.11515 -1.21855,-2.48343 2.85139,-3.43571 -0.20737,-4.56222 -12.3876,-4.56222 -6.67894,0 -11.76639,-0.37714 -11.30544,-0.83809 0.46095,-0.46095 5.91144,-0.73814 12.11221,-0.61598 11.16043,0.21986 14.06249,-0.80228 11.95579,-4.211 -0.56599,-0.91579 -1.0514,-2.83621 -1.07869,-4.2676 -0.0308,-1.61526 -1.31412,-2.95639 -3.38296,-3.53535 l -3.33333,-0.93283 3.58798,-0.13291 c 4.01307,-0.14865 5.95043,-2.10343 3.55311,-3.58505 -0.863,-0.53336 -9.37312,-1.20116 -18.9114,-1.484 -9.53827,-0.28283 -18.10161,-0.93791 -19.02965,-1.45572 -0.92803,-0.51781 7.6581,-0.73599 19.08029,-0.48486 13.22831,0.29085 21.78752,-0.0692 23.57698,-0.99172 3.46893,-1.78837 46.89369,-2.78916 51.36737,-1.18384 5.03394,1.80636 6.68705,5.09289 6.73292,13.38562 l 0.0424,7.66667 h 7.42857 c 8.20306,0 13.46401,-2.98786 9.78767,-5.55872 -1.37505,-0.96158 -0.87307,-1.15463 1.86114,-0.71577 2.74244,0.44018 3.56058,0.12284 3.05823,-1.18625 -0.95505,-2.48883 1.90261,-3.95794 3.32638,-1.71008 0.916,1.44618 1.16819,1.33167 1.18426,-0.5377 0.0112,-1.30635 -0.90662,-2.73091 -2.03967,-3.16571 -1.74489,-0.66957 -1.65407,-1.07491 0.59353,-2.6492 1.45949,-1.02226 3.13653,-1.77664 3.72676,-1.67639 3.03159,0.51492 4.40647,-0.40971 4.40647,-2.96344 0,-2.32901 -0.34435,-2.54414 -1.94539,-1.2154 -1.25049,1.03781 -3.51278,1.26686 -6.33333,0.64121 -3.63945,-0.80729 -3.94816,-1.12933 -1.80978,-1.88793 5.89976,-2.09297 -1.73991,-2.95172 -22.99528,-2.58484 -68.77939,1.1872 -103.14493,0.56284 -121.91623,-2.21502 -3.97634,-0.58843 -6.33333,-0.4385 -6.33333,0.40288 0,0.73706 2.17442,1.69297 4.83204,2.12424 2.65762,0.43127 5.80762,1.65507 7,2.71956 1.19238,1.06448 3.66796,2.20842 5.50129,2.54208 1.88541,0.34314 0.53401,0.68553 -3.11111,0.78823 -4.50228,0.12686 -6.27814,0.68386 -5.89263,1.84825 0.75141,2.26953 7.5774,3.35854 30.33708,4.83992 l 19.33333,1.25837 -20.66667,-0.61175 c -11.36666,-0.33645 -22.70956,-0.73357 -25.20643,-0.88247 -2.65212,-0.15817 -4.77733,0.42226 -5.11111,1.39593 -0.33342,0.97261 0.55264,1.66666 2.12774,1.66666 3.85616,0 4.81039,2.37353 1.20958,3.00866 -2.70053,0.47633 -2.50963,0.76251 1.80574,2.70699 2.65404,1.19588 8.83521,2.58514 13.73594,3.08723 6.25022,0.64036 8.72181,1.40441 8.27868,2.55921 -0.96044,2.50286 1.91021,4.63791 6.23585,4.63791 2.74521,0 3.67027,0.53608 3.17086,1.83753 -1.14651,2.98775 1.88017,4.81485 8.35315,5.04252 5.13801,0.18072 5.3804,0.29741 1.5835,0.76232 -3.02181,0.37 -4.70234,1.38701 -5.15551,3.11995 -0.91756,3.50874 -2.0329,3.23864 -5.39285,-1.30594 -2.87767,-3.89225 -13.61682,-9.86598 -20.83401,-11.58907 -5.41916,-1.29381 -3.50738,1.22487 3.5396,4.66327 3.1126,1.51872 8.15662,5.02063 11.20893,7.78203 4.3846,3.96672 5.72267,6.24282 6.37383,10.8421 0.8079,5.70641 0.75754,5.80465 -2.54966,4.9746 -1.89135,-0.4747 -3.37383,-0.27233 -3.37383,0.46057 0,1.52808 7.44103,3.69015 18.30949,5.32003 10.18257,1.52702 14.45173,1.20623 13.97707,-1.05025 z m -39.61989,-42.85966 -8,-0.88504 9.33333,-0.0918 c 5.13334,-0.0505 14.43334,0.35574 20.66667,0.90275 l 11.33333,0.99456 -12.66666,-0.0177 c -6.96667,-0.01 -16.26667,-0.41597 -20.66667,-0.90275 z m -13,-2.21637 c 0.91667,-0.36988 2.41667,-0.36988 3.33333,0 0.91667,0.36988 0.16667,0.67251 -1.66666,0.67251 -1.83334,0 -2.58334,-0.30263 -1.66667,-0.67251 z m 59.59629,44.76916 c -0.4293,-0.69462 -1.34888,-0.91171 -2.0435,-0.4824 -0.69463,0.4293 -0.91171,1.34887 -0.48241,2.04349 0.4293,0.69463 1.34888,0.91171 2.0435,0.48241 0.69463,-0.4293 0.91171,-1.34888 0.48241,-2.0435 z m -157.42034,-3.8254 c 2.28656,-1.43327 5.89181,-4.46884 8.01167,-6.74571 3.00312,-3.22555 3.49865,-4.49037 2.24388,-5.72739 -1.24957,-1.23189 -2.17843,-0.81322 -4.14545,1.86848 -1.39427,1.90086 -4.95402,5.13246 -7.91054,7.18134 -8.16307,5.65701 -6.57629,8.67402 1.80044,3.42328 z M 25.794005,188.73595 c 0.29466,-1.52002 -0.185831,-2.16112 -1.333333,-1.77902 -0.986703,0.32856 -2.001307,1.66676 -2.254676,2.97378 -0.29466,1.52002 0.185832,2.16113 1.333333,1.77903 0.986703,-0.32856 2.001307,-1.66676 2.254676,-2.97379 z m 645.302815,-1.35997 c 5.84223,-4.19723 10.63562,-10.75467 9.033,-12.35729 -0.57005,-0.57005 -3.07266,1.29134 -15.01624,11.16882 -1.89815,1.56979 -3.03981,3.51979 -2.53702,4.33333 1.2678,2.05135 1.30832,2.0364 8.52026,-3.14486 z m -68.37281,-7.70691 c 0.21621,-4.88801 0.75708,-10.03406 1.20193,-11.43566 0.67371,-2.1227 -0.032,-2.6857 -4.22522,-3.37051 -7.56038,-1.23474 -28.31345,-8.0825 -34.34762,-11.33348 -2.92248,-1.57451 -5.92248,-2.88433 -6.66667,-2.9107 -2.0458,-0.0725 -8.16147,-5.63781 -9.10474,-8.28539 C 549.12447,141.05 547.81043,140 546.66162,140 c -4.87442,0 2.95247,8.06157 12.81996,13.20437 5.97574,3.11447 6.09755,3.30151 4.34155,6.66667 -0.99368,1.90426 -1.81038,4.21229 -1.8149,5.12896 -0.005,0.91667 -0.65221,1.66667 -1.43931,1.66667 -0.78711,0 -1.21527,1.05 -0.95147,2.33333 0.2638,1.28333 -0.40647,3.00884 -1.48949,3.83445 -1.64722,1.25573 -1.26732,1.86404 2.32396,3.72116 4.64249,2.40072 7.21306,1.86003 6.01388,-1.26498 -0.4131,-1.07651 -0.0169,-1.9573 0.88041,-1.9573 0.97505,0 1.35091,-1.07294 0.93414,-2.66666 C 567.89681,169.2 568.19681,168 568.94702,168 c 0.75021,0 1.05021,-1.2 0.66666,-2.66667 -0.38354,-1.46666 -0.15352,-2.66666 0.51116,-2.66666 0.66468,0 1.20851,-0.9 1.20851,-2 0,-2.41605 0.56096,-2.45191 6.23867,-0.39882 3.22078,1.16465 4.428,2.41548 4.428,4.58798 0,1.64273 -0.5738,3.34142 -1.2751,3.77485 -0.70131,0.43343 -0.93418,1.67648 -0.5175,2.76233 0.41668,1.08586 0.0899,2.77878 -0.72613,3.76206 -0.81604,0.98328 -1.35102,3.39115 -1.18883,5.35082 0.23426,2.83053 1.26243,3.8425 5.00122,4.9224 5.93653,1.71469 16.33702,3.6716 17.87178,3.36267 0.64099,-0.12902 1.34234,-4.23387 1.55855,-9.12189 z m -362.59306,5.9976 c 4.78788,-4.40011 1.80545,-20.67313 -4.13002,-22.53457 -3.7832,-1.18646 -9.26274,-7.05915 -11.23624,-12.04243 -1.82653,-4.61218 -3.88308,-4.63794 -8.4156,-0.10542 -2.47285,2.47285 -2.45109,2.6734 1.13228,10.43519 2.00946,4.35264 4.37963,7.91389 5.26703,7.91389 0.8874,0 3.31833,0.8845 5.40206,1.96556 3.21241,1.66661 3.72818,2.66702 3.39125,6.57775 -0.44588,5.17533 1.65643,10.12336 4.3012,10.12336 0.96199,0 2.89161,-1.05 4.28804,-2.33333 z m -87.76978,-1.68991 c 4.00183,-0.90506 7.55407,-2.5727 8.25,-3.87306 0.67219,-1.256 1.22217,-6.19301 1.22217,-10.97114 v -8.68751 l -13.58334,0.45969 -13.58333,0.45969 0.2858,3.57178 c 0.15718,1.96448 -0.36628,4.35748 -1.16326,5.31779 -0.96726,1.16546 -1.00926,2.30016 -0.12632,3.41267 0.72751,0.91666 1.72062,3.87645 2.20691,6.5773 0.54356,3.01886 1.76626,5.13642 3.17386,5.49671 2.49598,0.63887 2.97206,0.57581 13.31751,-1.76392 z M 26.000001,174.96738 c 0,-3.56057 -3.336199,-0.73101 -3.696855,3.13545 -0.346764,3.71754 -0.269942,3.77787 1.666667,1.309 1.116603,-1.4235 2.030188,-3.4235 2.030188,-4.44445 z m 643.159399,3.3247 c 3.25252,-2.3783 4.23276,-10.62549 3.81231,-32.07459 -0.311,-15.86539 -0.77783,-19.31994 -3.33334,-24.66667 -1.63442,-3.41962 -4.00309,-6.4079 -5.2637,-6.64063 -2.47428,-0.45679 -11.73642,6.23209 -11.66359,8.42314 0.0525,1.57888 4.67765,7.33334 5.89419,7.33334 0.46446,0 2.4009,1.4432 4.3032,3.20712 4.52272,4.1937 5.99138,15.51861 2.51122,19.36414 -2.84711,3.14603 -0.65288,4.81119 3.55277,2.69614 2.40025,-1.2071 2.22486,-0.80548 -0.84649,1.93834 -2.13073,1.90351 -4.38073,3.46092 -5,3.46092 -0.61927,0 -1.12595,0.58714 -1.12595,1.30475 0,0.79312 1.30931,0.70819 3.33897,-0.21659 4.42205,-2.01482 4.87976,-1.26673 3.05112,4.98682 -0.84569,2.89209 -1.41352,5.96311 -1.26183,6.82448 0.15169,0.86137 -0.34012,1.94678 -1.0929,2.41202 -1.62531,1.0045 -1.82862,3.35519 -0.2902,3.35519 0.59317,0 2.12957,-0.76857 3.41422,-1.70792 z M 209.33334,172 c 0.45322,-0.73333 -0.41137,-1.33333 -1.92131,-1.33333 -1.50995,0 -2.74536,0.6 -2.74536,1.33333 0,0.73333 0.86459,1.33333 1.92131,1.33333 1.05672,0 2.29213,-0.6 2.74536,-1.33333 z m -33.19445,-4.97222 c -1.35535,-1.35536 -2.47366,0.68519 -1.36162,2.48451 0.84005,1.35922 1.1541,1.36027 1.60574,0.005 0.30879,-0.92638 0.19894,-2.04683 -0.24412,-2.48988 z m 456.5278,3.05091 c 0,-0.32339 -0.6,-0.9588 -1.33334,-1.41202 -0.73333,-0.45323 -1.33333,-0.18864 -1.33333,0.58797 0,0.77662 0.6,1.41203 1.33333,1.41203 0.73334,0 1.33334,-0.26459 1.33334,-0.58798 z M 25.190682,165.89095 c 1.280308,-3.33643 0.961272,-4.55762 -1.190681,-4.55762 -1.244445,0 -2,1.25926 -2,3.33334 0,3.72393 1.945079,4.47027 3.190681,1.22428 z m 580.568788,-9.09719 c 0.90534,-11.06142 -2.05194,-14.9827 -17.75945,-23.54855 -10.47943,-5.7148 -20.32299,-13.75858 -19.66667,-16.07085 0.18333,-0.6459 -0.56667,-1.17436 -1.66667,-1.17436 -1.1,0 -2,-0.60067 -2,-1.33482 0,-1.85621 -10.47652,-11.84183 -14.60197,-13.91776 -1.86892,-0.940433 -5.90741,-2.093922 -8.97442,-2.563306 -4.92711,-0.754055 -5.68275,-0.518365 -6.48972,2.024196 -0.67547,2.12822 -0.0913,3.50978 2.24306,5.30501 1.73601,1.33506 3.90639,2.44073 4.82305,2.45703 0.91667,0.0163 1.66667,0.92965 1.66667,2.02965 0,1.11111 1.18518,2 2.66667,2 1.46666,0 2.66666,0.6 2.66666,1.33333 0,0.73334 1.2,1.33334 2.66667,1.33334 1.46667,0 2.66667,0.6 2.66667,1.33333 0,0.73333 1.2,1.33333 2.66666,1.33333 1.46667,0 2.66667,0.6 2.66667,1.33334 0,0.73333 0.9,1.33333 2,1.33333 1.1,0 2,0.50552 2,1.12337 0,0.61786 2.1,2.2543 4.66667,3.63654 2.56666,1.38224 4.66666,2.98959 4.66666,3.57188 0,0.58229 1.5,1.74216 3.33334,2.57748 1.83333,0.83532 3.33333,2.32246 3.33333,3.30475 0,0.98229 0.96419,1.78598 2.14265,1.78598 1.31393,0 1.8586,0.74023 1.40824,1.91386 -0.40393,1.05262 -0.22331,2.10262 0.40137,2.33333 1.67139,0.61729 2.96381,10.41948 1.37382,10.41948 -0.72935,0 -1.32608,1.47823 -1.32608,3.28497 0,2.85642 1.08715,3.63263 8.33333,5.94986 11.65757,3.72794 13.56778,3.3067 14.09279,-3.10774 z m -157.82984,-2.24097 c -0.4293,-0.69463 -1.34887,-0.91171 -2.0435,-0.48241 -0.69462,0.4293 -0.9117,1.34888 -0.4824,2.0435 0.4293,0.69462 1.34887,0.91171 2.0435,0.4824 0.69462,-0.4293 0.9117,-1.34887 0.4824,-2.04349 z m -288.07228,-0.66184 c 0.44513,-1.15998 0.80932,-5.11925 0.80932,-8.79839 0,-5.76398 -0.57284,-7.22445 -4.14101,-10.55761 -2.27755,-2.12756 -5.42755,-3.87648 -7,-3.88649 -1.57244,-0.01 -4.21954,-0.38275 -5.88244,-0.82831 -2.33346,-0.62522 -4.08309,0.31344 -7.66667,4.11315 -4.19524,4.44825 -4.64321,5.66447 -4.64321,12.60608 0,4.22556 0.4,8.08284 0.88889,8.57173 C 132.71111,155.6 138.94692,156 146.07957,156 c 10.59556,0 13.11655,-0.3859 13.77778,-2.10905 z m -133.090686,-4.2354 c -1.354281,-1.35428 -3.806436,1.9954 -2.732644,3.73283 0.735161,1.18951 1.339845,1.01644 2.272709,-0.6505 0.699073,-1.24917 0.906044,-2.63622 0.459935,-3.08233 z m 98.292296,-3.01144 c -0.15091,-4.02093 0.58379,-10.21818 1.63268,-13.77168 1.73068,-5.86332 1.69439,-6.74306 -0.39228,-9.51143 -3.30945,-4.39061 -12.17044,-8.70234 -17.87523,-8.69804 -3.83821,0.003 -5.47262,0.80363 -7.49174,3.67037 -3.686679,5.23433 -4.631937,9.1577 -2.959341,12.28297 0.976897,1.82535 1.001138,2.71703 0.07387,2.71703 -3.4925,0 -0.764663,3.79931 5.249881,7.312 3.64656,2.12971 6.37367,4.12865 6.06022,4.44209 -0.31344,0.31345 -3.25952,-1.00633 -6.54685,-2.93283 -5.544391,-3.24923 -8.967443,-2.97848 -6.794493,0.53743 1.114231,1.80287 13.184823,7.87229 19.937283,10.02502 8.66494,2.76243 9.41873,2.25972 9.106,-6.07293 z m -14.72562,-7.42337 C 107.95,138.17846 106,137.01935 106,136.64495 c 0,-0.69456 9.35299,2.93026 10.48707,4.06434 1.13418,1.13417 -1.75403,0.43554 -6.15373,-1.48855 z M 492.53864,151 c 2.22551,-1.83231 2.95235,-4.20399 3.38503,-11.0453 0.30305,-4.79159 0.66525,-9.29159 0.8049,-10 0.13964,-0.70842 0.1353,-1.58803 -0.01,-1.9547 -0.14496,-0.36667 -0.46034,-5.93702 -0.70086,-12.37857 -0.44433,-11.9002 -3.01465,-19.061062 -6.43636,-17.931546 -1.66202,0.548638 -3.09676,18.479896 -3.41206,42.643446 -0.18299,14.02445 0.63227,15.38984 6.369,10.66667 z m 82.79471,0.44444 c 0,-1.03888 -0.75,-2.19152 -1.66667,-2.5614 -0.99565,-0.40175 -0.72725,-0.71489 0.66667,-0.77778 2.4576,-0.11087 3.35403,-4.10526 0.92131,-4.10526 -0.77661,0 -1.02344,-0.62873 -0.54852,-1.39718 0.47493,-0.76845 0.41834,-2.41845 -0.12577,-3.66667 -0.5441,-1.24822 -1.04727,-3.16948 -1.11815,-4.26948 -0.0709,-1.1 -1.43189,-2.18558 -3.02446,-2.41239 -2.56604,-0.36545 -2.85243,0.13166 -2.51632,4.36773 0.2086,2.62907 -0.13838,5.10005 -0.77107,5.49108 -1.9508,1.20566 -1.28498,2.74683 1.84965,4.28136 l 3,1.46862 -3.18636,-0.26487 c -4.2411,-0.35254 -4.996,2.25455 -1.18458,4.09103 4.30411,2.07387 7.70427,1.96584 7.70427,-0.24479 z m -174.66667,-0.77777 c 0,-0.73334 -0.56459,-1.33334 -1.25465,-1.33334 -0.69005,0 -1.62546,0.6 -2.07869,1.33334 C 396.88012,151.4 397.44471,152 398.58799,152 c 1.14328,0 2.07869,-0.6 2.07869,-1.33333 z m -118.69043,-1.29044 c 2.17293,-1.37396 3.93779,-24.93769 2.69154,-35.93629 -0.56945,-5.0256 -1.22487,-6.07843 -4.45112,-7.15 -6.18667,-2.05486 -6.88333,-0.0871 -6.88333,19.44208 0,15.50417 0.31773,18.03319 2.66667,21.22608 2.99532,4.07151 3.21857,4.16184 5.97624,2.41813 z m -60.13445,-5.62935 c 2.28701,-2.33921 4.15821,-4.73921 4.15821,-5.33333 0,-2.16616 -3.84239,-1.01063 -4.60245,1.38411 -0.43018,1.35538 -2.27061,3.14251 -4.08985,3.97141 -1.81924,0.8289 -3.3077,2.11996 -3.3077,2.86901 0,2.67521 3.75208,1.29185 7.84179,-2.8912 z m -39.53507,-1.8181 c -0.95122,-1.69975 -1.52819,-1.85515 -2.29304,-0.6176 -0.57987,0.93826 -0.24379,2.13458 0.77688,2.76539 2.42859,1.50096 3.05863,0.60845 1.51616,-2.14779 z m 26.6203,1.73789 c 5.68317,-3.27655 8.9872,-8.15469 9.03084,-13.33334 0.0519,-6.16354 -1.98071,-6.45522 -4.41327,-0.6333 -1.00348,2.40169 -4.01154,6.68561 -6.68456,9.51984 -2.67302,2.83423 -4.86003,5.36921 -4.86003,5.6333 0,1.09087 4.23516,0.36545 6.92702,-1.1865 z M 29.750001,136.08333 c 0.333333,-1 -0.166667,-1.5 -1.166667,-1.16666 -0.9625,0.32083 -2.0125,1.37083 -2.333333,2.33333 -0.333334,1 0.166666,1.5 1.166666,1.16667 0.9625,-0.32084 2.0125,-1.37084 2.333334,-2.33334 z m 453.583349,1.25 c 0,-0.73333 -0.6,-1.33333 -1.33334,-1.33333 -0.73333,0 -1.33333,0.6 -1.33333,1.33333 0,0.73334 0.6,1.33334 1.33333,1.33334 0.73334,0 1.33334,-0.6 1.33334,-1.33334 z m 70.66667,-1.95308 c 0,-0.34087 -1.2,-1.26198 -2.66667,-2.04692 -2.1284,-1.13908 -2.66667,-1.01398 -2.66667,0.61976 0,1.15802 1.15803,2.04691 2.66667,2.04691 1.46667,0 2.66667,-0.27889 2.66667,-0.61975 z M 471.33335,132 c 0,-0.73333 -0.56459,-1.33333 -1.25465,-1.33333 -0.69005,0 -1.62546,0.6 -2.07869,1.33333 -0.45322,0.73333 0.11137,1.33333 1.25465,1.33333 1.14328,0 2.07869,-0.6 2.07869,-1.33333 z M 33.388159,130.57796 c 1.297174,-2.09887 -0.141712,-2.94168 -3.307039,-1.93704 -1.532579,0.48642 -2.442385,1.44121 -2.021791,2.12174 1.036404,1.67694 4.24705,1.56565 5.32883,-0.1847 z M 394.00001,126 c 0,-5.94865 -0.0393,-6 -4.58798,-6 -4.4927,0 -8.08221,2.66549 -4.98142,3.69909 0.86317,0.28772 1.5694,1.64332 1.5694,3.01243 0,1.36912 1.05,3.10088 2.33333,3.84835 4.49355,2.61725 5.66667,1.67326 5.66667,-4.55987 z m -205.63889,1.75 c -0.29028,-0.87083 -1.24069,-1.82097 -2.11202,-2.11141 -0.97433,-0.32478 -1.27232,0.28478 -0.77402,1.58333 0.93003,2.42362 3.68597,2.92789 2.88604,0.52808 z m 234.37223,-0.98509 c 1.46036,-1.42395 21.68742,-5.43158 27.41395,-5.43158 2.11899,0 3.85271,0.67851 3.85271,1.50779 0,0.98569 1.65713,1.23888 4.78564,0.73119 5.27638,-0.85624 8.92107,-3.22283 7.78766,-5.05672 -0.40187,-0.65024 -12.37643,-1.18226 -26.61014,-1.18226 -23.59007,0 -25.80415,-0.19627 -25.02806,-2.21872 0.52793,-1.37577 0.31923,-1.88983 -0.54931,-1.35304 -0.77039,0.47613 -1.72537,2.52456 -2.12217,4.55206 -1.06002,5.41632 6.95064,11.88262 10.46972,8.45128 z m 203.26667,-0.0982 c 0,-1.67057 -1.41499,-1.67057 -4,0 -1.61728,1.04516 -1.42592,1.2964 1,1.31291 1.65,0.0112 3,-0.57958 3,-1.31291 z m -254.03821,-1.80719 c 1.51316,-1.10645 2.1452,-2.65746 1.63002,-4 -1.57192,-4.09635 -43.59182,-3.49371 -43.59182,0.62519 0,0.6501 0.45,1.232 1,1.29311 0.55,0.0611 2.5,0.3537 4.33333,0.65021 1.83334,0.2965 8.13334,0.92243 14,1.39094 5.86667,0.46852 10.91667,1.07593 11.22223,1.3498 1.36427,1.22279 9.16855,0.32698 11.40624,-1.30925 z M 36.872467,122.33913 c -1.526912,-1.52691 -4.595668,-0.0486 -3.518182,1.69477 0.402114,0.65063 1.652231,0.8295 2.778039,0.39749 1.336887,-0.51301 1.593628,-1.23877 0.740143,-2.09226 z m 435.433103,0.85531 c -0.44306,-0.44305 -1.59306,-0.49042 -2.55556,-0.10526 -1.06364,0.42564 -0.7477,0.74158 0.80556,0.80556 1.40555,0.0579 2.19305,-0.25724 1.75,-0.7003 z m 7.02778,-1.90295 c 0,-1.59622 -3.76084,-3.30844 -4.85769,-2.21158 -1.16761,1.16761 0.81287,3.58676 2.93638,3.58676 1.05672,0 1.92131,-0.61883 1.92131,-1.37518 z m -280.00001,-2.62482 c 0,-1.48148 -0.88889,-2.66667 -2,-2.66667 -1.1,0 -2,0.25093 -2,0.55762 0,0.30669 -0.36419,1.50669 -0.80932,2.66666 -0.58018,1.51194 -0.0139,2.10905 2,2.10905 1.92043,0 2.80932,-0.84375 2.80932,-2.66666 z m -35.21794,-2.59088 c 7.20933,-4.19616 9.88461,-7.18381 9.88461,-11.03878 0,-3.3112 -0.47263,-3.70368 -4.46002,-3.70368 -4.91556,0 -9.6693,4.00252 -8.46895,7.13061 1.10915,2.89038 -2.66756,7.31049 -6.64943,7.78223 -1.95211,0.23128 -3.82264,1.25173 -4.15673,2.26768 -0.81386,2.4749 8.10784,0.90443 13.85052,-2.43806 z m -123.639715,1.40379 c 1.261075,-0.79905 1.36204,-1.42249 0.333333,-2.05827 -1.691231,-1.04524 -4.14235,0.13271 -4.14235,1.99071 0,1.55034 1.428892,1.57568 3.809017,0.0676 z M 401.33335,116 c 1.21551,-1.96674 -0.46565,-3.99344 -2.62518,-3.16476 -1.03021,0.39533 -1.5468,1.56913 -1.14798,2.60844 0.84522,2.20262 2.59613,2.46078 3.77316,0.55632 z m 211.33333,-1.93726 c 0,-5.26912 -6.95801,-12.72941 -11.87239,-12.72941 -4.78806,0 1.80909,12.28935 7.36162,13.7134 4.21961,1.0822 4.51077,1.01868 4.51077,-0.98399 z M 47.333335,110.52402 c 0,-0.65488 -1.5,-1.19069 -3.333334,-1.19069 -3.465112,0 -4.573308,2.01192 -1.666666,3.02582 2.14419,0.74793 5,-0.30022 5,-1.83513 z m 364.910825,-0.10735 c -0.42563,-1.06365 -0.74157,-0.7477 -0.80555,0.80555 -0.0579,1.40556 0.25724,2.19306 0.70029,1.75 0.44306,-0.44305 0.49042,-1.59305 0.10526,-2.55555 z m 29.18483,-2.09881 c -0.44372,-0.44371 -1.54174,-0.0718 -2.44005,0.82655 -1.28885,1.28884 -1.21386,1.89538 0.35555,2.876 1.41683,0.88528 2.11863,0.64756 2.44005,-0.82654 0.24816,-1.13809 0.0882,-2.43229 -0.35555,-2.87601 z m 191.83398,2.23493 c -0.4293,-0.69463 -1.34888,-0.91171 -2.0435,-0.48241 -0.69462,0.4293 -0.9117,1.34888 -0.4824,2.0435 0.4293,0.69462 1.34887,0.91171 2.0435,0.4824 0.69462,-0.4293 0.9117,-1.34887 0.4824,-2.04349 z m -262.92963,-0.85506 c 6.41667,-0.34635 11.66667,-1.17003 11.66667,-1.83039 0,-0.66037 -1.5,-1.20067 -3.33333,-1.20067 -1.83334,0 -3.33334,-0.75354 -3.33334,-1.67452 0,-0.92099 -1.95,-2.46055 -4.33333,-3.42124 -2.38333,-0.9607 -6.30369,-2.607171 -8.7119,-3.65882 C 359.87989,96.86044 355.92989,96 353.51033,96 c -2.41956,0 -4.8488,-0.449595 -5.39831,-0.999101 -1.30058,-1.300584 -14.45733,-4.648423 -30.2133,-7.688016 -6.93476,-1.337831 -9.47814,1.645475 -8.96286,10.513173 0.38074,6.552504 0.59961,6.906584 5.19683,8.407124 6.21841,2.0297 38.39837,5.71958 41.86732,4.80067 1.46667,-0.38851 7.91667,-0.98976 14.33333,-1.33612 z m 211.00001,-0.3644 C 580.88013,108.6 579.94472,108 579.25466,108 c -0.69005,0 -1.25464,0.6 -1.25464,1.33333 0,0.73334 0.93541,1.33334 2.07869,1.33334 1.14328,0 1.70787,-0.6 1.25464,-1.33334 z M 51.333335,106.66667 c 0,-0.73334 -0.6,-1.33334 -1.333334,-1.33334 -0.733333,0 -1.333333,0.6 -1.333333,1.33334 0,0.73333 0.6,1.33333 1.333333,1.33333 0.733334,0 1.333334,-0.6 1.333334,-1.33333 z M 112.44198,104.9374 C 115.45703,101.30449 126,79.715625 126,77.174612 c 0,-4.108823 -2.16635,-1.840435 -5.77949,6.051698 -2.09767,4.581911 -4.37263,7.520529 -6.29424,8.130425 -2.60569,0.827015 -9.2596,6.732581 -9.2596,8.218206 0,1.231329 4.39912,7.091729 5.32342,7.091729 0.5592,0 1.66255,-0.77817 2.45189,-1.72927 z m 149.46753,-0.88897 c 1.40247,-0.75058 2.75584,-3.50483 3.2545,-6.623283 0.4695,-2.936114 1.54335,-6.85214 2.38633,-8.702281 1.43618,-3.152078 1.97468,-3.311947 8.55193,-2.538919 8.4941,0.998315 13.89774,-0.167576 13.89774,-2.998582 0,-1.69542 -1.31885,-2.009828 -6.88461,-1.641264 -4.6624,0.308744 -7.06524,-0.08184 -7.44421,-1.210066 -0.57462,-1.710683 0.32037,-2.191808 6.66215,-3.581407 4.10368,-0.899191 5.00764,-3.419295 1.2265,-3.419295 -4.86845,0 -18.21675,6.354978 -18.6379,8.873294 -0.93665,5.600873 -1.67607,6.62366 -3.03663,4.200364 -1.68962,-3.009373 -14.18956,-2.491447 -19.20654,0.79581 -1.95848,1.283241 -4.41239,2.006404 -5.45315,1.607029 -1.04075,-0.399376 -1.89228,-0.144968 -1.89228,0.56535 0,0.710318 -1.48828,1.291487 -3.30729,1.291487 -2.93166,0 -3.25117,0.482046 -2.81314,4.244117 0.58565,5.029975 3.76591,7.705996 9.37527,7.888786 2.24317,0.0731 5.57849,0.61329 7.41183,1.20043 4.76716,1.52671 13.09991,1.55208 15.9095,0.0484 z M 262.25994,98 c 0.0272,-2.2 0.326,-2.938581 0.66406,-1.641291 0.33805,1.29729 0.31582,3.09729 -0.0494,4.000001 C 262.50936,101.26142 262.23277,100.2 262.25994,98 Z m -203.215866,3.55447 c 0.398358,-1.20868 -0.389448,-1.636054 -2.457792,-1.33333 -1.67424,0.24504 -3.307899,1.24602 -3.630353,2.22439 -0.398358,1.20868 0.389448,1.63605 2.457792,1.33333 1.67424,-0.24504 3.307899,-1.24602 3.630353,-2.22439 z m 577.622616,1.19089 c 0,-0.69006 -0.60221,-1.62683 -1.33823,-2.08172 -0.73603,-0.45489 -1.00254,-2.16454 -0.59226,-3.799228 0.59654,-2.376829 -0.40399,-3.797999 -4.99511,-7.095123 -3.15759,-2.26763 -10.04548,-8.393387 -15.30642,-13.612793 -5.26094,-5.219406 -10.51094,-9.489829 -11.66667,-9.489829 -2.86256,0 -2.83628,0.0798 3.3952,10.309849 4.96238,8.146599 12.25181,16.161675 14.82668,16.30263 0.54442,0.0298 2.34442,1.20859 4,2.619526 9.74005,8.300778 11.67681,9.436398 11.67681,6.846688 z M 404.1389,96.361111 c -1.35535,-1.355354 -2.47366,0.685189 -1.36162,2.484509 0.84004,1.35922 1.1541,1.36027 1.60573,0.0054 0.3088,-0.92638 0.19895,-2.046827 -0.24411,-2.489883 z M 64.872468,95.672466 c -1.526912,-1.526912 -4.595668,-0.04864 -3.518182,1.694766 0.402114,0.650634 1.652231,0.829506 2.778039,0.397493 1.336887,-0.513012 1.593628,-1.238774 0.740143,-2.092259 z M 130.06622,93.96576 c 5.16886,-2.672923 4.99452,-4.632427 -0.41215,-4.632427 -6.28821,0 -9.35402,5.13009 -3.92119,6.561404 0.21975,0.05789 2.16975,-0.810145 4.33334,-1.928977 z m 95.01248,-2.377783 c -0.40995,-0.663306 -1.23077,-0.420601 -1.82405,0.539345 -0.59328,0.959946 -0.74328,2.288061 -0.33333,2.951367 0.40994,0.663307 1.23076,0.420601 1.82404,-0.539344 0.59328,-0.959946 0.74328,-2.288061 0.33334,-2.951368 z M 74.666669,93.333333 C 75.147436,92.555436 73.791626,92 71.412025,92 c -2.243279,0 -4.07869,0.6 -4.07869,1.333333 0,0.733334 1.46459,1.333334 3.254644,1.333334 1.790055,0 3.625465,-0.6 4.07869,-1.333334 z M 518.48218,92.666667 c 0.42211,-1.1 0.18631,-2 -0.52401,-2 -0.71032,0 -1.29149,0.9 -1.29149,2 0,1.1 0.23581,2 0.52402,2 0.2882,0 0.86937,-0.9 1.29148,-2 z M 156.84083,87.836011 c 5.35164,-4.209773 7.39948,-8.905 4.38797,-10.060623 -1.69256,-0.649499 -13.66336,10.925257 -15.05321,14.555196 -0.85029,2.220732 5.56569,-0.483109 10.66524,-4.494573 z M 487.33335,92 c 0,-0.733333 1.53838,-1.333333 3.41862,-1.333333 3.03855,0 3.37209,-0.470054 3,-4.22786 -0.37983,-3.836121 0.0138,-4.341394 4.24804,-5.453174 5.78956,-1.520147 6.4454,-2.133442 3.96139,-3.70438 -2.66185,-1.683406 -10.20372,-1.602174 -13.46846,0.145065 -2.19506,1.174759 -2.37109,1.780582 -0.99808,3.434954 1.26067,1.519021 1.28655,2.243777 0.10616,2.973296 -2.17811,1.346148 -3.69527,9.498765 -1.76767,9.498765 0.825,0 1.5,-0.6 1.5,-1.333333 z M 82.000002,90 c 0,-1.1 -0.864589,-2 -1.92131,-2 -2.577713,0 -3.854441,2.267239 -1.753664,3.11419 2.910722,1.173489 3.674974,0.94178 3.674974,-1.11419 z m 8.000001,-1.921311 c 0,-1.800491 -2.430583,-3.048643 -4.02175,-2.065247 -0.745295,0.460618 -1.009885,1.396028 -0.587977,2.078689 1.000899,1.619488 4.609727,1.608965 4.609727,-0.01344 z M 506.91083,86.416667 c -0.42563,-1.063644 -0.74157,-0.747702 -0.80555,0.805555 -0.0579,1.405556 0.25723,2.193056 0.70029,1.75 0.44306,-0.443055 0.49042,-1.593055 0.10526,-2.555555 z m -406.24416,0.296911 c 0,-1.976287 -4.879829,-4.137245 -7.270776,-3.219752 -1.648445,0.632567 -1.784229,1.234972 -0.599996,2.661885 1.733292,2.088489 7.870772,2.523504 7.870772,0.557867 z m 7.75081,-2.380245 c -0.24459,-1.283333 -1.78859,-2.525064 -3.4311,-2.759401 -3.28253,-0.468319 -3.86926,1.009853 -1.38638,3.492735 2.3886,2.388593 5.32724,1.941262 4.81748,-0.733334 z m 296.73137,0.333334 c 0.4675,-1.218281 0.002,-2 -1.19068,-2 -1.07699,0 -1.95816,0.9 -1.95816,2 0,1.1 0.53581,2 1.19068,2 0.65488,0 1.53605,-0.9 1.95816,-2 z m 117.33333,0 c -0.80195,-2.089849 -4.48216,-2.819698 -4.48216,-0.888889 0,1.628932 1.53246,2.888889 3.5137,2.888889 0.99526,0 1.40848,-0.853342 0.96846,-2 z M 300.66668,80 c 0,-2.598914 -1.41423,-3.474664 -3.01925,-1.869646 -1.06815,1.068153 0.32984,4.536313 1.82856,4.536313 0.65488,0 1.19069,-1.2 1.19069,-2.666667 z m 114.66667,-0.666667 c 0,-1.1 -0.56459,-2 -1.25465,-2 -1.6813,0 -2.88546,2.082119 -1.82022,3.14736 1.50158,1.501579 3.07487,0.914521 3.07487,-1.14736 z M 150.6,75.828137 c 1.46213,-1.340695 -12.54008,-1.612418 -15.93607,-0.309252 -1.70132,0.652857 -1.82186,1.098808 -0.51526,1.906332 2.05068,1.267388 14.66268,0.04303 16.45133,-1.59708 z m 52.73334,-7.751548 c 10.7407,-1.38779 27.41875,-4.293797 49.9238,-8.698789 C 262.74857,57.52001 273.06784,56 276.18886,56 c 3.12101,0 12.70688,-0.921855 21.30192,-2.048566 8.59504,-1.126711 18.81126,-2.132336 22.70272,-2.234722 8.07959,-0.212577 11.81343,-1.696943 7.97432,-3.170147 -3.75868,-1.442344 -31.16931,0.452134 -40.83448,2.822264 -10.66976,2.61648 -25.04793,4.259547 -46,5.256652 -31.23843,1.486632 -56.33533,5.17651 -59.97695,8.818129 -3.5784,3.57841 5.88504,4.712192 21.97695,2.632979 z m 336.66668,-2.64741 c -1.46667,-0.587651 -9.56667,-2.366484 -18,-3.952962 -8.43334,-1.586478 -19.53334,-3.747018 -24.66667,-4.8012 -13.17345,-2.7053 -34.81443,-5.751114 -52.06459,-7.327721 -32.5304,-2.973169 -33.10247,-2.98731 -37.06246,-0.916152 -3.7219,1.946637 -3.59571,2.000196 6.66667,2.829636 10.86283,0.877971 17.76664,1.736244 49.12704,6.107408 10.26667,1.431018 29.16667,3.818377 42,5.305242 12.83334,1.486865 24.23334,2.924006 25.33334,3.193646 1.1,0.269639 4.1,0.521823 6.66667,0.560407 3.63058,0.05458 4.07462,-0.167062 2,-0.998304 z M 331.33334,61.333333 C 331.33334,60.6 331.06875,60 330.74537,60 c -0.32339,0 -0.9588,0.6 -1.41203,1.333333 -0.45322,0.733334 -0.18863,1.333334 0.58798,1.333334 0.77661,0 1.41202,-0.6 1.41202,-1.333334 z m 151.2764,-19.907869 c 0.42191,-0.682661 0.15732,-1.618071 -0.58798,-2.078689 -0.74529,-0.460618 -1.35508,0.09792 -1.35508,1.241202 0,2.342035 0.80007,2.686878 1.94306,0.837487 z M 281.13856,31.67286 c 0.41325,-1.580294 -0.15474,-2.339527 -1.75023,-2.339527 -3.39692,0 -9.38832,5.09648 -9.38832,7.986002 0,2.318348 0.3013,2.294081 5.26337,-0.423913 2.89486,-1.585669 5.53869,-3.935822 5.87518,-5.222562 z m 221.46145,5.832337 c -1.7947,-1.645659 -15.04734,-2.938765 -15.90449,-1.551858 -1.06781,1.727748 1.83119,2.491117 9.90449,2.608065 4.202,0.06087 6.73246,-0.38458 6,-1.056207 z M 300.66668,32.555556 c 0,-2.354569 -2.87035,-1.94452 -3.69445,0.527777 -0.29028,0.870834 0.42222,1.583334 1.58333,1.583334 1.16112,0 2.11112,-0.95 2.11112,-2.111111 z m 28.764,438.749154 c -1.41314,-1.0691 -2.24635,-2.26681 -1.85159,-2.66157 1.09102,-1.09102 7.75425,1.76517 7.75425,3.32386 0,1.9415 -2.88952,1.61729 -5.90266,-0.66229 z m 9.90266,-0.67989 c 0,-0.71032 0.9,-1.29149 2,-1.29149 1.1,0 2,0.23581 2,0.52402 0,0.28821 -0.9,0.86938 -2,1.29149 -1.1,0.4221 -2,0.1863 -2,-0.52402 z m 108.81886,-3.2073 c 0.40435,-1.05369 1.58207,-1.59082 2.61717,-1.19362 2.25162,0.86403 1.18803,3.10943 -1.47287,3.10943 -1.08613,0 -1.56915,-0.80867 -1.1443,-1.91581 z M 246.00001,448.82218 c 0,-0.28114 1.20083,-0.82519 2.6685,-1.20899 1.46768,-0.38381 2.33227,-0.15379 1.92131,0.51116 -0.71766,1.16121 -4.58981,1.74992 -4.58981,0.69783 z m -5.33334,-3.56754 c 0,-0.77661 0.6,-1.0412 1.33334,-0.58797 0.73333,0.45322 1.33333,1.08863 1.33333,1.41202 0,0.32339 -0.6,0.58798 -1.33333,0.58798 -0.73334,0 -1.33334,-0.63541 -1.33334,-1.41203 z m -15.33333,-3.92131 C 225.78656,440.6 226.42198,440 226.74536,440 c 0.32339,0 0.58798,0.6 0.58798,1.33333 0,0.73334 -0.63541,1.33334 -1.41202,1.33334 -0.77662,0 -1.04121,-0.6 -0.58798,-1.33334 z m -48.66667,-57.92131 c 0,-1.79005 0.6,-3.62546 1.33334,-4.07869 0.77789,-0.48076 1.33333,0.87505 1.33333,3.25465 0,2.24328 -0.6,4.07869 -1.33333,4.07869 -0.73334,0 -1.33334,-1.46459 -1.33334,-3.25465 z"
       id="path1" />
  </g>
</svg>
