<svg width="358" height="49" viewBox="0 0 358 49" fill="none" xmlns="http://www.w3.org/2000/svg">
<rect width="358" height="49" fill="#FFF8F5"/>
<g clip-path="url(#clip0_20_4191)">
<rect width="179" height="48" fill="#FFF8F5"/>
<g clip-path="url(#clip1_20_4191)">
<path d="M68.9178 19.0469H72.4383C73.1948 19.0469 73.8396 19.1608 74.3729 19.3887C74.9061 19.6165 75.3139 19.9538 75.5965 20.4004C75.8836 20.8424 76.0271 21.3893 76.0271 22.041C76.0271 22.5378 75.936 22.9753 75.7537 23.3535C75.5714 23.7318 75.3139 24.0508 74.9813 24.3105C74.6486 24.5658 74.2521 24.764 73.7918 24.9053L73.2723 25.1582H70.1072L70.0936 23.7979H72.4656C72.8758 23.7979 73.2176 23.7249 73.491 23.5791C73.7645 23.4333 73.9695 23.235 74.1063 22.9844C74.2475 22.7292 74.3182 22.4421 74.3182 22.123C74.3182 21.7767 74.2498 21.4759 74.1131 21.2207C73.9809 20.9609 73.7758 20.7627 73.4979 20.626C73.2199 20.4847 72.8667 20.4141 72.4383 20.4141H70.6336V29H68.9178V19.0469ZM74.5984 29L72.2605 24.5293L74.0584 24.5225L76.4305 28.9111V29H74.5984ZM80.9328 29.1367C80.3859 29.1367 79.8915 29.0479 79.4494 28.8701C79.0119 28.6878 78.6382 28.4349 78.3283 28.1113C78.023 27.7878 77.7883 27.4072 77.6242 26.9697C77.4602 26.5322 77.3781 26.0605 77.3781 25.5547V25.2812C77.3781 24.7025 77.4624 24.1784 77.6311 23.709C77.7997 23.2396 78.0344 22.8385 78.3352 22.5059C78.6359 22.1686 78.9914 21.9111 79.4016 21.7334C79.8117 21.5557 80.2561 21.4668 80.7346 21.4668C81.2632 21.4668 81.7258 21.5557 82.1223 21.7334C82.5188 21.9111 82.8469 22.1618 83.1066 22.4854C83.371 22.8044 83.5669 23.1849 83.6945 23.627C83.8267 24.069 83.8928 24.5566 83.8928 25.0898V25.7939H78.1779V24.6113H82.2658V24.4814C82.2567 24.1852 82.1975 23.9072 82.0881 23.6475C81.9833 23.3877 81.8215 23.1781 81.6027 23.0186C81.384 22.859 81.0923 22.7793 80.7277 22.7793C80.4543 22.7793 80.2105 22.8385 79.9963 22.957C79.7867 23.071 79.6112 23.2373 79.4699 23.4561C79.3286 23.6748 79.2193 23.9391 79.1418 24.249C79.0689 24.5544 79.0324 24.8984 79.0324 25.2812V25.5547C79.0324 25.8783 79.0757 26.179 79.1623 26.457C79.2535 26.7305 79.3856 26.9697 79.5588 27.1748C79.732 27.3799 79.9416 27.5417 80.1877 27.6602C80.4338 27.7741 80.7141 27.8311 81.0285 27.8311C81.425 27.8311 81.7782 27.7513 82.0881 27.5918C82.398 27.4323 82.6669 27.2067 82.8947 26.915L83.7629 27.7559C83.6034 27.9883 83.396 28.2116 83.1408 28.4258C82.8856 28.6354 82.5734 28.8063 82.2043 28.9385C81.8397 29.0706 81.4159 29.1367 80.9328 29.1367ZM88.2994 27.8242C88.5683 27.8242 88.8098 27.7718 89.024 27.667C89.2428 27.5576 89.4182 27.4072 89.5504 27.2158C89.6871 27.0244 89.7623 26.8034 89.776 26.5527H91.3277C91.3186 27.0312 91.1773 27.4665 90.9039 27.8584C90.6305 28.2503 90.2682 28.5625 89.817 28.7949C89.3658 29.0228 88.8668 29.1367 88.3199 29.1367C87.7548 29.1367 87.2626 29.041 86.8434 28.8496C86.4241 28.6536 86.0755 28.3848 85.7975 28.043C85.5195 27.7012 85.3098 27.307 85.1686 26.8604C85.0318 26.4137 84.9635 25.9352 84.9635 25.4248V25.1855C84.9635 24.6751 85.0318 24.1966 85.1686 23.75C85.3098 23.2988 85.5195 22.9023 85.7975 22.5605C86.0755 22.2188 86.4241 21.9521 86.8434 21.7607C87.2626 21.5648 87.7525 21.4668 88.3131 21.4668C88.9055 21.4668 89.4251 21.5853 89.8717 21.8223C90.3183 22.0547 90.6692 22.3805 90.9244 22.7998C91.1842 23.2145 91.3186 23.6976 91.3277 24.249H89.776C89.7623 23.9756 89.6939 23.7295 89.5709 23.5107C89.4524 23.2874 89.2838 23.1097 89.065 22.9775C88.8508 22.8454 88.5934 22.7793 88.2926 22.7793C87.9599 22.7793 87.6842 22.8477 87.4654 22.9844C87.2467 23.1165 87.0758 23.2988 86.9527 23.5312C86.8297 23.7591 86.7408 24.0166 86.6861 24.3037C86.636 24.5863 86.6109 24.8802 86.6109 25.1855V25.4248C86.6109 25.7301 86.636 26.0264 86.6861 26.3135C86.7363 26.6006 86.8229 26.8581 86.9459 27.0859C87.0735 27.3092 87.2467 27.4893 87.4654 27.626C87.6842 27.7581 87.9622 27.8242 88.2994 27.8242ZM94.4561 21.6035V29H92.8018V21.6035H94.4561ZM92.6924 19.6621C92.6924 19.4115 92.7744 19.2041 92.9385 19.04C93.1071 18.8714 93.3395 18.7871 93.6357 18.7871C93.9274 18.7871 94.1576 18.8714 94.3262 19.04C94.4948 19.2041 94.5791 19.4115 94.5791 19.6621C94.5791 19.9082 94.4948 20.1133 94.3262 20.2773C94.1576 20.4414 93.9274 20.5234 93.6357 20.5234C93.3395 20.5234 93.1071 20.4414 92.9385 20.2773C92.7744 20.1133 92.6924 19.9082 92.6924 19.6621ZM98.015 23.0254V31.8438H96.3676V21.6035H97.8852L98.015 23.0254ZM102.834 25.2334V25.377C102.834 25.9147 102.771 26.4137 102.643 26.874C102.52 27.3298 102.335 27.7285 102.089 28.0703C101.848 28.4076 101.549 28.6696 101.194 28.8564C100.838 29.0433 100.428 29.1367 99.9633 29.1367C99.503 29.1367 99.0997 29.0524 98.7533 28.8838C98.4115 28.7106 98.1221 28.4668 97.8852 28.1523C97.6482 27.8379 97.4568 27.4688 97.3109 27.0449C97.1697 26.6165 97.0694 26.1471 97.0102 25.6367V25.083C97.0694 24.5407 97.1697 24.0485 97.3109 23.6064C97.4568 23.1644 97.6482 22.7839 97.8852 22.4648C98.1221 22.1458 98.4115 21.8997 98.7533 21.7266C99.0951 21.5534 99.4939 21.4668 99.9496 21.4668C100.414 21.4668 100.827 21.5579 101.187 21.7402C101.547 21.918 101.85 22.1732 102.096 22.5059C102.342 22.834 102.527 23.2305 102.65 23.6953C102.773 24.1556 102.834 24.6683 102.834 25.2334ZM101.187 25.377V25.2334C101.187 24.8916 101.155 24.5749 101.091 24.2832C101.027 23.987 100.927 23.7272 100.79 23.5039C100.654 23.2806 100.478 23.1074 100.264 22.9844C100.054 22.8568 99.8015 22.793 99.5053 22.793C99.2136 22.793 98.963 22.8431 98.7533 22.9434C98.5437 23.0391 98.3682 23.1735 98.227 23.3467C98.0857 23.5199 97.9763 23.7227 97.8988 23.9551C97.8214 24.1829 97.7667 24.4313 97.7348 24.7002V26.0264C97.7895 26.3545 97.8829 26.6553 98.015 26.9287C98.1472 27.2021 98.334 27.4209 98.5756 27.585C98.8217 27.7445 99.1361 27.8242 99.5189 27.8242C99.8152 27.8242 100.068 27.7604 100.278 27.6328C100.487 27.5052 100.658 27.3298 100.79 27.1064C100.927 26.8786 101.027 26.6165 101.091 26.3203C101.155 26.0241 101.187 25.7096 101.187 25.377ZM107.596 29.1367C107.05 29.1367 106.555 29.0479 106.113 28.8701C105.676 28.6878 105.302 28.4349 104.992 28.1113C104.687 27.7878 104.452 27.4072 104.288 26.9697C104.124 26.5322 104.042 26.0605 104.042 25.5547V25.2812C104.042 24.7025 104.126 24.1784 104.295 23.709C104.463 23.2396 104.698 22.8385 104.999 22.5059C105.3 22.1686 105.655 21.9111 106.065 21.7334C106.475 21.5557 106.92 21.4668 107.398 21.4668C107.927 21.4668 108.389 21.5557 108.786 21.7334C109.182 21.9111 109.511 22.1618 109.77 22.4854C110.035 22.8044 110.231 23.1849 110.358 23.627C110.49 24.069 110.556 24.5566 110.556 25.0898V25.7939H104.842V24.6113H108.929V24.4814C108.92 24.1852 108.861 23.9072 108.752 23.6475C108.647 23.3877 108.485 23.1781 108.266 23.0186C108.048 22.859 107.756 22.7793 107.391 22.7793C107.118 22.7793 106.874 22.8385 106.66 22.957C106.45 23.071 106.275 23.2373 106.134 23.4561C105.992 23.6748 105.883 23.9391 105.805 24.249C105.733 24.5544 105.696 24.8984 105.696 25.2812V25.5547C105.696 25.8783 105.739 26.179 105.826 26.457C105.917 26.7305 106.049 26.9697 106.222 27.1748C106.396 27.3799 106.605 27.5417 106.851 27.6602C107.097 27.7741 107.378 27.8311 107.692 27.8311C108.089 27.8311 108.442 27.7513 108.752 27.5918C109.062 27.4323 109.331 27.2067 109.558 26.915L110.427 27.7559C110.267 27.9883 110.06 28.2116 109.804 28.4258C109.549 28.6354 109.237 28.8063 108.868 28.9385C108.503 29.0706 108.08 29.1367 107.596 29.1367Z" fill="#855318"/>
<path d="M69.5 48C69.5 46.3431 70.8431 45 72.5 45H106.5C108.157 45 109.5 46.3431 109.5 48H69.5Z" fill="#855318"/>
</g>
</g>
<g clip-path="url(#clip2_20_4191)">
<rect width="179" height="48" transform="translate(179)" fill="#FFF8F5"/>
<path d="M227.416 19.0469V29H225.7L221.236 21.8701V29H219.52V19.0469H221.236L225.714 26.1904V19.0469H227.416ZM233.846 27.2568V21.6035H235.5V29H233.942L233.846 27.2568ZM234.078 25.7188L234.632 25.7051C234.632 26.2018 234.577 26.6598 234.468 27.0791C234.359 27.4938 234.19 27.8561 233.962 28.166C233.734 28.4714 233.443 28.7106 233.087 28.8838C232.732 29.0524 232.306 29.1367 231.809 29.1367C231.449 29.1367 231.118 29.0843 230.818 28.9795C230.517 28.8747 230.257 28.7129 230.038 28.4941C229.824 28.2754 229.658 27.9906 229.539 27.6396C229.421 27.2887 229.362 26.8695 229.362 26.3818V21.6035H231.009V26.3955C231.009 26.6644 231.041 26.89 231.105 27.0723C231.168 27.25 231.255 27.3936 231.364 27.5029C231.474 27.6123 231.601 27.6898 231.747 27.7354C231.893 27.7809 232.048 27.8037 232.212 27.8037C232.682 27.8037 233.051 27.7126 233.32 27.5303C233.593 27.3434 233.787 27.0928 233.901 26.7783C234.019 26.4639 234.078 26.1107 234.078 25.7188ZM240.679 21.6035V22.8066H236.509V21.6035H240.679ZM237.713 19.792H239.36V26.9561C239.36 27.1839 239.392 27.3594 239.456 27.4824C239.524 27.6009 239.617 27.6807 239.736 27.7217C239.854 27.7627 239.993 27.7832 240.153 27.7832C240.267 27.7832 240.376 27.7764 240.481 27.7627C240.586 27.749 240.67 27.7354 240.734 27.7217L240.741 28.9795C240.604 29.0205 240.445 29.057 240.262 29.0889C240.085 29.1208 239.879 29.1367 239.647 29.1367C239.269 29.1367 238.934 29.0706 238.642 28.9385C238.351 28.8018 238.123 28.5807 237.959 28.2754C237.795 27.9701 237.713 27.5645 237.713 27.0586V19.792ZM243.705 23.0117V29H242.058V21.6035H243.63L243.705 23.0117ZM245.968 21.5557L245.954 23.0869C245.854 23.0687 245.744 23.055 245.626 23.0459C245.512 23.0368 245.398 23.0322 245.284 23.0322C245.002 23.0322 244.753 23.0732 244.539 23.1553C244.325 23.2327 244.145 23.3467 243.999 23.4971C243.858 23.6429 243.748 23.8206 243.671 24.0303C243.593 24.2399 243.548 24.4746 243.534 24.7344L243.158 24.7617C243.158 24.2969 243.204 23.8662 243.295 23.4697C243.386 23.0732 243.523 22.7246 243.705 22.4238C243.892 22.123 244.124 21.8883 244.402 21.7197C244.685 21.5511 245.011 21.4668 245.38 21.4668C245.48 21.4668 245.587 21.4759 245.701 21.4941C245.82 21.5124 245.909 21.5329 245.968 21.5557ZM248.864 21.6035V29H247.209V21.6035H248.864ZM247.1 19.6621C247.1 19.4115 247.182 19.2041 247.346 19.04C247.515 18.8714 247.747 18.7871 248.043 18.7871C248.335 18.7871 248.565 18.8714 248.734 19.04C248.902 19.2041 248.987 19.4115 248.987 19.6621C248.987 19.9082 248.902 20.1133 248.734 20.2773C248.565 20.4414 248.335 20.5234 248.043 20.5234C247.747 20.5234 247.515 20.4414 247.346 20.2773C247.182 20.1133 247.1 19.9082 247.1 19.6621ZM254.159 21.6035V22.8066H249.989V21.6035H254.159ZM251.192 19.792H252.84V26.9561C252.84 27.1839 252.872 27.3594 252.935 27.4824C253.004 27.6009 253.097 27.6807 253.216 27.7217C253.334 27.7627 253.473 27.7832 253.633 27.7832C253.747 27.7832 253.856 27.7764 253.961 27.7627C254.066 27.749 254.15 27.7354 254.214 27.7217L254.221 28.9795C254.084 29.0205 253.924 29.057 253.742 29.0889C253.564 29.1208 253.359 29.1367 253.127 29.1367C252.749 29.1367 252.414 29.0706 252.122 28.9385C251.83 28.8018 251.602 28.5807 251.438 28.2754C251.274 27.9701 251.192 27.5645 251.192 27.0586V19.792ZM257.294 21.6035V29H255.64V21.6035H257.294ZM255.53 19.6621C255.53 19.4115 255.612 19.2041 255.777 19.04C255.945 18.8714 256.178 18.7871 256.474 18.7871C256.765 18.7871 256.996 18.8714 257.164 19.04C257.333 19.2041 257.417 19.4115 257.417 19.6621C257.417 19.9082 257.333 20.1133 257.164 20.2773C256.996 20.4414 256.765 20.5234 256.474 20.5234C256.178 20.5234 255.945 20.4414 255.777 20.2773C255.612 20.1133 255.53 19.9082 255.53 19.6621ZM258.884 25.3838V25.2266C258.884 24.6934 258.962 24.1989 259.117 23.7432C259.272 23.2829 259.495 22.8841 259.787 22.5469C260.083 22.2051 260.443 21.9408 260.867 21.7539C261.295 21.5625 261.778 21.4668 262.316 21.4668C262.858 21.4668 263.341 21.5625 263.765 21.7539C264.194 21.9408 264.556 22.2051 264.852 22.5469C265.148 22.8841 265.374 23.2829 265.529 23.7432C265.684 24.1989 265.761 24.6934 265.761 25.2266V25.3838C265.761 25.917 265.684 26.4115 265.529 26.8672C265.374 27.3229 265.148 27.7217 264.852 28.0635C264.556 28.4007 264.196 28.665 263.772 28.8564C263.348 29.0433 262.867 29.1367 262.33 29.1367C261.787 29.1367 261.302 29.0433 260.874 28.8564C260.45 28.665 260.09 28.4007 259.794 28.0635C259.497 27.7217 259.272 27.3229 259.117 26.8672C258.962 26.4115 258.884 25.917 258.884 25.3838ZM260.532 25.2266V25.3838C260.532 25.7165 260.566 26.0309 260.634 26.3271C260.703 26.6234 260.81 26.8831 260.956 27.1064C261.101 27.3298 261.288 27.5052 261.516 27.6328C261.744 27.7604 262.015 27.8242 262.33 27.8242C262.635 27.8242 262.899 27.7604 263.123 27.6328C263.351 27.5052 263.537 27.3298 263.683 27.1064C263.829 26.8831 263.936 26.6234 264.004 26.3271C264.077 26.0309 264.114 25.7165 264.114 25.3838V25.2266C264.114 24.8984 264.077 24.5885 264.004 24.2969C263.936 24.0007 263.827 23.7386 263.676 23.5107C263.531 23.2829 263.344 23.1051 263.116 22.9775C262.893 22.8454 262.626 22.7793 262.316 22.7793C262.006 22.7793 261.737 22.8454 261.509 22.9775C261.286 23.1051 261.101 23.2829 260.956 23.5107C260.81 23.7386 260.703 24.0007 260.634 24.2969C260.566 24.5885 260.532 24.8984 260.532 25.2266ZM268.876 23.1826V29H267.229V21.6035H268.78L268.876 23.1826ZM268.582 25.0283L268.049 25.0215C268.053 24.4974 268.126 24.0166 268.268 23.5791C268.413 23.1416 268.614 22.7656 268.869 22.4512C269.129 22.1367 269.439 21.8952 269.799 21.7266C270.159 21.5534 270.56 21.4668 271.002 21.4668C271.357 21.4668 271.679 21.5169 271.966 21.6172C272.257 21.7129 272.506 21.8701 272.711 22.0889C272.921 22.3076 273.08 22.5924 273.189 22.9434C273.299 23.2897 273.354 23.7158 273.354 24.2217V29H271.699V24.2148C271.699 23.8594 271.647 23.5791 271.542 23.374C271.442 23.1644 271.294 23.0163 271.098 22.9297C270.906 22.8385 270.667 22.793 270.38 22.793C270.097 22.793 269.844 22.8522 269.621 22.9707C269.398 23.0892 269.209 23.251 269.054 23.4561C268.903 23.6611 268.787 23.8981 268.705 24.167C268.623 24.4359 268.582 24.723 268.582 25.0283ZM279.305 27.5166V23.9893C279.305 23.7249 279.257 23.4971 279.162 23.3057C279.066 23.1143 278.92 22.9661 278.724 22.8613C278.533 22.7565 278.291 22.7041 277.999 22.7041C277.731 22.7041 277.498 22.7497 277.302 22.8408C277.106 22.932 276.954 23.055 276.844 23.21C276.735 23.3649 276.68 23.5404 276.68 23.7363H275.039C275.039 23.4447 275.11 23.1621 275.251 22.8887C275.393 22.6152 275.598 22.3714 275.867 22.1572C276.135 21.943 276.457 21.7744 276.83 21.6514C277.204 21.5283 277.623 21.4668 278.088 21.4668C278.644 21.4668 279.136 21.5602 279.565 21.7471C279.998 21.9339 280.337 22.2165 280.583 22.5947C280.834 22.9684 280.959 23.4378 280.959 24.0029V27.291C280.959 27.6283 280.982 27.9313 281.028 28.2002C281.078 28.4645 281.149 28.6947 281.24 28.8906V29H279.551C279.474 28.8223 279.412 28.5967 279.367 28.3232C279.326 28.0452 279.305 27.7764 279.305 27.5166ZM279.544 24.502L279.558 25.5205H278.375C278.07 25.5205 277.801 25.5501 277.569 25.6094C277.336 25.6641 277.143 25.7461 276.988 25.8555C276.833 25.9648 276.717 26.097 276.639 26.252C276.562 26.4069 276.523 26.5824 276.523 26.7783C276.523 26.9743 276.568 27.1543 276.66 27.3184C276.751 27.4779 276.883 27.6032 277.056 27.6943C277.234 27.7855 277.448 27.8311 277.699 27.8311C278.036 27.8311 278.33 27.7627 278.58 27.626C278.836 27.4847 279.036 27.3138 279.182 27.1133C279.328 26.9082 279.405 26.7145 279.414 26.5322L279.948 27.2637C279.893 27.4505 279.8 27.651 279.667 27.8652C279.535 28.0794 279.362 28.2845 279.148 28.4805C278.938 28.6719 278.685 28.8291 278.389 28.9521C278.097 29.0752 277.76 29.1367 277.377 29.1367C276.894 29.1367 276.464 29.041 276.085 28.8496C275.707 28.6536 275.411 28.3916 275.197 28.0635C274.982 27.7308 274.875 27.3548 274.875 26.9355C274.875 26.5436 274.948 26.1973 275.094 25.8965C275.245 25.5911 275.463 25.3359 275.75 25.1309C276.042 24.9258 276.398 24.7708 276.817 24.666C277.236 24.5566 277.715 24.502 278.252 24.502H279.544ZM284.546 18.5V29H282.891V18.5H284.546ZM293.092 29H290.966L290.98 27.6396H293.092C293.708 27.6396 294.223 27.5052 294.637 27.2363C295.057 26.9674 295.371 26.5824 295.581 26.0811C295.795 25.5798 295.902 24.9827 295.902 24.29V23.75C295.902 23.2122 295.84 22.736 295.717 22.3213C295.599 21.9066 295.421 21.5579 295.184 21.2754C294.952 20.9928 294.665 20.7786 294.323 20.6328C293.986 20.487 293.596 20.4141 293.154 20.4141H290.925V19.0469H293.154C293.815 19.0469 294.419 19.1585 294.965 19.3818C295.512 19.6006 295.984 19.9173 296.38 20.332C296.782 20.7467 297.089 21.2435 297.303 21.8223C297.518 22.401 297.625 23.0482 297.625 23.7637V24.29C297.625 25.0055 297.518 25.6527 297.303 26.2314C297.089 26.8102 296.782 27.307 296.38 27.7217C295.979 28.1318 295.501 28.4486 294.945 28.6719C294.393 28.8906 293.776 29 293.092 29ZM291.917 19.0469V29H290.201V19.0469H291.917ZM303.453 27.5166V23.9893C303.453 23.7249 303.405 23.4971 303.31 23.3057C303.214 23.1143 303.068 22.9661 302.872 22.8613C302.681 22.7565 302.439 22.7041 302.147 22.7041C301.879 22.7041 301.646 22.7497 301.45 22.8408C301.254 22.932 301.102 23.055 300.992 23.21C300.883 23.3649 300.828 23.5404 300.828 23.7363H299.188C299.188 23.4447 299.258 23.1621 299.399 22.8887C299.541 22.6152 299.746 22.3714 300.015 22.1572C300.284 21.943 300.605 21.7744 300.979 21.6514C301.352 21.5283 301.771 21.4668 302.236 21.4668C302.792 21.4668 303.285 21.5602 303.713 21.7471C304.146 21.9339 304.485 22.2165 304.731 22.5947C304.982 22.9684 305.107 23.4378 305.107 24.0029V27.291C305.107 27.6283 305.13 27.9313 305.176 28.2002C305.226 28.4645 305.297 28.6947 305.388 28.8906V29H303.699C303.622 28.8223 303.56 28.5967 303.515 28.3232C303.474 28.0452 303.453 27.7764 303.453 27.5166ZM303.692 24.502L303.706 25.5205H302.523C302.218 25.5205 301.949 25.5501 301.717 25.6094C301.484 25.6641 301.291 25.7461 301.136 25.8555C300.981 25.9648 300.865 26.097 300.787 26.252C300.71 26.4069 300.671 26.5824 300.671 26.7783C300.671 26.9743 300.716 27.1543 300.808 27.3184C300.899 27.4779 301.031 27.6032 301.204 27.6943C301.382 27.7855 301.596 27.8311 301.847 27.8311C302.184 27.8311 302.478 27.7627 302.729 27.626C302.984 27.4847 303.184 27.3138 303.33 27.1133C303.476 26.9082 303.553 26.7145 303.562 26.5322L304.096 27.2637C304.041 27.4505 303.948 27.651 303.815 27.8652C303.683 28.0794 303.51 28.2845 303.296 28.4805C303.086 28.6719 302.833 28.8291 302.537 28.9521C302.245 29.0752 301.908 29.1367 301.525 29.1367C301.042 29.1367 300.612 29.041 300.233 28.8496C299.855 28.6536 299.559 28.3916 299.345 28.0635C299.131 27.7308 299.023 27.3548 299.023 26.9355C299.023 26.5436 299.096 26.1973 299.242 25.8965C299.393 25.5911 299.611 25.3359 299.898 25.1309C300.19 24.9258 300.546 24.7708 300.965 24.666C301.384 24.5566 301.863 24.502 302.4 24.502H303.692ZM310.321 21.6035V22.8066H306.151V21.6035H310.321ZM307.354 19.792H309.001V26.9561C309.001 27.1839 309.033 27.3594 309.097 27.4824C309.165 27.6009 309.259 27.6807 309.377 27.7217C309.496 27.7627 309.635 27.7832 309.794 27.7832C309.908 27.7832 310.018 27.7764 310.122 27.7627C310.227 27.749 310.312 27.7354 310.375 27.7217L310.382 28.9795C310.246 29.0205 310.086 29.057 309.904 29.0889C309.726 29.1208 309.521 29.1367 309.288 29.1367C308.91 29.1367 308.575 29.0706 308.284 28.9385C307.992 28.8018 307.764 28.5807 307.6 28.2754C307.436 27.9701 307.354 27.5645 307.354 27.0586V19.792ZM315.862 27.5166V23.9893C315.862 23.7249 315.814 23.4971 315.719 23.3057C315.623 23.1143 315.477 22.9661 315.281 22.8613C315.09 22.7565 314.848 22.7041 314.556 22.7041C314.288 22.7041 314.055 22.7497 313.859 22.8408C313.663 22.932 313.511 23.055 313.401 23.21C313.292 23.3649 313.237 23.5404 313.237 23.7363H311.596C311.596 23.4447 311.667 23.1621 311.808 22.8887C311.95 22.6152 312.155 22.3714 312.424 22.1572C312.693 21.943 313.014 21.7744 313.387 21.6514C313.761 21.5283 314.18 21.4668 314.645 21.4668C315.201 21.4668 315.693 21.5602 316.122 21.7471C316.555 21.9339 316.894 22.2165 317.14 22.5947C317.391 22.9684 317.516 23.4378 317.516 24.0029V27.291C317.516 27.6283 317.539 27.9313 317.585 28.2002C317.635 28.4645 317.706 28.6947 317.797 28.8906V29H316.108C316.031 28.8223 315.969 28.5967 315.924 28.3232C315.883 28.0452 315.862 27.7764 315.862 27.5166ZM316.101 24.502L316.115 25.5205H314.932C314.627 25.5205 314.358 25.5501 314.126 25.6094C313.893 25.6641 313.7 25.7461 313.545 25.8555C313.39 25.9648 313.274 26.097 313.196 26.252C313.119 26.4069 313.08 26.5824 313.08 26.7783C313.08 26.9743 313.125 27.1543 313.217 27.3184C313.308 27.4779 313.44 27.6032 313.613 27.6943C313.791 27.7855 314.005 27.8311 314.256 27.8311C314.593 27.8311 314.887 27.7627 315.137 27.626C315.393 27.4847 315.593 27.3138 315.739 27.1133C315.885 26.9082 315.962 26.7145 315.971 26.5322L316.505 27.2637C316.45 27.4505 316.357 27.651 316.224 27.8652C316.092 28.0794 315.919 28.2845 315.705 28.4805C315.495 28.6719 315.242 28.8291 314.946 28.9521C314.654 29.0752 314.317 29.1367 313.934 29.1367C313.451 29.1367 313.021 29.041 312.642 28.8496C312.264 28.6536 311.968 28.3916 311.754 28.0635C311.54 27.7308 311.432 27.3548 311.432 26.9355C311.432 26.5436 311.505 26.1973 311.651 25.8965C311.802 25.5911 312.02 25.3359 312.307 25.1309C312.599 24.9258 312.955 24.7708 313.374 24.666C313.793 24.5566 314.272 24.502 314.809 24.502H316.101Z" fill="#51453A"/>
</g>
<line x1="-4.37114e-08" y1="48.5001" x2="358" y2="48.5" stroke="#D5C3B5"/>
<defs>
<clipPath id="clip0_20_4191">
<rect width="179" height="48" fill="white"/>
</clipPath>
<clipPath id="clip1_20_4191">
<rect width="44" height="48" fill="white" transform="translate(67.5)"/>
</clipPath>
<clipPath id="clip2_20_4191">
<rect width="179" height="48" fill="white" transform="translate(179)"/>
</clipPath>
</defs>
</svg>
